<?xml version="1.0" encoding="UTF-8" standalone="no"?>
<!-- Created with Inkscape (http://www.inkscape.org/) -->

<svg
   xmlns:dc="http://purl.org/dc/elements/1.1/"
   xmlns:cc="http://creativecommons.org/ns#"
   xmlns:rdf="http://www.w3.org/1999/02/22-rdf-syntax-ns#"
   xmlns:svg="http://www.w3.org/2000/svg"
   xmlns="http://www.w3.org/2000/svg"
   xmlns:inkscape="http://www.inkscape.org/namespaces/inkscape"
   version="1.1"
   width="744.09448"
   height="1052.3622"
   id="svg2">
  <defs
     id="defs4">
    <linearGradient
       id="linearGradient8139">
      <stop
         id="stop8141"
         style="stop-color:#000000;stop-opacity:1"
         offset="0" />
    </linearGradient>
    <inkscape:path-effect
       effect="spiro"
       id="path-effect5913" />
    <inkscape:path-effect
       effect="spiro"
       id="path-effect5909" />
    <inkscape:path-effect
       effect="spiro"
       id="path-effect5905" />
    <inkscape:path-effect
       effect="spiro"
       id="path-effect5901" />
    <inkscape:path-effect
       effect="spiro"
       id="path-effect5897" />
    <inkscape:path-effect
       effect="spiro"
       id="path-effect5893" />
    <inkscape:path-effect
       effect="skeletal"
       id="path-effect5889" />
    <inkscape:path-effect
       effect="skeletal"
       id="path-effect5885" />
    <inkscape:path-effect
       effect="skeletal"
       id="path-effect5881" />
    <inkscape:path-effect
       effect="skeletal"
       id="path-effect5877" />
    <inkscape:path-effect
       effect="skeletal"
       id="path-effect5873" />
    <inkscape:path-effect
       effect="skeletal"
       id="path-effect5869" />
    <inkscape:path-effect
       effect="skeletal"
       id="path-effect5865" />
    <inkscape:path-effect
       effect="skeletal"
       id="path-effect5861" />
    <inkscape:path-effect
       effect="skeletal"
       id="path-effect5857" />
  </defs>
  <metadata
     id="metadata7">
    <rdf:RDF>
      <cc:Work
         rdf:about="">
        <dc:format>image/svg+xml</dc:format>
        <dc:type
           rdf:resource="http://purl.org/dc/dcmitype/StillImage" />
        <dc:title></dc:title>
      </cc:Work>
    </rdf:RDF>
  </metadata>
  <g
     id="layer1">
    <path
       d="m 307.08636,384.65134 c -4.1259,-3.60912 2.82945,-7.34225 5.9986,-6.85753 8.5882,1.31358 10.67283,12.0623 7.71645,18.85472 -5.28826,12.15004 -20.96637,14.57949 -31.71083,8.57538 -15.76793,-8.81127 -18.59215,-29.98769 -9.43431,-44.56695 12.20595,-19.43186 39.05017,-22.64939 57.42307,-10.29325 23.12042,15.54894 26.72955,48.13216 11.15217,70.2792 -18.86628,26.82302 -57.2251,30.82297 -83.13531,12.0111 -30.53428,-22.16914 -34.92472,-66.32488 -12.87003,-95.99143 25.46301,-34.25121 75.42922,-39.03203 108.84755,-13.72897 37.97203,28.75095 43.14321,84.53676 14.58789,121.70368 -32.03474,41.69566 -93.64664,47.25721 -134.55979,15.44682 -45.42136,-35.31556 -51.37333,-102.75828 -16.30575,-147.41591 38.59414,-49.14863 111.87127,-55.49107 160.27203,-17.16469 52.87713,41.87102 59.61007,120.98534 18.02361,173.12816 -45.14655,56.6066 -130.10027,63.7301 -185.98427,18.88254 -60.33686,-48.42102 -67.85095,-139.2159 -19.74147,-198.84039 51.69462,-64.06775 148.3321,-71.97248 211.69651,-20.60041 67.79918,54.96752 76.09457,157.44879 21.45933,224.55264 -58.23982,71.53105 -166.56588,80.21713 -237.40875,22.31826 -75.2633,-61.51162 -84.3401,-175.68333 -23.17719,-250.26487 64.783,-78.99587 184.80106,-88.46342 263.12099,-24.03613 82.72871,68.05403 92.58703,193.91907 24.89505,275.97712 -71.32474,86.46178 -203.03728,96.71089 -288.83323,25.75398 C 78.923602,467.77923 68.283689,330.2187 142.50577,240.68506 220.37115,146.75651 363.78006,135.72577 457.05124,213.21321 554.71342,294.3486 566.13499,443.60626 485.38201,540.61481 400.97681,642.01077 245.87009,653.82318 145.1243,569.80451 39.994434,482.12966 27.791159,321.17358 115.07567,216.69068 206.02002,107.82679 372.82571,95.232647 481.04562,185.78311 593.64362,279.99685 606.62865,452.65237 512.81211,564.60919 415.32912,680.9414 236.82356,694.31732 121.12992,597.23461 1.0634109,496.48247 -12.703406,312.12668 87.645568,192.6963 191.66677,68.895418 381.87296,54.737695 505.04,158.35302 c 127.53532,107.29016 142.08395,303.3469 35.20221,430.25055 -62.67715,74.41831 -158.9191,115.61314 -255.9934,110.35341"
       id="path5925"
       style="fill:#ffb380;stroke:#d45500;stroke-width:11.30000019;stroke-linecap:butt;stroke-linejoin:miter;stroke-miterlimit:4;stroke-opacity:1;stroke-dasharray:none" />
  </g>
</svg>
