<?xml version="1.0" encoding="UTF-8" standalone="no"?>
<!-- Created with Inkscape (http://www.inkscape.org/) -->

<svg
   xmlns:dc="http://purl.org/dc/elements/1.1/"
   xmlns:cc="http://creativecommons.org/ns#"
   xmlns:rdf="http://www.w3.org/1999/02/22-rdf-syntax-ns#"
   xmlns:svg="http://www.w3.org/2000/svg"
   xmlns="http://www.w3.org/2000/svg"
   version="1.1"
   width="744.09448"
   height="1052.3622"
   id="svg2">
  <defs
     id="defs4">
    <filter
       x="0"
       y="0"
       width="1"
       height="1"
       color-interpolation-filters="sRGB"
       id="filter3975">
      <feTurbulence
         result="result0"
         baseFrequency="0.037"
         numOctaves="3"
         id="feTurbulence3977" />
      <feSpecularLighting
         result="result1"
         specularConstant="1"
         surfaceScale="2"
         specularExponent="24.29999924"
         id="feSpecularLighting3979">
        <feDistantLight
           azimuth="225"
           elevation="45"
           id="feDistantLight3981" />
      </feSpecularLighting>
      <feDiffuseLighting
         result="result2"
         diffuseConstant="1.21000004"
         surfaceScale="3"
         in="result0"
         id="feDiffuseLighting3983">
        <feDistantLight
           elevation="42"
           azimuth="225"
           id="feDistantLight3985" />
      </feDiffuseLighting>
      <feBlend
         in2="SourceGraphic"
         mode="multiply"
         result="result91"
         id="feBlend3987" />
      <feComposite
         in2="result91"
         operator="arithmetic"
         k1="0"
         k2="1"
         k3="1"
         k4="0"
         in="result1"
         result="result92"
         id="feComposite3989" />
      <feComposite
         in2="SourceAlpha"
         operator="in"
         result="result2"
         id="feComposite3991" />
    </filter>
  </defs>
  <metadata
     id="metadata7">
    <rdf:RDF>
      <cc:Work
         rdf:about="">
        <dc:format>image/svg+xml</dc:format>
        <dc:type
           rdf:resource="http://purl.org/dc/dcmitype/StillImage" />
        <dc:title></dc:title>
      </cc:Work>
    </rdf:RDF>
  </metadata>
  <g
     id="layer1">
    <g
       transform="translate(233.01505,198.60496)"
       id="g3811" />
    <path
       d="m 97.984797,214.94572 0.486029,1.36692 0.61444,1.31422 0.804574,1.20524 0.78933,1.21529 1.18788,0.8244 1.19297,0.81702 1.05839,1.11666 1.52844,0.17601 1.40051,0.5953 0.93728,1.19887 0.53523,1.37433 0.41301,1.41586 1.1393,0.83725 1.24171,0.67613 0.91753,1.14207 1.37745,0.49884 1.46378,0.31835 1.49494,0.0958 1.22751,0.85383 1.14685,0.95946 0.90507,1.2437 1.44398,0.52999 1.44881,0.28029 1.39256,0.48823 1.4279,0.44095 1.48659,-0.15282 1.40207,-0.5375 1.49675,0.12028 1.49407,-0.21413 1.22757,-0.87817 1.44981,-0.22557 1.46216,-0.1221 1.27174,0.5994 1.35397,0.37866 1.33866,0.44876 1.40795,0.10532 0.8866,1.09287 1.12317,0.84788 0.95105,1.02335 0.97643,0.99915 1.30449,0.56052 1.41198,-0.14888 1.30248,-0.5575 1.41108,0.12706 1.4807,0.19215 1.0435,1.06794 1.45083,0.39637 1.35961,-0.64301 1.07278,1.01703 0.30329,1.4468 1.30642,0.61779 0.92403,1.11111 1.43081,0.49912 0.89191,1.22509 1.44431,0.079 1.4458,0.044 1.43838,0.26545 1.40221,0.41618 1.0141,1.05501 0.87725,1.17127 1.32389,0.60207 1.45303,-0.0621 1.41049,-0.15645 1.36662,-0.38254 1.47642,0.29578 1.30642,-0.74871 1.05381,-0.93657 1.07741,-0.90932 1.27308,-0.46791 1.26708,-0.48391 1.44943,-0.0143 1.07928,-0.96758 1.15842,-0.72773 1.28965,-0.45643 1.36181,-0.31042 1.08113,-0.88433 1.38095,-0.52968 0.96025,-1.12496 1.41744,0.57214 1.44825,-0.48894 1.53686,0.0815 1.41616,-0.60257 1.32975,0.84402 1.57244,-0.0896 1.61943,0.26765 1.40472,-0.84908 0.92864,-1.24042 1.18144,-1.0026 1.1685,0.8687 1.24008,0.76305 1.49702,-0.3145 1.39546,0.62663 1.51985,0.30229 0.95073,1.22369 1.48782,-0.38594 1.40662,0.61964 1.42099,-0.23501 1.37961,-0.41363 1.38028,-0.57663 1.47543,0.2465 0.93304,-1.1119 1.13957,-0.89904 0.96804,-1.09217 0.61279,-1.32455 1.37267,-0.51313 1.43977,-0.27314 1.34104,-0.68803 0.84536,-1.24786 1.44425,0.20205 1.29684,0.66703 1.4351,0.1483 1.43988,-0.0909 0.91223,-1.11208 0.59581,-1.30914 1.09785,-0.92293 0.87947,-1.13296 1.0509,-0.97914 0.94823,-1.07886 1.3847,-0.45753 1.13329,-0.91782 1.33447,-0.63891 1.25506,-0.78346 1.38436,-0.54901 1.47794,-0.18316 1.18234,1.03898 1.55949,0.21298 1.52162,0.31221 1.48981,-0.43964 -0.17103,-1.59494 0.54245,-1.50958 1.24229,-0.97368 0.92914,-1.27595 0.65199,-1.40665 0.91144,-1.25421 1.34383,-0.76113 1.40196,-0.64784 1.42795,-0.54415 1.5274,-0.0469 1.2954,-0.83686 1.52603,-0.22286 1.24029,-1.14348 1.67893,-0.16456 0.38604,-1.58898 0.99915,-1.29443 0.72357,-1.41083 1.25549,-0.96837 1.46008,-0.51301 1.47696,-0.46218 1.01915,-1.2389 1.32139,-0.90963 1.59141,0.0849 1.58461,-0.16964 1.172,-1.20211 1.59912,-0.51133 1.63623,0.0839 1.58117,0.42917 1.60005,-0.47686 1.60984,0.4427 1.01135,1.34931 1.60879,0.50527 1.24925,0.82933 1.49919,-0.0295 1.38517,0.52463 0.94035,1.14441 1.27976,0.64737 1.00782,1.02038 1.31082,0.54384 1.2193,0.72615 1.23083,0.91201 1.50002,0.31089 0.91368,1.2089 1.24695,0.86104 1.50214,-0.17694 1.44378,-0.45083 1.4821,0.26953 1.46848,0.33595 1.44532,-0.50914 1.5278,-0.11845 1.53799,0.0969 1.41992,0.59887 1.35306,-0.61123 1.38272,-0.54082 1.13887,-1.02279 1.48776,-0.36016 1.29896,0.68523 1.32002,0.64373 1.41264,0.5753 1.50555,-0.24463 1.52832,-0.0201 1.51734,-0.18394 1.27684,0.83621 1.26287,0.85717 1.47377,-0.15023 1.22717,0.82986 0.90439,1.05974 0.83879,1.11241 1.37951,0.17023 1.00822,0.95682 1.09803,0.77875 1.31273,0.29813 1.30794,0.59849 0.66185,1.27704 1.26988,0.52398 1.07244,0.8585 1.44583,-0.0113 1.13324,0.89795 1.39124,-0.41645 1.33103,0.58081 1.077,0.83105 0.9306,0.99226 1.13652,0.80705 1.3783,0.20812 0.95166,1.02541 0.8682,1.09697 1.3422,0.39221 1.36026,0.32408 1.01428,1.09482 1.47605,0.22063 0.75183,1.296 1.40843,0.51105 0.60338,1.40213 -0.32747,1.4909 1.28106,0.86086 0.44338,1.47839 1.33616,-0.44986 1.40909,0.0465 1.28457,0.53365 1.19419,0.7133 1.07999,0.86405 1.29249,0.49235 1.36677,-0.0165 1.36585,0.0529 1.33013,-0.54919 1.43802,-0.0543 1.41794,0.0243 1.41399,-0.1085 1.28358,0.67763 1.39703,0.39379 0.66781,1.3585 1.32721,0.728 1.51322,0.0994 1.35734,0.67626 0.9369,1.1584 1.07819,1.02819 1.47786,-0.022 1.38404,0.51862 1.34905,-0.67133 1.50229,0.1173 0.3058,1.45575 0.28666,1.45964 0.81103,1.2493 0.93554,1.15901 0.6752,1.47361 1.47355,0.67532 1.44737,0.51367 1.53397,0.0751 -0.77574,-0.71664 -1.04681,-0.13974 -0.92626,-0.39564 -0.94613,-0.34544 -0.91822,-0.49876 -1.04377,0.0493 -0.91925,-0.47569 -1.03502,-0.006 -0.96192,0.33353 -0.97582,0.29037 -0.99793,0.2111 -1.01687,0.0799 -0.98835,0.35219 -0.69615,0.78501 -0.94827,0.37703 -0.86391,0.54316 -0.98147,0.12443 -0.98426,0.1 -0.60423,0.80907 -0.8737,0.5063 -0.85296,0.43258 -0.75414,0.58817 -0.98138,0.0425 -0.84158,0.50663 -0.6497,0.85422 -0.18748,1.05672 -0.96221,0.44239 -0.75443,0.74324 -1.04655,-0.15161 -1.04846,-0.13784 -0.79533,0.7472 -1.05596,0.27532 -0.88336,0.50521 -1.00661,-0.14939 -0.95388,0.12394 -0.95902,0.0745 -0.89113,-0.43157 -0.98948,-0.036 -0.73862,-0.66727 -0.9587,-0.26783 -0.88577,-0.32738 -0.82206,-0.46476 -0.76445,-0.54926 -0.7586,-0.55732 -0.73948,-0.67473 -0.99826,-0.0746 -0.90478,-0.38717 -0.97269,0.14962 -0.85623,-0.49475 -0.88193,-0.44733 -1.02305,0.0519 -0.90865,-0.47295 -0.39527,-0.92095 -0.67584,-0.74001 -0.98784,-0.3728 -0.497,-0.93155 -0.92803,-0.24747 -0.91564,-0.28999 -0.86238,-0.48515 -0.98919,-0.0244 -0.84535,0.62409 -1.04318,0.12604 -0.99438,-0.22042 -0.9539,-0.35702 -0.9817,0.42701 -0.46795,0.96286 -0.8912,0.50186 -0.63949,0.79822 -0.91417,0.55382 -1.06882,-0.007 -0.97379,-0.40484 -1.05315,0.0552 -0.80627,0.62421 -0.33692,0.96238 -0.69415,0.75639 -0.126,1.01887 -0.72491,0.70689 -0.63248,0.79068 -0.99338,0.20507 -0.9438,0.37161 -0.83993,0.63328 -1.05181,-0.0148 -0.82191,-0.61781 -1.01874,-0.1393 -1.00242,0.22508 -0.93276,-0.43066 -0.76919,0.63696 -0.9707,0.2348 -0.96806,0.19767 -0.87228,-0.46408 -0.92625,-0.1272 -0.93237,0.0694 -0.81292,-0.58502 -0.99293,-0.13097 -0.90214,0.41659 -0.99365,0.007 -0.61225,0.76417 -0.74245,0.63843 -0.98605,0.16742 -0.81531,0.57931 -0.98256,-0.0587 -0.94559,0.27336 -0.99205,-0.0324 -0.88947,-0.44053 -0.94465,-0.33082 -0.96123,0.27901 -0.99255,0.0694 -0.86779,-0.48674 -0.66876,0.70762 -0.88995,0.39493 -0.94081,0.22429 -0.82116,0.51099 -0.8399,0.526 -0.47571,0.86938 -0.5954,0.80721 -0.9457,0.33425 -0.70125,0.71401 -0.16931,0.98636 -0.51088,0.81068 -0.37479,0.88188 -0.60712,0.81789 -0.6602,0.77568 -0.91577,0.52869 -1.05712,-0.0254 -0.97004,0.29343 -0.88366,0.49622 -1.00343,-0.11322 -0.97862,-0.24898 -0.97454,0.23318 -0.80696,0.59407 -1.00459,0.26674 -0.6241,0.83119 -0.9169,-0.48524 -1.00308,-0.26461 -1.03502,0.11998 -0.95524,0.41614 -0.69355,0.71077 -0.97343,0.19653 -0.87361,0.43428 -0.97558,-0.007 -0.9559,0.1333 -0.81253,0.52087 -0.69329,0.69657 -0.96013,0.20981 -0.0671,1.00615 -0.7041,0.72188 -0.42833,0.86705 -0.74266,0.61945 -0.40309,0.89476 -0.79796,0.57126 -0.46065,0.83246 -0.30475,0.90129 -0.73296,0.6305 -0.59799,0.75971 -0.89021,0.39598 -0.72422,0.65175 -0.0824,0.99587 -0.46974,0.88199 -0.74361,0.6498 -0.54507,0.82347 -0.9891,-0.0507 -0.95387,0.26655 -1.00335,-0.0975 -0.83706,-0.56174 -0.921,0.26538 -0.95707,0.0519 -0.90844,0.32559 -0.96484,0.0189 -0.9905,-0.30518 -1.02673,0.14159 -0.88484,0.50402 -0.9747,0.29479 -1.00953,-0.11222 -0.82715,-0.58955 -1.00397,-0.18431 -0.76302,-0.67803 -0.90177,0.48918 -0.65047,0.79333 -0.9909,0.23609 -1.01601,-0.073 -0.95284,0.33832 -1.01079,-0.0255 -0.5681,0.87806 -0.97676,0.37377 -0.69635,0.80097 -0.90935,0.5473 0.0829,1.07971 -0.45131,0.98436 -0.59491,0.82909 -0.78211,0.65544 -1.04635,0.0951 -0.84784,0.62052 -0.44278,0.95489 -0.16882,1.03892 -0.41762,1.01 -0.91997,0.59006 -1.07537,-0.0804 -0.96136,0.48854 -0.87241,0.56393 -0.89321,0.53037 -0.60797,0.82743 -0.39704,0.94692 -0.73847,0.7034 -0.70564,0.73635 -0.37667,0.99818 -0.35225,1.00705 0.20287,1.05463 0.43914,0.98008 -0.87642,0.60162 -0.53748,0.91716 -1.03792,0.20899 -0.87385,0.59779 -0.18734,1.00841 -0.36163,0.95979 -0.29206,1.00685 -0.70267,0.778 6.3e-4,1.00004 -0.16261,0.98672 -0.13367,1.01921 -0.60131,0.8337 0.29438,0.95362 0.14451,0.98751 0.005,0.99663 -0.10715,0.99087 0.30692,1.08946 -0.29716,1.09216 -0.36543,1.06874 -0.85178,0.74177 -1.05908,0.24715 -0.92131,0.57788 -0.75787,0.76393 -0.62739,0.87425 -1.02742,0.36851 -0.86969,0.65957 -0.35093,1.05126 -0.78246,0.78488 -1.13003,0.1817 -1.00906,-0.54016 -0.94999,0.54045 -1.0541,0.28891 -0.71908,-0.84472 -1.09179,-0.19656 -1.06317,-0.13983 -1.01577,0.34365 -1.04465,-0.1363 -0.90747,0.53514 -0.94807,0.30601 -0.94876,0.30386 -1.04854,-0.0822 -0.84791,0.62229 -0.62065,0.83723 -1.00366,0.28076 -0.95055,0.24234 -0.89932,0.39175 -0.9248,0.46634 -1.014,-0.21101 0.39579,0.20624 0.44624,0.007 0.43747,0.0561 0.39178,0.20255 0.43853,0.13453 0.44716,0.10226 0.23311,0.39906 0.32629,0.32729 0.38646,0.2443 0.45364,0.057 0.40669,0.18523 0.42428,0.14038 0.45379,-0.0799 0.39112,-0.2436 0.45078,-0.0534 0.4534,0.0218 0.46532,-0.0409 0.37709,-0.27566 0.36459,-0.29426 0.46546,-0.0534 0.47715,-0.06 0.40094,0.26554 0.44677,0.0647 0.45095,0.0211 0.34586,-0.30276 0.30571,-0.34325 0.39024,-0.29172 0.11672,-0.47304 0.44078,-0.14097 0.46269,-0.009 0.4206,-0.18518 0.44557,-0.11252 0.35886,0.26477 0.409,0.17777 0.18547,0.40256 0.20313,0.39395 0.30819,0.3158 0.22106,0.3819 0.38802,0.20552 0.41437,0.14528 0.41606,0.16271 0.2951,0.33539 0.43259,0.047 0.42219,0.10533 0.35577,0.26308 0.43634,0.0734 0.4252,0.10236 0.43403,-0.0537 0.40835,-0.0954 0.4186,-0.0249 0.418,-0.007 0.41664,-0.0344 0.44907,0.0955 0.33573,0.31317 0.43855,-0.063 0.42927,-0.1097 0.39165,0.15519 0.36956,0.20224 0.37424,0.22768 0.43795,-0.01 0.4218,0.006 0.41156,0.0925 0.41955,-0.1165 0.41957,0.11643 0.49852,0.0508 0.41909,-0.2747 0.3584,-0.30787 0.37631,-0.28571 0.44098,0.17739 0.47237,-0.0529 0.45693,0.0608 0.45858,0.0466 0.43769,0.11692 0.35331,0.28358 0.41877,0.1462 0.42782,0.11714 0.38806,0.23131 0.32338,0.31547 0.41434,0.17795 0.44165,0.0911 0.43872,0.16488 0.46223,-0.0774 0.43039,0.14742 0.39186,0.2311 0.45284,-0.10099 0.33996,-0.31573 0.38868,-0.25163 0.46216,-0.0281 0.43804,-0.20737 0.48147,0.0555 0.44618,0.15365 0.37609,0.28503 0.34787,-0.28931 0.43763,-0.11489 0.36068,-0.28404 0.45608,-0.0525 0.0191,0.46921 0.12527,0.45258 0.11473,0.46152 0.28187,0.38302 -0.054,0.47803 0.1385,0.46071 0.27806,0.38575 0.16602,0.4456 0.37231,0.35207 0.11419,0.49952 0.36427,0.35553 0.12825,0.4926 0.50706,-2.2e-4 0.48063,0.16159 0.41463,0.28058 0.4318,0.25339 0.47815,0.0143 0.37361,0.29873 0.4542,0.0835 0.45325,-0.0885 0.42402,0.16185 0.44795,0.073 0.43346,0.159 0.33072,0.32216 0.40579,0.22029 0.3854,0.25427 0.46121,0.0189 0.46137,-0.0143 0.43881,0.18131 0.47382,-0.0305 0.33626,0.3181 0.36047,0.29037 0.3375,0.25999 0.40053,0.14514 0.20951,0.3777 0.35328,0.24848 0.41386,0.15374 0.26048,0.35646 0.41211,0.0956 0.40435,0.12441 0.25175,0.34235 0.2818,0.31808 0.31999,0.2963 0.41853,0.12255 0.3201,0.309 0.38015,0.23113 0.0821,0.43505 0.12505,0.42471 0.42056,0.12775 0.43945,-0.008 0.37948,-0.221 0.42809,-0.0979 0.41776,0.0977 0.42882,-0.0138 0.44334,0.0506 0.33325,0.29675 0.42236,-0.16431 0.43324,0.13303 0.43104,0.0608 0.38093,0.21072 0.31834,0.28042 0.36465,0.21681 0.38898,0.16743 0.36128,0.22094 0.43699,-0.0715 0.44263,-0.0126 0.38453,0.23126 0.44064,0.0848 0.42729,0.10006 0.38697,0.20699 0.40684,0.18614 0.27857,0.35008 0.18626,0.39271 0.22166,0.37388 0.35324,0.25339 0.32617,0.2874 0.0304,0.44417 0.25614,0.36416 0.15911,0.41115 0.32769,0.29493 0.36252,0.2825 0.15934,0.4311 0.44569,0.0551 0.39871,0.20669 0.10819,0.44279 0.31191,0.3324 0.379,0.22877 0.41426,0.15613 0.31893,0.3295 0.44035,0.12795 0.44745,0.094 0.43824,-0.1304 0.47577,-0.0156 0.34779,-0.32504 0.40313,0.23539 0.46545,-0.0358 0.42494,0.1826 0.30729,0.34567 0.26096,0.40248 0.45736,0.14457 0.21102,0.45829 0.4489,0.23032 0.1146,0.46729 -0.0123,0.48098 0.4708,0.0863 0.4511,-0.16001 0.45734,-0.0826 0.46463,0.01 0.40729,0.22119 0.37502,0.27233 0.42564,0.19646 0.33953,0.32324 0.36191,-0.29296 0.46422,-0.036 0.44769,0.0483 0.41013,0.18588 0.42184,-0.0263 0.41879,-0.057 0.42126,0.0666 0.42334,-0.0517 0.41258,0.11671 0.38244,0.19387 0.41887,0.12236 0.3324,0.28273 0.42945,-0.1216 0.44507,0.0335 0.42011,0.13456 0.39057,0.20507 0.44255,0.10438 0.34409,0.29723 0.28179,0.34799 0.15298,0.42082 0.0776,0.41799 0.15197,0.39704 0.21068,0.37259 0.0931,0.41779 0.38402,0.2173 0.2509,0.36297 0.01,0.45365 0.2822,0.35534 0.44489,0.0426 0.36649,0.25581 0.17988,0.4128 0.37365,0.2513 0.21347,0.37379 0.35418,0.24464 0.23238,0.38071 0.4216,0.14559 0.44018,0.13055 0.2638,0.3758 0.4207,0.15568 0.44255,-0.0733 0.29887,0.32236 0.3593,0.25326 0.42807,0.0919 0.41561,0.13771 0.23527,0.37872 0.36538,0.25548 0.21794,0.3884 0.0521,0.44232 0.83373,-0.17662 0.63391,-0.56962 0.45769,-0.73453 0.8017,-0.32601 0.45549,-0.7463 -0.0646,-0.87194 0.41945,-0.72254 0.5368,-0.64021 0.67875,-0.56385 0.18623,-0.86253 0.60238,-0.5949 0.76795,-0.35639 0.77652,-0.2634 0.81179,-0.11551 0.82273,-0.10782 0.73244,-0.38992 0.84562,-0.26537 0.53595,-0.70587 0.84148,-0.0706 0.8425,-0.057 0.63948,-0.56664 0.70863,-0.47737 1.3e-4,-0.89494 0.51865,-0.72932 0.77008,-0.3444 0.84286,-0.0349 0.86503,-0.12098 0.61869,-0.61656 0.12432,-0.86494 0.23463,-0.84173 0.47634,-0.79295 0.86912,-0.31669 0.74731,-0.39491 0.83275,-0.1448 0.83172,0.15735 0.73506,0.41978 0.78049,-0.23721 0.81474,-0.0403 0.80904,0.12571 0.73597,0.35874 0.80963,0.23985 0.837,0.1117 0.65747,-0.58371 0.87046,-0.12367 0.69147,-0.40552 0.75017,-0.28251 0.78301,-0.22422 0.6368,-0.50781 0.71768,-0.4699 0.51944,-0.6827 0.72996,-0.45977 0.49269,-0.70816 0.83223,-0.24689 0.67794,-0.5422 0.8496,-0.10978 0.80807,-0.28442 0.87391,-0.0665 0.79301,0.37321 0.8563,0.004 0.82226,-0.23907 0.69254,0.51348 0.83755,0.20439 0.80813,0.30222 0.86179,-0.0417 0.59638,-0.56967 0.0927,-0.81951 0.21103,-0.78338 0.61525,-0.52885 0.10067,-0.81332 0.3241,-0.75272 0.43882,-0.7384 0.80228,-0.30686 0.18538,-0.90304 0.73326,-0.55872 -0.1176,-0.85727 0.002,-0.86529 0.63795,-0.57129 0.83093,-0.20716 0.65284,-0.52483 0.50386,-0.66916 0.37759,-0.78974 0.71621,-0.50328 0.26923,-0.8217 -0.0785,-0.86112 0.42194,-0.72395 0.34195,-0.76498 0.59759,-0.61048 0.7902,-0.32464 0.7405,-0.344 0.6232,-0.52756 0.73588,-0.36271 0.8138,-0.1039 0.76711,-0.27237 0.63073,-0.51461 0.58896,-0.5625 0.7457,-0.32742 0.88658,0.0709 0.73917,-0.49464 0.85381,0.081 0.75245,0.41155 0.74151,-0.40357 0.82008,-0.20041 0.77907,0.42953 0.87421,-0.16487 0.88151,0.013 0.69782,-0.53877 0.86338,-0.20324 0.52503,-0.7149 0.77405,-0.40626 0.86818,0.10239 0.83288,0.0699 0.82391,0.14056 0.82821,-0.34094 0.71641,-0.53753 0.0154,-0.94442 0.61493,-0.71696 0.785,-0.28758 0.77892,-0.30369 0.84703,-0.11695 0.7242,-0.45462 0.36284,-0.88285 -0.26215,-0.9178 0.79238,-0.49314 0.44123,-0.82242 0.47779,-0.75151 0.77176,-0.44434 0.76124,-0.43151 0.85596,-0.18173 0.86572,-0.0588 0.76474,-0.40998 0.85726,0.0761 0.78292,0.35739 0.78547,0.34099 0.46239,0.72073 0.76097,0.33431 0.6061,0.56876 0.52851,0.671 0.81335,0.26081 0.83531,-0.11315 0.78758,0.30046 0.71209,-0.45292 0.84178,-0.0603 0.83353,-0.005 0.77456,0.30799 0.80149,0.42987 0.3375,0.84454 0.64726,0.64335 0.91064,0.0597 0.80802,-0.35451 0.8639,-0.17962 0.8209,0.3143 0.85139,0.21865 0.71245,-0.39496 0.73876,-0.34323 0.84676,0.0398 0.73645,-0.4198 0.82608,-0.14581 0.79881,-0.2561 0.89122,-0.0702 0.71719,0.5337 0.85414,-0.0351 0.69434,0.4987 0.76836,0.29388 0.8226,-0.008 0.73482,0.40639 0.83869,-0.0415 0.81237,0.0247 0.78653,0.20473 0.85158,-0.16093 0.8465,0.18584 0.79739,0.31562 0.67859,0.52437 0.83129,-0.22283 0.82826,0.23385 0.86295,0.0164 0.74099,-0.4426 0.93967,-0.0756 0.7174,-0.6116 0.61493,-0.65308 0.59737,-0.66918 0.008,-0.94501 0.50476,-0.79897 0.45627,-0.84719 0.88323,-0.38184 0.92751,-0.39493 0.97862,0.242 0.97114,0.24444 0.66056,0.75267 0.44634,-0.92015 0.92869,-0.42831 0.94799,-0.19258 0.96732,-0.009 0.42676,-0.82409 0.82054,-0.43358 0.52902,-0.77439 0.89564,-0.27816 0.82282,-0.53942 0.97844,0.10336 0.43473,-0.85045 0.78365,-0.54604 0.84233,-0.30441 0.8955,0.0163 0.83486,-0.32019 0.89397,-0.0177 0.90761,0.0422 0.90513,-0.0791 0.74058,-0.53547 0.8512,-0.33263 0.25795,-0.85674 0.42805,-0.7857 0.78899,-0.45658 0.52212,-0.74723 0.36021,-0.79839 0.1672,-0.85978 0.54201,-0.71746 0.12208,-0.89085 0.5452,-0.73705 0.78989,-0.46533 0.0676,-0.95491 0.67059,-0.68317 0.11686,-0.89807 0.48109,-0.76728 0.13065,-0.87537 0.0815,-0.88131 0.8021,0.3292 0.84548,-0.19207 0.82738,-0.0421 0.82569,0.0678 0.84937,-0.28592 0.83735,0.31941 0.81892,-0.22559 0.74358,-0.41063 0.59115,-0.68818 0.87763,-0.22984 0.51369,-0.76079 0.87674,-0.27205 0.87176,-0.0525 0.86794,-0.097 0.85282,0.18993 0.86495,0.1234 0.92771,-0.17329 0.90368,-0.27208 0.60341,-0.72425 0.63923,-0.69285 0.89458,0.11165 0.89917,0.065 0.85672,0.28701 0.88885,0.16214 0.88664,0.0626 0.85952,-0.22643 0.86773,0.13532 0.84785,0.22893 0.52878,0.75388 0.88315,0.26076 0.90646,0.13674 0.64167,0.65469 0.12505,0.25441 0.15261,0.2389 -0.0256,0.28255 -0.064,0.2764 -0.0571,0.2664 -0.0936,0.25587 -0.004,0.27316 0.0508,0.26842 -0.0959,0.27678 -0.10788,0.27233 -0.1842,0.24782 -0.29622,0.0872 0.0141,0.28067 -0.0399,0.27817 -0.0868,0.28295 0.10647,0.27615 0.20273,0.21662 0.0225,0.29583 0.0465,0.27598 0.044,0.27641 0.27149,0.12335 0.15364,0.25558 0.0216,0.29959 0.19801,0.22587 0.055,0.27592 -0.0132,0.28105 -0.11581,0.25685 -0.0442,0.27826 0.0508,0.28402 -0.0464,0.28476 -0.18939,0.21938 -0.0925,0.27466 0.23646,0.15364 0.24907,0.13221 0.2856,-0.009 0.27252,0.0859 0.2573,0.10434 0.24652,0.12774 0.21598,0.1751 0.23842,0.14305 0.16126,0.24673 0.22649,0.18864 0.0525,0.28674 0.0488,0.2874 0.12912,0.26408 0.17998,0.23241 0.23007,0.19798 0.29925,0.0508 0.0614,0.30078 -0.0801,0.29634 0.21829,0.21786 0.0862,0.29613 0.14057,0.28309 -0.075,0.30704 -0.20468,0.23458 -0.0329,0.30958 0.17743,0.2423 0.27717,0.11561 0.17808,0.23674 0.062,0.28968 0.26103,0.13069 0.18772,0.22356 0.13583,0.25185 0.15735,0.23898 -0.0918,0.28819 -0.17763,0.24481 -0.17933,0.26195 -0.30524,0.0872 -0.30232,-0.0638 -0.29042,0.10543 -0.28832,0.0925 -0.23178,0.19484 -0.18463,0.2153 -0.2283,0.16829 -0.0911,0.27419 -0.20033,0.20822 -0.12697,0.26951 -0.25438,0.15509 -0.11012,0.26433 -0.0647,0.27894 -0.15517,0.27721 0.0623,0.31151 0.15069,0.27759 -0.0561,0.31084 -0.0153,0.31158 0.0837,0.30053 0.17969,0.25161 0.22147,0.21575 -0.27889,0.13811 -0.21747,0.22264 -0.12784,0.27937 -0.0975,0.29134 -0.0933,0.28836 0.0266,0.30193 -0.0535,0.29775 -0.16057,0.25639 0.11556,0.2678 -0.0769,0.28136 0.16159,0.2289 0.0664,0.27219 -0.0658,0.27862 0.0848,0.27345 0.10182,0.25711 0.12683,0.24574 -0.17946,0.21426 -0.10251,0.26001 -0.0267,0.28261 -0.15318,0.239 -0.10333,0.2641 0.0386,0.28096 -0.0963,0.26576 0.0383,0.28005 0.22302,0.19067 0.23874,0.17055 0.058,0.28969 0.12784,0.26635 -0.0537,0.2846 -0.12116,0.26308 0.12527,0.27394 -0.0534,0.29647 0.15645,0.23359 0.20281,0.19472 -0.0155,0.28036 0.0379,0.27822 0.15072,0.25532 -0.033,0.29464 0.19916,0.20159 0.24248,0.14666 0.002,0.28385 -0.0721,0.27456 0.18799,0.23044 0.008,0.2973 0.0672,0.27665 -0.0446,0.28118 -0.0126,0.29432 -0.18827,0.22658 0.23479,0.21496 0.0906,0.30517 0.29196,0.0943 0.28817,0.10533 0.0107,0.29409 0.11501,0.27089 -0.058,0.30056 0.13948,0.27246 -0.0643,0.26805 0.0532,0.27048 -0.0556,0.26715 0.0321,0.27098 -0.0414,0.26701 0.002,0.27019 0.0108,0.27059 -0.0461,0.26686 -0.17061,0.20983 -0.17351,0.20742 -0.21504,0.18962 -0.0488,0.28252 -0.1912,0.21168 -0.23905,0.15562 -0.07,0.27405 -0.0662,0.275 -0.0245,0.29749 -0.21415,0.20793 0.0287,0.28172 0.11692,0.25792 0.0393,0.26552 0.1414,0.22815 0.0464,0.25898 0.0685,0.25402 0.0389,0.27303 0.2029,0.18677 0.10791,0.23637 0.11917,0.23089 0.11684,0.24036 0.13036,0.2333 0.22131,0.14975 0.21437,0.15952 -0.017,0.26482 0.077,0.25394 1.7e-4,0.26118 -0.012,0.26091 -3.7e-4,0.26166 -0.0265,0.26031 0.007,0.26888 -0.11722,0.24209 0.0725,0.25346 0.13886,0.2241 0.094,0.25527 0.21664,0.16453 0.0823,0.2557 0.0399,0.26562 0.14432,0.22986 0.21108,0.17062 0.26495,0.14535 0.11742,0.27845 0.21367,0.19183 0.25045,0.14046 0.23966,0.16524 0.28502,0.0592 0.17559,0.24585 0.29025,0.0838 0.26606,-0.12517 0.29392,-0.008 0.29256,0.0551 0.2816,-0.0966 0.28343,0.0833 0.29333,-0.0351 0.28758,0.0556 0.25683,0.14082 0.14339,0.2316 0.18319,0.20159 0.16076,0.21915 0.18715,0.1971 0.22167,0.20146 0.0333,0.29768 0.19216,0.21701 0.27424,0.0938 0.29074,0.079 0.21848,0.20742 0.0921,0.28122 0.17613,0.23779 0.02,0.28352 0.11571,0.25961 0.12238,0.25585 0.0348,0.28146 -0.004,0.2824 -0.0139,0.28208 0.0489,0.27961 0.10437,0.26396 0.25722,0.15843 0.12003,0.27722 -0.0355,0.30223 0.15584,0.26136 -0.19653,0.23555 -0.0349,0.30478 0.11533,0.27229 0.0528,0.29094 -0.13025,0.2563 -0.15798,0.2402 0.0143,0.28681 -0.002,0.28715 0.27909,0.0769 0.19591,0.21312 0.20491,0.19505 0.12253,0.25498 0.0533,0.27694 0.0605,0.27546 0.10567,0.28138 0.26308,0.14537 0.008,0.29539 0.16819,0.24296 0.17343,0.24591 0.29026,0.0793 0.15428,0.23114 0.24452,0.13208 0.2305,0.16276 0.0992,0.26418 0.0969,-0.36545 0.15354,-0.34549 0.1647,-0.35935 0.34145,-0.19918 0.41084,0.055 0.35131,-0.21998 0.21128,-0.33231 0.29532,-0.2605 0.27817,-0.26398 0.12734,-0.36172 0.34309,-0.18621 0.17723,-0.34783 0.391,-0.0485 0.27755,-0.27963 0.31874,-0.23666 0.39603,0.0276 0.11003,-0.36876 0.20945,-0.32282 0.24074,-0.30257 0.32894,-0.20321 0.27561,-0.30539 0.006,-0.41133 0.0852,-0.39932 -0.18459,-0.36421 -0.0119,-0.40655 0.24852,-0.32197 0.28233,-0.26953 0.36341,-0.14247 0.17979,-0.32807 0.1076,-0.35831 0.29571,-0.22594 0.28554,-0.23867 0.3877,-0.0275 0.35093,-0.1671 0.24622,-0.32311 0.39605,-0.0904 0.26456,-0.27053 0.28966,-0.24348 0.28083,-0.25678 0.33264,-0.18482 0.28688,-0.2769 0.2436,-0.31565 0.096,-0.39915 0.27631,-0.30363 0.39866,-0.0997 0.40935,0.0359 0.33196,-0.2347 0.36501,-0.17904 0.32734,0.25167 0.33369,0.2432 0.23682,0.34796 0.35161,0.23136 0.41205,0.0867 0.41261,-0.084 0.42071,-0.0728 0.40053,0.14791 0.40006,-0.0926 0.39027,0.12773 0.40572,0.039 0.37678,-0.15544 0.37789,-0.12223 0.34305,-0.20014 0.38927,-0.0737 0.3721,-0.13605 0.41871,-0.0399 0.34043,-0.24704 0.32883,-0.25351 0.40432,-0.0945 0.41309,0.12393 0.31713,0.2923 0.41894,-0.0934 0.42149,0.081 0.31135,-0.23552 0.36282,-0.14414 0.29384,-0.2523 0.2688,-0.27881 0.35105,-0.22452 0.16123,-0.38426 0.40871,-0.0382 0.34073,-0.22894 0.39719,-0.003 0.3968,-0.0178 0.39204,0.14867 0.221,0.35633 0.38261,-0.10931 0.36366,0.1615 0.32406,0.22694 0.39507,-0.0208 0.32404,0.18978 0.36479,0.0891 0.38418,0.0697 0.27088,0.28121 0.23338,0.33294 0.3947,0.0976 0.37131,0.0914 0.38179,0.0213 0.374,-0.11969 0.35323,-0.17154 0.38568,-0.0689 0.38239,-0.0852 0.27853,-0.31945 0.12523,-0.4049 0.42111,-0.0609 0.35202,-0.23901 0.37494,0.1601 0.39706,0.0925 0.37741,-0.15006 0.37565,-0.15441 0.3768,-0.10494 0.39109,0.006 0.36384,0.14883 0.39281,0.015 0.10266,-0.39725 -0.086,-0.4012 0.15755,-0.37672 0.2978,-0.27938 0.22144,-0.31854 0.24275,-0.30261 0.35797,-0.16277 0.28439,-0.27159 0.14883,-0.3791 0.35227,-0.20436 0.30741,-0.24971 0.38821,-0.0784 0.18108,-0.34441 0.31299,-0.2312 0.25789,-0.29672 0.0716,-0.38656 0.33786,-0.24771 0.41865,0.0158 0.32425,-0.25628 0.12808,-0.39295 0.36394,-0.17693 0.39015,0.1074 0.34207,0.20408 0.39659,-0.0372 0.36547,-0.048 0.35091,-0.11286 0.24208,-0.27894 0.29713,-0.21939 0.34001,-0.10192 0.34345,-0.0896 0.35598,-0.0264 0.34218,-0.10161 -0.0189,-0.38545 0.18613,-0.33806 0.17248,-0.32955 0.13205,-0.34773 -0.0508,-0.37827 0.0651,-0.37608 0.0537,-0.38966 0.25672,-0.29801 0.31541,-0.23157 0.31859,-0.22718 0.35754,-0.20718 0.40977,0.0534 0.15672,-0.35392 0.20804,-0.32641 0.25157,-0.2936 0.28406,-0.26228 0.37284,-0.0723 0.31043,-0.2188 0.31247,-0.20691 0.24591,-0.28281 0.34097,0.15972 0.37601,0.0195 0.36962,0.0385 0.36942,-0.0404 0.35154,-0.0638 0.32488,-0.14866 0.21648,-0.30469 0.35617,-0.11335 0.34133,-0.1055 0.32809,-0.14142 0.35532,0.0414 0.35755,-0.0111 0.31155,-0.20787 0.13505,-0.34935 0.17289,-0.3133 0.12971,-0.33351 0.17661,-0.31594 0.0722,-0.35467 0.22876,-0.27614 0.1866,-0.30619 0.28294,-0.26054 0.38423,-0.0173 0.28213,-0.26139 0.38416,-0.0185 0.21755,-0.31161 0.35309,-0.14054 0.13351,-0.35688 0.31169,-0.21919 0.35144,0.0779 0.3496,0.0858 0.37289,0.088 0.34201,-0.17266 0.37302,-0.11641 0.38318,0.0765 0.17595,-0.36245 0.36771,-0.16469 0.2974,-0.22199 0.32972,-0.1703 0.14251,-0.35965 0.31959,-0.21798 0.3789,0.037 0.34345,-0.16426 0.37107,-0.1 0.36179,0.12957 0.35408,-0.0486 0.35714,-0.0137 0.35368,-0.0493 0.35584,-0.0301 0.38383,0.0407 0.35073,0.16115 0.28554,-0.28618 0.40212,-0.0417 0.37038,-0.11407 0.38749,0.007 0.25303,-0.28999 0.30791,-0.23087 0.20723,-0.33881 0.0576,-0.39296 0.34426,-0.18183 0.33151,-0.20414 0.20876,-0.30928 0.0585,-0.36852 0.17605,-0.33085 0.30762,-0.21406 0.31953,-0.21584 0.37205,-0.10134 0.0584,-0.3959 0.28077,-0.28515 0.17716,-0.35118 -0.0681,-0.3874 0.0335,-0.37514 -0.0665,-0.37072 0.22841,-0.29575 0.26333,-0.26513 0.15661,-0.3414 0.23265,-0.29488 0.37625,-0.0309 0.37724,0.0146 0.38298,-0.11155 0.23143,-0.32491 0.35029,-0.12154 0.36196,-0.0803 0.35688,-0.1582 0.18959,-0.34124 0.23194,-0.30558 0.16887,-0.34446 0.0872,-0.37232 0.1269,-0.36073 0.36486,-0.19081 0.19428,-0.36302 0.37912,-0.10729 0.38804,-0.0683 0.16681,-0.0361 0.14873,-0.0837 0.16865,0.0224 0.15766,0.0639 0.17415,-0.0153 0.13245,-0.11412 0.055,-0.16688 0.14518,-0.099 0.057,-0.16065 0.13806,-0.10002 0.14164,-0.0883 0.16589,-0.0186 0.14139,-0.0681 0.15305,-0.0347 0.15972,-3.6e-4 0.14463,-0.0678 0.16913,-0.0181 0.15592,0.068 0.12434,0.10874 0.14275,0.0831 0.061,0.16953 0.1556,0.0908 0.16209,0.0523 0.1695,0.0168 0.16556,0.0191 0.159,0.0499 0.16651,0.008 0.16191,0.0397 0.10957,-0.14012 0.16592,-0.0641 0.17316,0.003 0.16715,-0.0453 0.10168,-0.12652 0.0322,-0.15909 0.0458,-0.15797 0.12429,-0.10769 0.001,-0.1635 -0.0427,-0.15782 0.069,-0.14726 0.0422,-0.15707 0.13014,-0.10823 0.0345,-0.1657 0.12719,-0.11076 0.034,-0.1652 0.11387,-0.11865 0.12809,-0.10314 0.15845,-0.0429 0.15684,-0.0484 0.15251,-0.0698 0.16161,-0.0448 0.1744,-0.0183 0.15316,0.0854 0.14986,-0.0753 0.16061,-0.0483 0.12943,-0.11176 0.0713,-0.15543 0.0456,-0.16272 0.132,-0.10549 0.0982,-0.13573 0.01,-0.16721 0.13426,-0.0996 0.16512,-0.0262 0.0775,-0.15381 0.15699,-0.0709 0.13892,-0.0334 0.14287,-0.002 0.14199,0.009 0.13952,0.028 0.14268,-0.0177 0.14175,0.024 0.13776,0.0361 0.13357,0.0494 0.1496,0.0418 0.15532,0.002 0.11942,-0.11185 0.16328,-0.0105 0.12545,0.0848 0.10529,0.10878 0.12879,0.0871 0.15484,0.0141 0.11872,0.0915 0.1419,0.0483 0.14972,0.0306 0.14558,-0.0465 0.13674,-0.0436 0.14168,-0.0229 0.14361,0.0135 0.1425,-0.0224 0.1537,-7.8e-4 0.15298,-0.0148 0.15363,-0.0394 0.11516,-0.10905 0.13747,0.0638 0.14831,0.0312 0.10288,0.12029 0.15387,0.0371 0.16569,-0.0316 0.16647,0.0272 0.14994,-0.079 0.10719,-0.13129 0.14391,0.084 0.16497,-0.0235 0.15659,0.0309 0.13761,0.0809 0.14913,-0.0389 0.15401,0.006 0.16197,-0.0129 0.1316,0.0953 0.14754,0.0593 0.11894,0.10553 0.15613,-0.0154 0.15689,0.001 0.13066,-0.12451 0.0544,-0.17211 0.17858,-0.0168 0.15324,-0.0932 0.16049,-0.058 0.16946,0.0201 0.16401,0.0261 0.16347,0.0293 0.0585,-0.15469 0.01,-0.16511 0.13848,-0.10023 0.0589,-0.16048 0.15675,-0.0536 0.10758,-0.12595 0.0931,-0.13847 0.15402,-0.0641 0.0934,0.14282 0.16305,0.0504 0.0948,0.13052 0.11832,0.10962 0.16888,0.0469 0.096,0.14663 0.0381,0.16515 0.11362,0.12576 0.15413,0.0593 0.15958,0.0425 0.13777,0.092 0.11758,0.11671 0.17195,0.009 0.1623,-0.0575 0.13189,0.11796 0.17562,0.0216 0.098,0.13967 -0.0128,0.17014 0.0925,0.13437 0.13296,0.0945 0.0186,0.16348 0.11571,0.11697 0.0843,0.1322 0.0474,0.14949 0.0245,0.1559 0.076,0.13833 0.007,0.16431 0.10729,0.12466 0.0227,0.15482 0.0339,0.15275 0.0594,0.14466 0.0632,0.14303 0.1568,0.0435 0.13902,0.0845 0.14984,0.0596 0.14564,0.0692 0.10825,0.11954 0.10824,0.11954 0.11428,0.11529 0.085,0.1383 0.13692,0.10038 0.16903,0.0159 0.16682,0.0424 0.15978,-0.064 0.14374,-0.089 0.14112,-0.0931 0.16978,3e-5 0.1669,0.0312 0.14336,0.0698 0.0974,0.12627 0.13203,0.0819 0.12405,0.0936 0.16404,0.0147 0.14929,-0.0695 0.14627,0.0674 0.15995,0.0187 0.1427,0.0588 0.15229,0.025 0.1423,-0.0769 0.15986,0.0246 0.14251,0.0761 0.15775,-0.0349 0.14328,0.0523 0.12762,0.0836 0.15941,0.006 0.12582,0.098 0.1561,0.0133 0.14314,-0.0637 0.13883,-0.0679 0.15233,0.0261 0.12812,-0.0864 0.15445,0.005 0.15301,-0.0399 0.0893,-0.13053 0.13398,-0.0704 0.15101,-0.0103 0.15567,-0.0389 0.14817,0.0616 0.13845,-0.0644 0.12828,-0.0828 0.12114,-0.10383 0.14496,-0.0666 0.1564,0.027 0.1587,-0.003 0.15343,-0.007 0.142,0.0586 0.13434,0.0824 0.15712,-0.012 0.11466,0.10836 0.15067,0.0468 0.0854,0.13439 0.14167,0.0727 0.15168,-0.0347 0.15556,-0.004 0.14588,0.0602 0.15781,2e-4 0.11364,-0.10563 0.0967,-0.12132 0.13757,-0.0721 0.14786,-0.0475 0.15164,0.002 0.1513,0.0102 0.15244,8.5e-4 0.14919,-0.0313 0.13507,-0.0716 0.15101,-0.0238 0.15438,-0.0433 0.14637,0.0654 0.12157,0.0958 0.14018,0.0656 0.15356,-0.0519 0.15394,0.0507 0.14416,0.009 0.14154,0.0289 0.14611,0.0171 0.12756,0.0733 0.15391,0.005 0.14476,-0.0525 0.12066,0.0954 0.14696,0.0455 0.1457,0.0111 0.1459,-0.008 0.14228,0.0332 0.14535,0.0148 0.1367,-0.0521 0.13783,-0.0491 0.14943,0.0148 0.14072,-0.0524 0.0469,-0.30066 0.20772,-0.22236 0.045,-0.28747 0.0611,-0.28448 0.13582,-0.26897 0.0654,-0.29414 0.25286,-0.16329 0.20868,-0.21691 0.20159,-0.21833 0.13887,-0.26272 0.23529,-0.1841 0.28235,-0.0976 0.30945,0.0172 0.2688,-0.15428 0.23261,-0.18643 0.19978,-0.22126 0.2186,-0.18032 0.22979,-0.16583 0.20062,-0.21009 0.0897,-0.27628 0.0399,-0.28618 0.16987,-0.23374 0.22403,-0.18396 0.10437,-0.27043 0.31465,-0.0154 0.2382,-0.20616 0.25826,-0.15627 0.19412,-0.23115 0.17553,-0.24782 0.16287,-0.25632 -0.0245,-0.30666 0.0747,-0.29844 -0.0177,-0.30739 0.11421,-0.28594 0.14388,-0.26465 0.17774,-0.2432 0.0382,-0.31193 0.0104,-0.31409 0.2379,-0.20608 0.20609,-0.2379 0.23935,-0.20429 0.29278,-0.11536 0.17538,-0.26062 0.0875,-0.3017 0.21723,-0.22006 0.20583,-0.23075 0.12036,-0.29173 -0.004,-0.31555 -0.006,-0.30703 -0.14813,-0.26901 -0.0637,-0.29943 0.0749,-0.29684 -0.003,-0.30077 -0.0802,-0.28989 0.0943,-0.28771 -0.009,-0.30266 -0.19156,-0.26636 -0.28503,-0.1625 -0.0499,-0.33318 -0.23548,-0.24094 0.17376,-0.28513 0.0463,-0.33067 -0.002,-0.33345 -0.12966,-0.30721 -0.0275,-0.30555 -0.20114,-0.23165 -0.13856,-0.25746 -0.10906,-0.27127 -0.26593,-0.16674 -0.10702,-0.29506 -0.0753,-0.28761 -0.10832,-0.27687 0.0302,-0.31011 -0.15325,-0.27128 -0.005,-0.3004 -0.0919,-0.286 -0.19595,-0.22636 -0.13513,-0.26717 -0.0852,-0.29585 -0.22295,-0.21231 0.2622,-0.20479 0.30858,-0.12436 0.0973,-0.31586 0.14654,-0.29624 0.27793,-0.17587 0.17775,-0.27673 0.073,-0.31335 0.11093,-0.302 0.11667,-0.306 -0.0849,-0.31627 0.0349,-0.31947 -0.1213,-0.29759 0.0571,-0.32303 0.093,-0.31456 -0.0786,-0.3238 -0.19039,-0.27344 -0.0117,-0.29305 0.037,-0.29094 0.13593,-0.2762 -0.0556,-0.30278 0.11999,-0.3052 -0.0946,-0.31399 -0.12778,-0.29139 -0.24353,-0.20477 -0.15389,-0.2569 -0.0865,-0.28671 0.003,-0.30668 -0.14392,-0.27085 -0.30052,-0.0846 -0.24161,-0.19771 -0.17208,-0.25256 -0.1672,-0.25584 0.005,-0.30086 -0.10469,-0.28211 -0.11293,-0.27653 -0.0308,-0.29711 -0.19779,-0.26149 -0.0268,-0.32676 -0.22477,-0.24507 -0.32756,-0.0573 -0.29004,-0.0737 -0.2145,-0.20865 -0.18427,-0.22384 -0.2165,-0.19286 -0.26448,-0.17193 -0.31544,-0.003 -0.19973,-0.2301 -0.14514,-0.26791 0.16911,-0.22356 0.15041,-0.23655 0.0964,-0.28229 -0.10882,-0.27774 0.2743,-0.078 0.25756,-0.12242 0.048,-0.2974 0.22356,-0.20191 0.25675,-0.13161 0.17817,-0.22692 0.27236,-0.0914 0.28665,0.0192 0.23198,-0.1734 0.0636,-0.28255 0.13497,-0.23744 0.0839,-0.2599 0.22924,-0.16927 0.0739,-0.27523 0.0615,-0.26255 0.0242,-0.26858 0.16489,-0.21529 0.12148,-0.24245 0.25943,-0.0925 0.20306,-0.18608 0.01,-0.2722 -0.0738,-0.26219 0.0805,-0.25958 0.1491,-0.22722 0.0631,-0.25641 0.0374,-0.26139 0.11216,-0.24208 0.17951,-0.19739 0.13167,-0.27552 0.27102,-0.14068 0.0563,-0.28698 -0.0256,-0.29132 0.0377,-0.26881 0.0587,-0.26503 0.0918,-0.25788 0.0195,-0.27305 0.10369,-0.25909 -0.0334,-0.27706 2.7e-4,-0.27041 -0.009,-0.27026 0.17232,-0.24094 -0.0176,-0.29569 -0.018,-0.28334 -0.11757,-0.25843 0.12558,-0.25001 0.16449,-0.22631 0.16043,-0.22862 0.13352,-0.24531 0.27421,-0.13623 0.30204,0.0502 0.24003,-0.16895 0.19193,-0.22206 0.12542,-0.26355 0.22449,-0.18651 0.0345,-0.29726 0.20063,-0.22205 0.284,-0.0975 0.29789,0.0377 0.27519,-0.11697 0.2038,-0.21882 0.24136,-0.12309 0.23337,-0.13766 0.16458,-0.21742 0.10954,-0.24971 0.24369,-0.14141 0.28038,-0.0277 0.17061,-0.21664 0.1459,-0.23399 0.19826,-0.20925 0.26011,-0.12424 0.10844,-0.2639 0.16575,-0.23223 -0.086,-0.27231 0.0373,-0.28313 0.10186,-0.26607 -0.0141,-0.28456 0.22712,-0.13421 0.23649,-0.1169 0.25547,-0.0655 0.25146,-0.0795 0.17587,-0.19879 0.20647,-0.16679 0.22807,-0.13439 0.23829,-0.11528 0.0437,-0.27477 0.0795,-0.26662 0.006,-0.28394 0.12226,-0.25634 0.13213,-0.26244 0.23652,-0.17434 0.29859,-0.0254 0.22994,-0.19217 0.18516,-0.19029 0.24802,-0.0948 0.22415,-0.15215 0.10205,-0.25096 0.17077,-0.19536 0.22326,-0.13224 0.18435,-0.17966 0.21543,-0.1409 0.22996,-0.1452 0.11876,-0.24467 0.16843,-0.20007 0.17027,-0.19852 0.14693,-0.22316 0.10808,-0.24434 0.12112,-0.25351 -0.0569,-0.27513 0.27861,0.0173 0.27397,-0.0536 0.2121,-0.178 0.2132,-0.17667 0.13326,-0.23285 0.0968,-0.25021 0.20878,-0.16896 0.17557,-0.20327 0.12892,-0.23463 0.16715,-0.20911 0.10332,-0.24602 0.0887,-0.25165 0.22872,-0.14218 0.26154,-0.0643 0.21734,-0.15405 0.23333,-0.12856 0.74652,-0.49863 0.41545,-0.79582 0.11606,-0.86419 0.23746,-0.83898 0.59107,-0.64005 0.54604,-0.67888 0.8651,-0.1591 0.78564,-0.39556 0.16043,-0.79965 0.0213,-0.8153 0.2116,-0.79465 -0.0397,-0.82138 -0.32666,-0.79755 0.1698,-0.84497 0.0421,-0.84113 0.36992,-0.7566 -0.44668,-0.72706 -0.33679,-0.78403 0.004,-0.87561 0.4034,-0.77714 -0.22242,-0.81267 0.32557,-0.77711 0.27204,-0.7838 -0.1914,-0.80728 -0.0484,-0.82514 -0.28839,-0.77461 -0.56272,-0.59581 -0.47138,-0.67039 -0.48782,-0.71224 0.0295,-0.86277 -0.71887,-0.44048 -0.44332,-0.71712 0.0409,-0.79204 0.2277,-0.75971 -0.26141,-0.75368 -0.48652,-0.6322 -0.42841,-0.66221 0.0364,-0.78788 -0.43171,-0.61712 -0.33575,-0.67416 -0.51903,-0.64836 -0.0468,-0.8292 -0.54771,-0.61734 -0.79596,-0.21804 -0.52866,-0.58536 -0.42582,-0.66393 -0.0632,-0.78412 -0.004,-0.78665 0.21073,-0.84632 -0.27486,-0.82771 -0.47325,-0.70031 -0.64187,-0.5499 -0.8068,-0.28142 -0.62659,-0.58095 -0.41259,-0.74017 -0.1568,-0.83276 -0.007,-0.85104 -0.43837,-0.72948 0.39127,-0.73656 0.11187,-0.8265 -0.0357,-0.83106 0.48584,-0.67522 0.49067,-0.67766 -0.0606,-0.83445 -0.17733,-0.78003 -0.38814,-0.69945 -0.5298,-0.59033 -0.5931,-0.52668 -0.17927,-0.81012 -0.6635,-0.49818 -0.16294,-0.77191 -0.40505,-0.67699 0.0671,-0.85871 -0.37211,-0.77679 -0.35958,-0.76985 -0.63691,-0.56242 -0.0375,-0.85515 0.47863,-0.70965 0.15217,-0.80098 0.0273,-0.81486 -0.73503,-0.33504 -0.63194,-0.50316 -0.57316,-0.593 -0.78039,-0.2667 -0.44909,-0.7255 -0.80936,-0.27012 -0.53031,-0.64958 -0.80203,-0.24475 -0.21653,-0.77252 -0.29369,-0.7466 -0.36522,-0.72498 -0.11675,-0.80333 -0.062,-0.84058 -0.53321,-0.65276 -0.23001,-0.77223 -0.12,-0.79677 0.33711,-0.83186 0.73905,-0.50935 0.0577,-0.91181 0.62493,-0.66647 0.21018,-0.84751 -0.0356,-0.87245 0.002,-0.88975 -0.40784,-0.79078 0.20265,-0.87165 -0.27355,-0.85207 -0.41765,-0.78365 -0.009,-0.88795 -0.52871,-0.68075 -0.62296,-0.59572 -0.76103,-0.43346 -0.54229,-0.68773 0.66725,-0.49149 0.64014,-0.52633 0.60366,-0.58146 0.40129,-0.73585 0.28633,-0.78876 0.008,-0.83909 -0.16647,-0.81944 0.0781,-0.83252 -0.1891,-0.77685 0.21089,-0.77123 0.21626,-0.76018 -0.10155,-0.78379 0.30669,-0.75042 -0.12096,-0.8016 0.23674,-0.74855 0.37409,-0.69024 -0.52977,-0.53937 -0.61099,-0.44527 -0.51425,-0.58622 -0.73791,-0.25218 -0.30282,-0.75172 -0.64951,-0.48468 -0.74515,-0.23735 -0.70732,-0.33358 -0.53794,-0.58801 -0.56158,-0.56549 -0.79263,-0.1144 -0.75378,-0.27048 -0.39392,-0.71963 -0.14605,-0.80729 -0.63546,-0.51027 -0.7335,-0.3552 -0.6565,-0.45068 -0.40772,-0.68401 -0.47826,-0.62435 -0.63992,-0.45721 -0.0443,-0.84325 -0.44921,-0.715 -0.54664,-0.63476 -0.76587,-0.3394 0.23753,-0.81701 -0.20589,-0.82555 -0.45112,-0.6875 -0.51223,-0.64327 0.14654,-0.78934 -0.2333,-0.76817 0.13915,-0.81153 -0.38205,-0.72937 -0.66388,-0.43499 -0.7279,-0.31641 -0.46705,-0.63838 -0.44068,-0.65687 -0.71748,-0.45397 -0.83913,0.12943 -0.618,-0.5008 -0.58485,-0.53915 -0.84342,0.11373 -0.68223,0.50878 -0.82856,-0.12796 -0.8183,0.18247 -0.83335,-0.12044 -0.66246,-0.51974 -0.5877,-0.59326 -0.78872,-0.27435 -0.43529,-0.63059 -0.40511,-0.6504 -0.56167,-0.55488 -0.75656,-0.2258 -0.42367,-0.65596 -0.63913,-0.44866 -0.7539,-0.16831 -0.68888,-0.34949 -0.62813,-0.44337 -0.55354,-0.5336 -0.67449,-0.39156 -0.7704,-0.12138 -0.52808,-0.55915 -0.32227,-0.69831 -0.72311,-0.34421 -0.36775,-0.71142 -0.57872,-0.64413 -0.85798,-0.11702 -0.80911,-0.28022 -0.48242,-0.70742 0.0434,-0.85755 -0.32794,-0.79355 -0.47293,-0.69537 -0.58721,-0.60199 0.48813,-0.69572 0.29074,-0.79861 -0.11524,-0.86788 0.35563,-0.80001 -0.30912,-0.78651 -0.12606,-0.83561 -0.68945,-0.55979 -0.19886,-0.86554 -0.14564,-0.83629 -0.61095,-0.58936 0.0917,-0.80531 -0.0591,-0.80834 -0.8507,-0.14662 -0.58909,-0.63099 -0.17761,-0.82773 -0.56506,-0.63039 -0.35849,-0.73906 -0.75734,-0.31803 -0.75221,-0.18635 -0.67988,-0.37191 -0.69035,-0.45497 -0.23907,-0.79148 -0.62955,-0.48782 -0.77703,-0.17474 -0.41488,-0.64674 -0.59767,-0.4829 -0.43668,-0.62642 -0.28166,-0.70975 -0.39555,-0.69026 -0.60832,-0.51271 -0.11778,-0.77456 -0.0977,-0.77735 -0.65443,-0.46205 -0.53155,-0.59934 -0.3625,-0.71512 -0.52463,-0.60628 -0.78241,-0.13193 -0.74639,-0.26921 -0.76795,-0.1959 -0.78872,-0.0777 -0.52456,-0.51013 -0.56957,-0.45933 -0.55296,-0.47857 -0.58263,-0.44197 -0.52785,-0.56822 -0.11398,-0.76715 -0.70709,-0.34328 -0.33279,-0.71209 -0.52201,-0.55099 -0.29934,-0.69749 0.008,-0.79027 -0.48064,-0.62735 -0.38827,-0.68093 -0.41434,-0.66538 -0.76408,-0.19707 -0.69761,-0.36877 -0.70084,-0.91478 -0.82866,-0.80084 -1.20644,-0.0602 -0.94224,-0.75583 -0.9732,-0.65779 -0.67692,-0.95999 -1.15222,-0.15964 -1.08476,-0.41998 -1.15385,-0.12264 -1.10008,-0.36907 -1.12318,0.50709 -1.17899,-0.35871 -1.16419,0.30291 -1.19918,-0.0953 -0.7963,0.91951 -1.11516,0.48582 -1.14463,0.006 -1.10462,-0.30007 -1.11358,-0.31097 -0.91109,-0.71182 -1.12096,0.14363 -1.12817,-0.0663 -1.06771,0.3631 -1.1067,0.21699 -0.51011,-1.07635 -1.03643,-0.58699 -1.02728,-0.53533 -1.1544,-0.0961 -0.75302,-0.917395 -1.16677,-0.217453 -0.81365,-0.781715 -0.53944,-0.991021 -0.84383,0.875781 -1.15536,0.379703 -1.171,0.249604 -1.18768,-0.151429 -1.21569,0.0918 -1.21011,0.148172 -1.04856,-0.629043 -0.93424,-0.788896 -0.90764,-0.801003 -0.3952,-1.144219 -0.87707,-0.806342 -1.11112,-0.42993 -1.13822,-0.33148 -1.01278,-0.61619 -1.18323,-0.15244 -1.16493,0.257325 -0.98703,0.596699 -1.11761,0.284984 -0.52706,1.094612 -1.10904,0.495991 -1.08702,-0.437698 -1.16468,-0.129376 -1.13032,0.270294 -1.10125,0.371393 -1.00106,0.523192 -1.12895,-0.03629 -1.09153,-0.05198 -1.09277,-0.0014 -1.10328,0.197361 -1.06473,-0.349999 -1.12527,0.06537 -1.00002,-0.520069 -1.20879,-0.556819 -1.33009,-0.04599 -1.34367,0.07585 -1.14608,0.705461 -1.0521,0.768354 -1.22284,0.44941 -0.53701,1.205619 -0.98597,0.877361 -1.23374,0.469041 -1.27754,0.33169 -1.30587,-0.29428 -1.12424,-0.726622 -0.61544,-1.150685 -1.03972,-0.788559 -1.1874,-0.463813 -1.18646,-0.466238 -1.02726,0.7738 -0.80893,0.999822 -1.20032,0.539758 -1.31292,-0.09146 -0.77096,1.08669 0.13002,1.326033 -0.46666,1.22673 -1.09875,0.7179 -1.17458,0.39098 -1.1765,0.38515 -0.82266,0.94533 -1.07324,0.647 -1.13793,-0.55415 -1.2208,-0.33411 -1.25768,0.12389 -1.2251,0.31021 -0.93336,-0.68914 -0.98252,-0.61705 -0.32335,-1.19459 -1.02716,-0.69031 -1.14943,-0.10513 -1.14304,-0.16032 -0.96887,-0.6671 -1.15006,-0.24723 -0.8302,-0.836111 -1.17134,-0.127519 -0.93088,-0.657822 -1.12492,-0.18388 -0.86586,-0.742534 -1.08714,-0.345243 -0.65981,-0.934849 -0.99015,-0.573499 -1.21521,0.01152 -1.20615,0.148556 -1.16663,-0.333794 -1.15719,-0.365142 -1.06345,-0.811195 -1.33752,0.0034 -0.55658,-1.146911 -0.80055,-0.992119 -1.01123,-0.812573 -1.29544,-0.06868 -1.15463,0.563128 -1.27741,-0.135963 -0.81329,0.945389 -1.10115,0.585361 -1.20185,0.24012 -1.20426,0.227774 -0.99579,0.669345 -1.18999,0.153428 -1.14789,-0.229404 -1.10503,-0.386206 -1.09388,-0.416156 -0.88663,-0.763955 -1.15369,-0.308401 -1.15174,0.315588 -0.92365,0.806467 -0.31232,1.185739 -1.17399,0.292479 -0.88987,0.819722 -1.16891,-0.441484 -1.17658,0.42065 -0.84998,0.878587 -1.19029,0.278592 -0.92146,-0.695245 -1.15337,-0.04686 -1.14606,-0.03126 -0.95415,-0.635637 -0.93803,0.705389 -1.1716,-0.06933 -1.11318,0.144672 -0.9769,0.552949 -1.13178,0.08134 -0.96122,0.602992 -1.10878,-0.07066 -1.08775,0.226239 -1.11014,-0.378393 -0.71667,-0.928419 -1.1389,0.01385 -1.08018,-0.361225 -1.11291,0.19035 -1.0842,0.315125 -0.731,0.913925 -1.09857,0.403455 -0.8416,0.798377 -1.09605,0.379949 -0.25929,1.181637 -0.9683,0.72519 -1.12197,0.24681 -0.77839,0.8449 -0.88286,0.6859 -1.07997,0.28903 -1.12848,0.089 -1.13096,-0.0484 -0.89751,0.70848 -1.07012,0.40289 -1.17411,0.089 -1.01628,0.59467 -1.21283,-0.0233 -0.94268,-0.76346 -1.11385,0.10797 -1.11779,-0.0537 -0.89704,-0.71786 -1.12688,-0.22393 -1.2302,0.19086 -0.82188,0.93505 -1.15903,-0.23307 -1.1779,0.10112 -1.06315,-0.4688 -0.90478,-0.729 -1.18077,0.18631 -1.10804,-0.44851 -1.04601,-0.4209 -1.07509,-0.33981 -1.1682,-0.23931 -1.0657,0.53502 -1.0739,-0.32298 -1.11096,0.15282 -1.09611,0.3087 -1.09536,-0.31139 -1.17772,-0.17916 -1.17221,-0.21227 -1.11107,0.44322 -1.01125,0.63897 -0.67401,-1.06241 -1.16742,-0.46917 -1.19082,-0.27976 -1.20352,0.21872 -1.21398,0.41223 -0.70376,1.07164 -1.27527,-0.11096 -1.08007,0.68709 -0.22252,1.20004 -0.68347,1.01117 -0.60582,1.03738 -0.80741,0.88954 -1.14579,0.0421 -1.07306,0.4039 -1.19079,-0.0989 -1.00539,0.64571 -1.16406,0.2667 -1.17101,-0.23433 -1.06731,0.48457 -0.96618,0.66369 -1.0419,0.29076 -1.08101,-0.039 -1.07031,0.31883 -1.06746,-0.32823 -1.12386,0.18477 -0.85599,0.75132 -1.09962,0.36481 -1.0902,-0.39205 -1.14467,-0.31971 -1.09473,0.46266 -1.06116,0.37906 -0.97284,0.56863 -1.15142,0.20264 -1.06247,-0.48783 -0.94348,-0.61644 -1.07661,-0.33323 -1.10924,0.0242 -1.07385,0.27901 -0.91024,-0.69338 -1.13786,-0.1209 -1.14928,-0.2482 -0.72936,-0.92221 -1.10503,-0.17867 -1.10827,0.15738 -1.02689,-0.45312 -1.10318,0.20688 -1.11106,-0.004 -0.95599,-0.56616 -0.97139,-0.46717 -0.88857,-0.61016 -1.02997,-0.30826 -1.01196,-0.36304 -0.062,-0.20845 0.0499,-0.21166 -0.0193,-0.21893 -0.13851,-0.17063 -0.0456,-0.21413 0.0968,-0.19634 -0.007,-0.20876 0.051,-0.20256 0.14578,-0.173 0.005,-0.22618 0.0245,-0.21199 0.0101,-0.21316 -0.0552,-0.22863 0.0805,-0.22099 -0.17787,-0.14751 -0.0953,-0.2105 0.0358,-0.20779 -0.0387,-0.20726 0.002,-0.22048 0.14181,-0.16883 -0.0165,-0.21392 -0.0346,-0.21173 0.087,-0.19674 0.1185,-0.17953 0.0745,-0.19795 0.0246,-0.21009 0.10898,-0.17978 0.0903,-0.18982 -0.0989,-0.19881 -0.063,-0.21294 0.0659,-0.21117 0.0707,-0.20963 -0.15606,-0.15271 -0.19301,-0.10209 -0.0865,-0.19807 -0.0967,-0.193318 -0.14725,-0.158567 -0.14978,-0.156176 -0.22842,0.0059 -0.18489,-0.134254 -0.0164,-0.22079 -0.047,-0.216349 -0.1508,-0.163319 -0.18366,-0.125221 -0.0582,-0.206363 -0.14998,-0.153254 -0.14193,-0.152002 -0.12841,-0.163586 -0.11123,-0.224802 0.055,-0.244711 -0.14855,-0.18421 -0.16346,-0.171113 -0.22622,-0.0707 -0.23632,-0.01797 -0.11541,-0.219916 -0.22464,-0.10592 -0.0878,-0.209211 0.044,-0.222569 0.0478,-0.214051 -0.0157,-0.218756 -0.14417,-0.17729 -0.14321,-0.178075 0.0139,-0.228828 -0.0228,-0.228109 0.14543,-0.168482 0.16963,-0.144096 0.0468,-0.21799 0.0882,-0.204768 0.19839,-0.108351 0.20124,-0.102957 0.14426,-0.180083 0.0616,-0.222365 -0.15843,-0.176665 -0.0354,-0.234636 0.0199,-0.228736 0.0824,-0.214316 0.0671,-0.215135 0.0896,-0.206784 0.0261,-0.238911 -0.13735,-0.197214 0.0726,-0.218428 -0.0654,-0.220694 -0.0802,-0.20865 -0.15108,-0.164725 -0.11472,-0.178738 -0.12,-0.175242 -0.14906,-0.15179 -0.16604,-0.133004 -0.0521,-0.205685 0.0477,-0.206753 -0.0163,-0.206417 -0.0529,-0.200188 -0.1265,-0.180944 -0.0411,-0.216919 0.0169,-0.217437 0.0777,-0.203801 -0.0628,-0.19867 -0.0974,-0.184195 -0.0427,-0.208559 -0.12915,-0.169234 -0.008,-0.221907 0.0833,-0.205849 -0.0947,-0.195478 -0.0842,-0.200211 -0.0974,-0.192739 0.009,-0.215766 -0.0744,-0.198381 -0.13511,-0.163212 -0.0753,-0.206242 -0.18594,-0.116736 -0.15552,-0.15498 -0.0278,-0.217793 0.12209,-0.180398 0.17136,-0.134467 0.12008,-0.178886 0.13646,-0.166721 0.14224,-0.162693 0.12003,-0.1797 0.16741,-0.155634 0.0332,-0.226155 -0.15005,-0.181681 -0.009,-0.235465 -0.0309,-0.221169 -0.0159,-0.222756 -0.007,-0.229352 0.008,-0.229349 0.15609,-0.174321 0.0761,-0.221281 0.11261,-0.198022 -0.0169,-0.227171 0.0243,-0.220984 0.10815,-0.194235 0.13406,-0.195496 -0.007,-0.236949 0.19966,-0.117185 0.12658,-0.193848 0.16822,-0.142783 0.17033,-0.140265 0.11659,-0.197669 0.20352,-0.10607 0.21207,-0.07836 0.18514,-0.12975 0.23052,0.03899 0.2147,-0.09252 0.004,-0.213584 0.0664,-0.203028 -0.0573,-0.205516 0.002,-0.213341 8.1e-4,-0.213564 0.0244,-0.212166 0.0956,-0.190616 0.095,-0.190908 0.0689,-0.218424 -0.0551,-0.222332 0.0855,-0.213892 0.18962,-0.130773 0.10648,-0.18921 0.18125,-0.119515 0.0538,-0.21044 0.14467,-0.162014 0.14914,-0.157138 0.14113,-0.164377 0.0756,-0.204029 0.11299,-0.185932 0.026,-0.222714 0.12601,-0.185467 0.15184,-0.156672 0.13177,-0.173894 -0.0337,-0.218796 0.0418,-0.217388 0.052,-0.215672 -0.0288,-0.219971 -0.008,-0.223589 -0.0523,-0.217532 -0.14706,-0.171417 -0.0816,-0.210619 0.0955,-0.202696 0.0779,-0.210079 0.11569,-0.201579 0.20336,-0.112526 0.0337,-0.235982 0.11839,-0.206892 -0.0323,-0.239202 -0.14134,-0.195662 0.119,-0.207463 -0.0456,-0.234781 -0.0767,-0.22433 0.0777,-0.223962 -0.12869,-0.205289 -0.22566,-0.08823 -0.1366,-0.192204 -0.0413,-0.232161 -0.0103,-0.201371 0.0322,-0.199043 0.0834,-0.191344 -0.0316,-0.206314 -0.075,-0.202029 -0.0117,-0.215191 0.1238,-0.175476 0.0764,-0.200695 0.0452,-0.210206 0.14555,-0.158262 0.11432,-0.181552 0.01,-0.214314 0.0986,-0.201092 -0.0245,-0.22264 -0.0892,-0.195893 -0.0734,-0.202363 0.0886,-0.187461 0.10263,-0.180157 0.0832,-0.198495 -0.0325,-0.212766 0.049,-0.201163 -0.0172,-0.206336 -0.0606,-0.201206 0.0369,-0.20685 0.0253,-0.203019 -0.0245,-0.203122 0.0555,-0.200457 -0.0344,-0.205137 -0.0477,-0.206782 0.0467,-0.207001 -0.0309,-0.211007 -0.12658,-0.171633 0.0702,-0.217749 -0.0286,-0.226988 -0.12557,-0.19295 -0.02,-0.229346 -0.1163,-0.19318 -0.19489,-0.113396 -0.17354,-0.133272 -0.15646,-0.152965 -0.0249,-0.218538 -0.14002,-0.169623 0.0197,-0.214485 -0.0675,-0.20453 -0.0345,-0.214905 0.0881,-0.199006 0.0105,-0.208951 0.0399,-0.205373 -0.16015,-0.143508 -0.0408,-0.21114 -0.14551,-0.145879 -0.0967,-0.181918 -0.0257,-0.216034 -0.15213,-0.155524 -0.19114,-0.102483 -0.0926,-0.196132 0.008,-0.208047 -0.074,-0.194605 -0.008,-0.207246 -0.0817,-0.190641 -0.0284,-0.210232 -0.13247,-0.165702 -0.044,-0.19983 -0.0597,-0.195724 -0.7311,0.449804 -0.8474,0.136859 -0.78824,-0.407861 -0.87534,0.146405 -0.4241,0.753113 -0.80296,0.319832 -0.44724,0.706208 -0.70915,0.442562 -0.673,0.48977 -0.81791,0.154386 -0.84913,0.08346 -0.73796,-0.428261 -0.81166,-0.06904 -0.80721,-0.109459 -0.64059,0.517752 -0.76532,0.304478 -0.49364,0.704689 -0.75338,0.415572 -0.87382,-0.06672 -0.76204,0.432791 -0.23838,0.803396 -0.11045,0.830705 -0.48811,0.680931 -0.58417,0.600549 -0.8311,0.226914 -0.4959,0.704494 -0.4756,0.664742 -0.6289,0.522083 -0.49181,0.691968 -0.41291,0.741761 -0.16012,0.859929 0.27066,0.831781 -0.70736,0.326168 -0.65432,0.422609 -0.67159,0.450439 -0.80832,0.02355 -0.61327,0.578964 -0.80636,0.247114 -0.76278,-0.429632 -0.85894,0.169255 -0.73914,0.441346 -0.27446,0.815955 -0.41197,0.723305 -0.0227,0.832086 -0.84482,0.08169 -0.72622,0.439308 -0.41023,0.728146 -0.59537,0.586542 -0.64017,0.504108 -0.36787,0.727063 -0.74596,0.277262 -0.73232,0.311504 -0.76773,0.068 -0.76907,0.05062 -0.74833,0.212692 -0.77797,0.0024 -0.66814,0.372992 -0.75657,0.114608 -0.77949,-0.06327 -0.69846,0.351783 -0.72748,0.313744 -0.78097,0.133247 -0.73141,-0.294425 -0.7645,-0.192879 -0.61106,-0.493326 -0.72597,-0.299579 -0.78724,0.216727 -0.76578,-0.283393 -0.66884,-0.348258 -0.67583,-0.334495 -0.5289,-0.593583 -0.77953,-0.156273 -0.34699,-0.720312 -0.47207,-0.645302 -0.83342,-0.06802 -0.63821,-0.540289 -0.60281,-0.485102 -0.75006,-0.19003 -0.77295,-0.137124 -0.58952,-0.518395 -0.79053,-0.16586 -0.80427,-0.07475 -0.79419,-0.190379 -0.69511,-0.428724 -0.76358,0.261748 -0.78943,0.168409 -0.69892,0.401256 -0.71517,0.371532 -0.79282,0.190961 -0.80555,0.126877 -0.67838,-0.455862 -0.74102,-0.344831 -0.68447,-0.425845 -0.80595,0.01688 -0.55741,-0.56286 -0.74502,-0.269168 -0.78408,-0.178581 -0.80415,-7.95e-4 -0.82104,0.22293 -0.77153,-0.358526 -0.85463,0.0085 -0.79461,0.314729 -0.89306,-0.07257 -0.63069,-0.636437 -0.29831,-0.85236 -0.76719,-0.476377 -0.84473,-0.117039 -0.82747,-0.206328 -0.63038,-0.493042 -0.67164,-0.43517 -0.65204,-0.463389 -0.68068,-0.420191 -0.47239,0.672655 -0.60238,0.559252 -0.51368,0.698866 -0.83929,0.218846 -0.68851,0.541234 -0.50138,0.718061 -0.83495,0.375341 -0.89006,-0.214034 -0.86728,-0.05929 -0.7764,-0.390989 -0.88695,0.03421 -0.76634,-0.447858 -0.7872,0.449645 -0.55629,0.715834 -0.91338,-0.119196 -0.84926,0.356675 -0.73093,0.268352 -0.73623,-0.253435 -0.73174,0.05574 -0.72783,0.09391 -0.74287,0.04166 -0.71643,0.200818 -0.71926,-0.229381 -0.75158,0.07138 -0.62827,-0.566518 -0.84363,-0.0628 -0.72411,0.383256 -0.81796,0.04634 -0.48116,-0.644426 -0.51256,-0.619736 -0.75343,-0.326747 -0.82123,0.0011 -0.76976,-0.02632 -0.75795,0.136934 -0.70059,-0.329766 -0.76631,-0.111085 -0.77561,-0.0552 -0.77624,0.04543 -0.59543,-0.5317 -0.77251,-0.201172 -0.68407,0.371366 -0.76976,0.115542 -0.68594,0.367076 -0.52276,0.576171 -0.78991,-0.161562 -0.79923,0.106168 -0.73294,0.33626 -0.58121,0.55897 -0.82091,-0.133238 -0.83066,0.04048 -0.566,-0.64901 -0.82535,-0.245665 -0.76153,-0.381425 -0.36863,-0.767808 -0.2435,-0.791415 -0.5715,-0.599182 -0.77201,0.271231 -0.67023,0.469425 -0.84515,-0.0033 -0.71177,0.45572 -0.57273,-0.669323 -0.86171,-0.18296 -0.82996,-0.198531 -0.83814,0.160561 -0.75704,0.232353 -0.58192,0.537081 -0.7898,0.09359 -0.74262,-0.284685 -0.76883,0.181754 -0.69803,-0.369954 -0.71352,0.226095 -0.74847,-0.0032 -0.83531,0.07452 -0.62416,0.560117 -0.73804,-0.375401 -0.82469,0.07418 -0.78046,-0.158212 -0.78995,-0.100666 -0.56545,-0.560117 -0.58333,-0.541472 -0.61543,0.488423 -0.50329,0.603327 -0.36725,0.705304 -0.59773,0.524441 -0.50368,0.608781 -0.54237,0.574572 -0.55905,0.607567 -0.80298,0.192075 -0.76311,0.206345 -0.74461,0.265451 -0.78525,0.128547 -0.7932,-0.06307 -0.76452,-0.203982 -0.786,-0.09102 -0.79796,-0.125215 -0.77761,0.218496 -0.78473,0.143121 -0.67233,0.429264 -0.4144,0.674433 -0.59484,0.522259 -0.77853,0.04983 -0.68852,0.366787 -0.70507,0.296304 -0.65126,0.400983 -0.40503,0.730744 -0.50508,0.665536 -0.85186,0.109861 -0.70033,0.497275 -0.41694,0.699332 -0.095,0.808629 -0.25111,0.765511 -0.009,0.805596 -0.55028,0.654699 -0.83716,0.174931 -0.77423,0.238453 -0.79922,0.13241 -0.82657,-0.135239 -0.82884,0.120583 -0.61782,-0.579377 -0.80235,-0.271328 -0.68905,-0.414323 -0.77914,-0.198511 -0.79588,0.0436 -0.78402,0.143638 -0.76091,0.31588 -0.61131,0.552318 -0.78782,-0.314949 -0.83001,0.175867 -0.76727,0.327158 -0.38987,0.737381 -0.83066,-0.05113 -0.68352,0.474764 -0.49461,0.583917 -0.53864,0.543558 -0.39815,0.683445 -0.68401,0.397174 -0.5406,0.634616 -0.59521,0.583703 -0.84651,-0.09052 -0.8104,0.260818 -0.60157,0.533996 -0.61958,0.512979 -0.24512,0.767399 -0.33165,0.734164 -0.31904,0.377677 -0.10821,0.482412 0.0661,0.482228 -0.0931,0.477756 0.3752,0.333749 0.25261,0.433987 0.1167,0.493245 -0.0932,0.498221 0.48486,0.109077 0.38443,0.314966 0.21762,0.432569 0.17252,0.45245 0.19004,0.421987 0.0761,0.4565 0.10973,0.477712 0.39674,0.287836 0.23592,0.376572 0.33937,0.286863 0.15746,0.421978 0.32525,0.311566 0.23944,0.394371 0.24051,0.393718 0.48113,0.0415 0.37374,0.305831 0.24422,0.368908 0.29464,0.33004 0.15637,0.43203 0.36324,0.28134 0.2415,0.3776 0.12772,0.42965 0.18606,0.41394 8.5e-4,0.45384 0.12883,0.45334 0.20643,0.42369 0.39595,0.25521 0.34843,0.31703 0.36009,0.28938 0.43017,0.16839 0.43684,0.13675 0.45157,0.0749 0.48624,-0.0368 0.46501,0.14683 0.34877,0.33384 0.42235,0.23392 0.14001,0.45543 0.33284,0.34095 0.0631,0.48518 0.34637,0.34557 0.47184,0.18577 0.32836,0.38642 0.10069,0.49188 0.28605,0.41264 0.48953,0.0801 0.48945,-0.0806 0.48168,0.14151 0.37285,0.33618 0.45877,0.004 0.45554,-0.0543 0.43169,-0.17878 0.46723,0.004 0.46364,0.16089 0.35849,0.33517 0.46611,-0.18835 0.49079,0.10895 0.4287,0.1749 0.40044,0.23244 0.4016,0.23734 0.45161,0.11686 0.0523,0.48873 0.0964,0.48197 0.34974,0.34573 0.38605,0.30465 0.0831,0.45948 -0.083,0.4595 0.30743,0.34528 0.22438,0.4042 -0.0263,0.45711 0.0239,0.45724 0.16885,0.43613 0.33354,0.32783 -0.029,0.47346 0.24123,0.40843 0.31068,0.33212 0.35639,0.28251 0.41279,0.16129 0.35039,0.27137 0.31791,0.30296 0.28744,0.33201 0.42748,0.0976 0.36199,0.24741 0.4005,0.19047 0.2673,0.35387 0.29185,0.31589 0.34402,0.25809 0.32749,0.28315 0.39523,0.17668 0.49916,0.14862 0.3455,0.3897 0.51672,-0.0629 0.47286,0.21764 0.20195,0.47034 0.20329,0.46977 0.52163,0.1378 0.33477,0.42309 0.22227,0.48548 -0.0537,0.53123 -0.0972,0.50886 -0.19958,0.47808 0.37874,0.38798 0.4895,0.23315 0.25333,0.48548 0.0166,0.54737 -0.26121,0.42912 -0.21704,0.45308 -0.44409,0.2449 -0.35485,0.36231 -0.0456,0.48853 -0.0689,0.48579 -0.15822,0.47656 0.0554,0.49907 -0.0686,0.47974 0.14737,0.46167 -0.0782,0.4801 0.15346,0.46159 0.15653,0.50857 0.45092,0.2825 0.0208,0.49866 -0.019,0.49873 0.34179,0.28938 0.3768,0.24205 0.44982,0.0172 0.43264,0.12433 0.11992,0.44521 0.25115,0.38668 0.39613,0.22496 0.38624,0.24155 0.35782,0.30334 0.19304,0.42755 0.46151,0.0626 0.40675,0.22685 0.2381,0.37805 0.077,0.44009 0.16016,0.41411 0.28184,0.34308 0.37137,0.22599 0.41855,0.1175 0.43496,-0.0202 0.42201,0.10729 0.40302,0.15341 0.34509,0.25861 0.43649,0.0457 0.36945,0.23691 0.35029,0.31728 0.0802,0.46577 0.36165,0.26337 0.38671,0.22497 0.36557,0.23883 0.40276,0.16871 0.44659,0.0371 0.37709,0.24214 0.43255,0.17403 0.46484,-0.0363 0.29709,0.34331 0.28605,0.35255 0.41631,0.0908 0.42536,0.025 0.40874,0.13273 0.42973,0.004 0.45575,0.0204 0.42052,-0.17689 0.40505,0.19255 0.43984,0.0876 0.37875,0.21345 0.321,0.29322 0.34566,0.26506 0.40197,0.16783 0.42846,-0.20739 0.47003,0.0752 0.46565,0.06 0.37602,0.28113 0.40906,0.16685 0.43758,0.0607 0.38589,0.22867 0.44595,0.0482 0.43896,0.1488 0.41559,0.20523 0.31828,0.35071 0.14129,0.45204 0.45213,0.14335 0.32855,0.34207 0.28177,0.38069 0.0709,0.46828 0.39979,0.23092 0.45958,0.044 0.45686,0.0734 0.37983,0.26429 0.42027,-0.21701 0.47247,-0.0223 0.4721,-0.0123 0.437,0.17903 0.47164,0.0507 0.42378,-0.21312 0.3962,-0.22422 0.38121,-0.24885 0.45021,-0.11925 0.42638,-0.18739 0.43185,0.20353 0.47721,-0.0137 0.4627,0.053 0.45839,0.0824 0.47343,-0.023 0.4483,0.1539 0.49167,-0.0727 0.49661,-0.0201 0.31318,-0.38755 0.37678,-0.32607 0.27303,-0.43108 0.48444,-0.16032 0.48616,0.12758 0.47402,-0.16715 0.37528,-0.27062 0.28405,-0.36522 0.29201,-0.3529 0.30408,-0.34256 0.28193,0.40161 0.15378,0.46596 0.4278,0.23536 0.46832,0.13812 0.33567,0.33647 0.45048,0.15147 0.47653,-0.0255 0.43131,0.20417 0.38303,0.29206 0.41967,0.23638 0.47974,0.0363 0.47366,0.0844 0.30387,0.40803 0.0221,0.50826 0.39096,0.28988 0.36529,0.32162 0.48432,0.0257 0.45835,-0.15857 0.45836,-0.1905 0.48825,0.0894 0.48415,-0.0705 0.47208,-0.12851 0.40708,-0.27186 0.36599,-0.32509 0.49705,0.0269 0.37951,0.32211 0.45897,0.13786 0.38269,0.28848 0.50164,-0.0386 0.50254,-0.0242 0.34484,0.37728 0.45459,0.23365 -0.35506,0.35102 -0.3876,0.31473 -0.31637,0.38779 -0.2466,0.4355 -0.28714,0.41238 -0.40874,0.29231 -0.4869,0.20488 -0.23504,0.47309 -0.45984,0.26838 -0.51829,0.12192 -0.45268,-0.32692 -0.55761,0.0296 -0.51149,0.0125 -0.45069,0.24217 -0.4486,0.24528 -0.51091,0.0193 -0.52284,-0.16311 -0.51233,0.19362 -0.44452,0.27507 -0.35309,0.38547 -0.44472,0.25245 -0.51098,-0.0205 -0.49023,0.0405 -0.49169,0.0142 -0.56438,0.0177 -0.46929,-0.31402 -0.45402,-0.33107 -0.19317,-0.52766 -0.46069,-0.3184 -0.55925,-0.0292 -0.46674,0.30013 -0.55277,0.0487 -0.4894,0.20959 -0.47391,0.2426 -0.14358,0.52791 -0.36689,0.40583 -0.46419,0.33139 -0.56928,-0.0348 -0.36473,0.40187 -0.2421,0.4857 0.18637,0.51052 -0.15792,0.52003 -0.22489,0.49493 0.11867,0.53052 -0.17185,0.51916 0.0297,0.54604 -0.3813,0.38031 -0.32675,0.4281 -0.41701,0.26551 -0.48537,0.0939 -0.47957,0.0877 -0.48751,0.003 -0.51463,0.15527 -0.30323,0.44385 -0.50938,0.17808 -0.50435,-0.19186 -0.18484,0.49859 -0.39637,0.35448 -0.52253,0.0673 -0.45393,0.26742 -0.40616,0.30574 -0.49382,0.12074 -0.48236,0.21835 -0.5105,-0.14045 -0.44981,0.15542 -0.47175,0.0627 -0.44476,0.16729 -0.41048,0.23937 -0.27229,0.43838 -0.47647,0.19819 -0.48219,0.1042 -0.49301,0.0177 -0.40326,0.28407 -0.27103,0.41214 0.004,0.50746 -0.2843,0.42037 -0.12268,0.48423 -0.38669,0.31622 -0.0265,0.49175 -0.27688,0.40724 -0.28666,0.4249 -0.47451,0.19376 -0.12095,0.47612 -0.17417,0.45932 -0.50204,0.11565 -0.32217,0.40203 -0.48317,0.11486 -0.48962,-0.0832 -0.44331,0.18411 -0.22592,0.42352 -0.22398,0.39272 -0.20448,0.40321 -0.3134,0.32488 -0.27805,0.35559 -0.30875,0.35965 -0.46117,0.10948 -0.38817,0.32773 -0.50153,0.0809 -0.0578,0.51497 -0.36456,0.36828 -0.33858,0.34516 -0.33278,0.35075 -0.45557,0.19581 -0.49543,-0.0208 -0.4912,0.14184 -0.44094,0.25878 -0.52453,0.0261 -0.46733,-0.23964 -0.31996,0.39302 -0.47487,0.17702 -0.145,0.50191 -0.43963,0.28225 0.18274,0.47694 -0.0963,0.5016 -0.14234,0.4713 -0.20526,0.4475 0.0477,0.51095 -0.24485,0.451 -0.35491,0.34708 -0.23804,0.43562 -0.14448,0.48018 -0.30006,0.40177 -0.45368,0.23509 -0.27702,0.42937 -0.52755,-0.0542 -0.44715,0.28511 -0.46706,0.22868 -0.28087,0.43766 -0.53672,0.0423 -0.52263,-0.12932 -0.52273,0.16596 -0.37955,0.39589 -0.38906,0.32891 -0.29156,0.41779 -0.16328,0.5086 -0.44144,0.30079 -0.33497,0.38664 -0.44384,0.25436 -0.48386,0.19316 -0.3292,0.40379 -0.21157,0.51062 0.17222,0.5252 -0.10277,0.53563 -0.39983,0.37093 -0.50599,0.15764 -0.52578,-0.0665 -0.38496,0.35202 -0.45767,0.25032 -0.50213,0.22616 -0.54682,-0.0653 -0.48476,-0.22272 -0.42843,-0.31789 -0.4546,0.18675 -0.47239,0.13562 -0.40927,0.30324 -0.50707,0.0482 -0.30237,0.40654 -0.25291,0.43901 -0.51648,0.10937 -0.37159,0.37501 -0.48625,0.12827 -0.44237,0.23916 -0.50845,0.0593 -0.43373,0.27185 -0.51918,0.15169 -0.44217,0.31152 -0.4916,-0.22338 -0.53623,-0.0635 -0.52322,0.10778 -0.40642,0.34669 -0.32567,0.40204 -0.32175,0.40518 -0.23661,0.50993 -0.51088,0.23455 -0.12606,0.51265 -0.0837,0.52125 -0.46562,-0.1436 -0.48718,0.009 -0.45891,0.17526 -0.4908,-0.0206 -0.44754,0.24515 -0.50253,-0.0886 -0.38797,0.29854 -0.46885,0.14079 -0.48762,-0.0803 -0.44195,-0.22112 -0.44755,0.23134 -0.50374,-0.008 -0.47584,0.10926 -0.46864,-0.13691 -0.47339,0.0282 -0.46137,0.10971 0.10682,0.5053 0.22383,0.46545 0.0886,0.53813 -0.27663,0.47001 0.075,0.53091 -0.1678,0.50926 -0.32169,0.41258 -0.3705,0.36938 -0.46844,0.2572 -0.28853,0.44982 0.1251,0.53637 -0.24712,0.49222 -0.37296,0.31653 -0.29874,0.38736 -0.39297,0.30232 -0.24917,0.42864 -0.49415,0.24694 -0.5521,0.0183 -0.47928,-0.31297 -0.56949,0.0579 -0.37892,0.37079 -0.47349,0.23848 -0.5373,0.13501 -0.34056,0.43697 -0.29496,0.43487 -0.1286,0.50948 -0.21492,0.48032 -0.0296,0.52538 -0.38131,0.42041 -0.56098,0.0863 -0.35477,0.41167 -0.18995,0.50916 -0.0907,0.49832 -0.25881,0.43539 -0.33807,0.36916 -0.26533,0.42447 -0.32988,0.36761 -0.36748,0.33002 -0.39682,0.29908 -0.3127,0.38618 -0.52739,0.0421 -0.52392,-0.0735 -0.37492,0.37686 -0.46783,0.25244 -0.27515,0.43992 -0.31232,0.41437 -0.4445,0.28325 -0.516155,0.10672 -0.01547,0.51973 -0.119216,0.5061 0.207875,0.47433 0.162875,0.4916 -0.174817,0.51355 -0.465674,0.27828 -0.276654,0.44355 -0.05305,0.52005 -0.162241,0.49904 -0.364358,0.37763 0.02846,0.51367 0.140013,0.49503 -0.238946,0.42642 -0.289991,0.39349 -0.223757,0.45134 0.02203,0.50329"
       id="path4629"
       style="fill:#008000;stroke:#000000;stroke-width:1px;stroke-linecap:butt;stroke-linejoin:miter;stroke-opacity:1" />
  </g>
</svg>
