<?xml version="1.0" encoding="UTF-8"?>

<svg version="1.2" baseProfile="tiny" width="280mm" height="210mm" viewBox="0 0 28000 21000" preserveAspectRatio="xMidYMid" fill-rule="evenodd" stroke-width="28.222" stroke-linejoin="round" xmlns="http://www.w3.org/2000/svg" xmlns:xlink="http://www.w3.org/1999/xlink" xml:space="preserve">
  <g fill="rgb(207,231,245)" stroke="rgb(128,128,128)" stroke-linejoin="round">
    <path d="M 6350,11430 C 6210,11430 6090,11398 5969,11328 5848,11258 5760,11170 5690,11049 5620,10928 5588,10808 5588,10668 5588,10528 5620,10408 5690,10287 5760,10166 5848,10078 5969,10008 6090,9938 6210,9906 6350,9906 6490,9906 6610,9938 6731,10008 6852,10078 6940,10166 7010,10287 7080,10408 7112,10528 7112,10668 7112,10808 7080,10928 7010,11049 6940,11170 6852,11258 6731,11328 6610,11398 6490,11430 6350,11430 L 6350,11430 Z"/>
    <path d="M 9906,15240 C 9766,15240 9646,15208 9525,15138 9404,15068 9316,14980 9246,14859 9176,14738 9144,14618 9144,14478 9144,14338 9176,14218 9246,14097 9316,13976 9404,13888 9525,13818 9646,13748 9766,13716 9906,13716 10046,13716 10166,13748 10287,13818 10408,13888 10496,13976 10566,14097 10636,14218 10668,14338 10668,14478 10668,14618 10636,14738 10566,14859 10496,14980 10408,15068 10287,15138 10166,15208 10046,15240 9906,15240 L 9906,15240 Z"/>
    <path d="M 10160,10414 C 10020,10414 9900,10382 9779,10312 9658,10242 9570,10154 9500,10033 9430,9912 9398,9792 9398,9652 9398,9512 9430,9392 9500,9271 9570,9150 9658,9062 9779,8992 9900,8922 10020,8890 10160,8890 10300,8890 10420,8922 10541,8992 10662,9062 10750,9150 10820,9271 10890,9392 10922,9512 10922,9652 10922,9792 10890,9912 10820,10033 10750,10154 10662,10242 10541,10312 10420,10382 10300,10414 10160,10414 L 10160,10414 Z"/>
  </g>
  <path fill="none" stroke="rgb(0,0,0)" d="M 10922,9652 C 11673,9652 11768,13554 10973,14341"/>
  <path fill="rgb(0,0,0)" stroke="none" d="M 10668,14478 L 11135,14393 10990,14130 10668,14478 Z"/>
  <path fill="none" stroke="rgb(0,0,0)" d="M 6350,11430 C 6350,13462 7161,14338 8783,14464"/>
  <path fill="rgb(0,0,0)" stroke="none" d="M 9144,14478 L 8702,14307 8687,14606 9144,14478 Z"/>
  <path fill="none" stroke="rgb(0,0,0)" d="M 6350,9906 C 6350,7631 9243,8054 9987,8618"/>
  <path fill="rgb(0,0,0)" stroke="none" d="M 10160,8890 L 10006,8441 9768,8623 10160,8890 Z"/>
  <path fill="rgb(207,231,245)" stroke="rgb(128,128,128)" stroke-linejoin="round" d="M 15748,12192 C 15608,12192 15488,12160 15367,12090 15246,12020 15158,11932 15088,11811 15018,11690 14986,11570 14986,11430 14986,11290 15018,11170 15088,11049 15158,10928 15246,10840 15367,10770 15488,10700 15608,10668 15748,10668 15888,10668 16008,10700 16129,10770 16250,10840 16338,10928 16408,11049 16478,11170 16510,11290 16510,11430 16510,11570 16478,11690 16408,11811 16338,11932 16250,12020 16129,12090 16008,12160 15888,12192 15748,12192 L 15748,12192 Z"/>
  <path fill="none" stroke="rgb(0,0,0)" d="M 9906,15240 C 9906,15991 15479,17445 15739,12552"/>
  <path fill="rgb(0,0,0)" stroke="none" d="M 15748,12192 L 15583,12637 15883,12647 15748,12192 Z"/>
</svg>
