<?xml version="1.0" encoding="UTF-8" standalone="no"?>
<!-- Created with Inkscape (http://www.inkscape.org/) -->

<svg
   xmlns:dc="http://purl.org/dc/elements/1.1/"
   xmlns:cc="http://creativecommons.org/ns#"
   xmlns:rdf="http://www.w3.org/1999/02/22-rdf-syntax-ns#"
   xmlns:svg="http://www.w3.org/2000/svg"
   xmlns="http://www.w3.org/2000/svg"
   version="1.1"
   width="744.09448"
   height="1052.3622"
   id="svg2">
  <defs
     id="defs4" />
  <metadata
     id="metadata7">
    <rdf:RDF>
      <cc:Work
         rdf:about="">
        <dc:format>image/svg+xml</dc:format>
        <dc:type
           rdf:resource="http://purl.org/dc/dcmitype/StillImage" />
        <dc:title></dc:title>
      </cc:Work>
    </rdf:RDF>
  </metadata>
  <g
     id="layer1">
    <path
       d="M 8.0630047,208.97187 C 24.803974,193.51816 40.04604,176.01105 58.374244,163.31383 c 9.421736,-12.98637 25.697366,-8.04588 28.676598,6.38658 17.387688,8.63607 36.928148,-19.73473 54.025868,-18.14799 17.89471,-16.06373 24.91977,-26.82568 39.45295,-45.52193 52.81188,-19.510732 28.78442,-50.061402 47.91976,-25.240982 11.96428,13.99788 9.15631,28.688912 21.74159,50.619582 1.06933,23.52718 30.9066,13.99884 50.40984,19.89372 24.40672,9.15389 36.21474,16.00297 56.98444,5.40041 22.49024,13.07599 36.90666,-14.60813 43.32838,-13.0118 26.7811,6.65734 46.58943,28.25191 52.04671,35.51261 23.85782,2.17566 12.91111,6.29234 17.96259,16.81827 25.46093,-3.65378 12.51186,-13.09352 26.48925,0.87672 4.86161,0.48113 -3.96052,9.75853 0.88148,10.46021"
       id="path4899"
       style="fill:#d2b48c;stroke:#000000;stroke-width:1px;stroke-linecap:butt;stroke-linejoin:miter;stroke-opacity:1" />
  </g>
</svg>
