<?xml version="1.0"?>
<!-- ========================================================== -->
<!-- The first four iterations of the Koch Snowflake fractal.   -->
<!--                                                            -->
<!-- Author: Kelvin R. Lawrence  12th-April-2007                -->
<!--                                                            -->
<!-- ========================================================== -->
<!DOCTYPE svg PUBLIC "-//W3C//DTD SVG 20010904//EN"
  "http://www.w3.org\TR\2001\REC-SVG-20010904\DTD\svg10.dtd">
<svg width="1000" height="1000" xmlns="http://www.w3.org/2000/svg">

  <g style="stroke:blue ; stroke-width:2 ; fill:none" transform="scale(0.6,0.6)">

    <polygon points="47,160,213,449,379,160"/>

    <polygon transform="translate(400,1)"
             points="47,160,102,256,46,353,157,353,213,449,268,353,379,353,323,256,379,160,268,160,213,64,157,160"/>


    <polygon transform="translate(1,400)"
             points="47,160,65,192,46,224,83,224,102,256,83,289,46,289,65,321,46,353,83,353,102,385,120,353,157,353,176,
                         385,157,417,194,417,213,449,231,417,268,417,249,385,268,353,305,353,323,385,342,353,379,353,360,321,
                         379,289,342,289,323,256,342,224,379,224,360,192,379,160,342,160,323,128,305,160,268,160,249,128,268,
                         96,231,96,213,64,194,96,157,96,176,128,157,160,120,160,102,128,83,160"   />

    <polygon transform="translate(400,400)"
             points="47,160,53,171,46,182,59,182,65,192,59,203,46,203,53,214,46,224,59,224,65,235,71,224,83,224,90,235,83,
                     246,96,246,102,256,96,267,83,267,89,278,83,289,71,289,65,278,59,289,46,289,52,299,46,310,59,310,65,
                     321,59,331,46,331,52,342,46,353,59,353,65,363,71,353,83,353,89,363,83,374,96,374,102,385,108,374,120,
                     374,114,363,120,353,133,353,139,363,145,353,157,353,163,363,157,374,169,374,176,385,169,396,157,396,
                     163,406,157,417,169,417,176,428,182,417,194,417,200,428,194,438,206,438,213,449,219,438,231,438,225,
                     428,231,417,243,417,249,428,256,417,268,417,262,406,268,396,256,396,249,385,256,374,268,374,262,363,
                     268,353,280,353,286,363,292,353,305,353,311,363,305,374,317,374,323,385,329,374,342,374,336,363,342,
                     353,354,353,360,363,366,353,379,353,373,342,379,331,366,331,360,321,366,310,379,310,373,299,379,289,
                     366,289,360,278,354,289,342,289,336,278,342,267,329,267,323,256,329,246,342,246,335,235,342,224,354,
                     224,360,235,366,224,379,224,372,214,379,203,366,203,360,192,366,182,379,182,372,171,379,160,366,160,
                     360,150,354,160,342,160,335,150,342,139,329,139,323,128,317,139,305,139,311,150,305,160,292,160,286,
                     150,280,160,268,160,262,150,268,139,256,139,249,128,256,118,268,118,262,107,268,96,256,96,249,86,243,
                     96,231,96,225,86,231,75,219,75,213,64,206,75,194,75,200,86,194,96,182,96,176,86,169,96,157,96,163,
                     107,157,118,169,118,176,128,169,139,157,139,163,150,157,160,145,160,139,150,133,160,120,160,114,150,
                     120,139,108,139,102,128,96,139,83,139,90,150,83,160,71,160,65,150,59,160"   />

  </g>
</svg>








