<?xml version="1.0" encoding="UTF-8" standalone="no"?>
<!-- Created with Inkscape (http://www.inkscape.org/) -->

<svg
   xmlns:dc="http://purl.org/dc/elements/1.1/"
   xmlns:cc="http://creativecommons.org/ns#"
   xmlns:rdf="http://www.w3.org/1999/02/22-rdf-syntax-ns#"
   xmlns:svg="http://www.w3.org/2000/svg"
   xmlns="http://www.w3.org/2000/svg"
   version="1.1"
   width="1000"
   height="1000"
   id="svg3107">
  <metadata
     id="metadata3189">
    <rdf:RDF>
      <cc:Work
         rdf:about="">
        <dc:format>image/svg+xml</dc:format>
        <dc:type
           rdf:resource="http://purl.org/dc/dcmitype/StillImage" />
        <dc:title></dc:title>
      </cc:Work>
    </rdf:RDF>
  </metadata>
  <defs
     id="defs3187" />
  <line
     x1="50"
     y1="50"
     x2="50"
     y2="500"
     id="line3109"
     stroke="#000"
     style="stroke:#000000" />
  <line
     x1="50"
     y1="75"
     x2="75"
     y2="500"
     id="line3111"
     stroke="#000"
     style="stroke:#000000" />
  <line
     x1="50"
     y1="100"
     x2="100"
     y2="500"
     id="line3113"
     stroke="#000"
     style="stroke:#000000" />
  <line
     x1="50"
     y1="125"
     x2="125"
     y2="500"
     id="line3115"
     stroke="#000"
     style="stroke:#000000" />
  <line
     x1="50"
     y1="150"
     x2="150"
     y2="500"
     id="line3117"
     stroke="#000"
     style="stroke:#000000" />
  <line
     x1="50"
     y1="175"
     x2="175"
     y2="500"
     id="line3119"
     stroke="#000"
     style="stroke:#000000" />
  <line
     x1="50"
     y1="200"
     x2="200"
     y2="500"
     id="line3121"
     stroke="#000"
     style="stroke:#000000" />
  <line
     x1="50"
     y1="225"
     x2="225"
     y2="500"
     id="line3123"
     stroke="#000"
     style="stroke:#000000" />
  <line
     x1="50"
     y1="250"
     x2="250"
     y2="500"
     id="line3125"
     stroke="#000"
     style="stroke:#000000" />
  <line
     x1="50"
     y1="275"
     x2="275"
     y2="500"
     id="line3127"
     stroke="#000"
     style="stroke:#000000" />
  <line
     x1="50"
     y1="300"
     x2="300"
     y2="500"
     id="line3129"
     stroke="#000"
     style="stroke:#000000" />
  <line
     x1="50"
     y1="325"
     x2="325"
     y2="500"
     id="line3131"
     stroke="#000"
     style="stroke:#000000" />
  <line
     x1="50"
     y1="350"
     x2="350"
     y2="500"
     id="line3133"
     stroke="#000"
     style="stroke:#000000" />
  <line
     x1="50"
     y1="375"
     x2="375"
     y2="500"
     id="line3135"
     stroke="#000"
     style="stroke:#000000" />
  <line
     x1="50"
     y1="400"
     x2="400"
     y2="500"
     id="line3137"
     stroke="#000"
     style="stroke:#000000" />
  <line
     x1="50"
     y1="425"
     x2="425"
     y2="500"
     id="line3139"
     stroke="#000"
     style="stroke:#000000" />
  <line
     x1="50"
     y1="450"
     x2="450"
     y2="500"
     id="line3141"
     stroke="#000"
     style="stroke:#000000" />
  <line
     x1="50"
     y1="475"
     x2="475"
     y2="500"
     id="line3143"
     stroke="#000"
     style="stroke:#000000" />
  <line
     x1="50"
     y1="500"
     x2="500"
     y2="500"
     id="line3145"
     stroke="#000"
     style="stroke:#000000" />
  <line
     x1="50"
     y1="50"
     x2="500"
     y2="50"
     id="line3147"
     stroke="#000"
     style="stroke:#000000" />
  <line
     x1="75"
     y1="50"
     x2="500"
     y2="75"
     id="line3149"
     stroke="#000"
     style="stroke:#000000" />
  <line
     x1="100"
     y1="50"
     x2="500"
     y2="100"
     id="line3151"
     stroke="#000"
     style="stroke:#000000" />
  <line
     x1="125"
     y1="50"
     x2="500"
     y2="125"
     id="line3153"
     stroke="#000"
     style="stroke:#000000" />
  <line
     x1="150"
     y1="50"
     x2="500"
     y2="150"
     id="line3155"
     stroke="#000"
     style="stroke:#000000" />
  <line
     x1="175"
     y1="50"
     x2="500"
     y2="175"
     id="line3157"
     stroke="#000"
     style="stroke:#000000" />
  <line
     x1="200"
     y1="50"
     x2="500"
     y2="200"
     id="line3159"
     stroke="#000"
     style="stroke:#000000" />
  <line
     x1="225"
     y1="50"
     x2="500"
     y2="225"
     id="line3161"
     stroke="#000"
     style="stroke:#000000" />
  <line
     x1="250"
     y1="50"
     x2="500"
     y2="250"
     id="line3163"
     stroke="#000"
     style="stroke:#000000" />
  <line
     x1="275"
     y1="50"
     x2="500"
     y2="275"
     id="line3165"
     stroke="#000"
     style="stroke:#000000" />
  <line
     x1="300"
     y1="50"
     x2="500"
     y2="300"
     id="line3167"
     stroke="#000"
     style="stroke:#000000" />
  <line
     x1="325"
     y1="50"
     x2="500"
     y2="325"
     id="line3169"
     stroke="#000"
     style="stroke:#000000" />
  <line
     x1="350"
     y1="50"
     x2="500"
     y2="350"
     id="line3171"
     stroke="#000"
     style="stroke:#000000" />
  <line
     x1="375"
     y1="50"
     x2="500"
     y2="375"
     id="line3173"
     stroke="#000"
     style="stroke:#000000" />
  <line
     x1="400"
     y1="50"
     x2="500"
     y2="400"
     id="line3175"
     stroke="#000"
     style="stroke:#000000" />
  <line
     x1="425"
     y1="50"
     x2="500"
     y2="425"
     id="line3177"
     stroke="#000"
     style="stroke:#000000" />
  <line
     x1="450"
     y1="50"
     x2="500"
     y2="450"
     id="line3179"
     stroke="#000"
     style="stroke:#000000" />
  <line
     x1="475"
     y1="50"
     x2="500"
     y2="475"
     id="line3181"
     stroke="#000"
     style="stroke:#000000" />
  <line
     x1="500"
     y1="50"
     x2="500"
     y2="500"
     id="line3183"
     stroke="#000"
     style="stroke:#000000" />
  <path
     d="m 105.48362,476.93337 c -7.23434,-0.65191 -7.194611,-0.59108 -8.965333,-13.72734 l -0.830218,-6.15905 7.298141,1.00032 c 4.01398,0.55017 8.54592,1.00032 10.07098,1.00032 2.08078,0 3.04776,1.83338 3.8744,7.34579 0.60586,4.04019 1.47767,8.3259 1.93735,9.52381 0.8654,2.2552 0.59351,2.27584 -13.38532,1.01615 z"
     id="path3959"
     style="fill:#ff0000" />
  <path
     d="m 57.857143,425.45089 -6.746032,-1.51073 0,-11.0177 c 0,-6.05973 0.227499,-11.0177 0.505554,-11.0177 0.278054,0 4.146107,1.08113 8.595673,2.40251 l 8.090119,2.40251 0.531311,10.29923 c 0.589375,11.42479 0.984924,11.12058 -10.976625,8.44188 z"
     id="path3961"
     style="fill:#ff0000" />
  <path
     d="m 139.27508,441.79264 c -3.89905,-0.83607 -5.0418,-2.21051 -6.75358,-8.12286 -1.13323,-3.91407 -1.87845,-7.56884 -1.65604,-8.1217 0.22241,-0.55285 3.71923,-0.0285 7.77071,1.16529 6.35001,1.87103 7.71874,3.05125 9.92063,8.55433 1.40487,3.51111 2.55431,6.72653 2.55431,7.14537 0,0.97605 -5.81148,0.67142 -11.83603,-0.62043 z"
     id="path3963"
     style="fill:#ff0000" />
  <path
     d="m 90.49603,368.43589 c -5.044746,-2.59695 -5.999334,-3.98776 -6.911381,-10.06973 -1.514538,-10.09966 -0.714172,-10.99843 5.83264,-6.54976 4.772294,3.24286 5.944674,5.16934 6.85987,11.2723 0.607116,4.04854 0.871692,7.58583 0.587947,7.86064 -0.283746,0.27482 -3.149829,-0.85624 -6.369076,-2.51345 l 0,0 z"
     id="path3965"
     style="fill:#ff0000" />
  <path
     d="m 411.2051,123.13989 c -6.34519,-1.87994 -7.72041,-3.06742 -9.92063,-8.56632 -1.40487,-3.51111 -2.55431,-6.80603 -2.55431,-7.32203 0,-0.88841 8.90284,0.29518 14.489,1.92625 2.31341,0.67548 7.49798,14.22076 5.96813,15.5924 -0.33872,0.30369 -3.93071,-0.42995 -7.98219,-1.6303 l 0,0 z"
     id="path3967"
     style="fill:#ff0000" />
  <path
     d=""
     id="path3969"
     style="fill:#ff0000" />
  <path
     d="m 445.27517,112.7755 c -6.35343,-1.42573 -6.70057,-1.81864 -8.33334,-9.43195 -0.93705,-4.369339 -1.70373,-8.366167 -1.70373,-8.881842 0,-1.05469 17.38073,0.485169 18.53795,1.642383 0.40888,0.408878 1.28555,4.738439 1.94816,9.621249 1.34696,9.92578 1.60117,9.75426 -10.44904,7.05016 l 0,0 z"
     id="path3971"
     style="fill:#ff0000" />
  <path
     d="m 492.76703,241.98413 c -4.35835,-3.76757 -5.19564,-5.74646 -6.11679,-14.45672 l -1.06724,-10.09164 6.57358,4.35019 c 6.5628,4.34305 6.57358,4.36676 6.57358,14.45672 0,5.55859 -0.20555,10.10653 -0.45679,10.10653 -0.25123,0 -2.72908,-1.96429 -5.50634,-4.36508 z"
     id="path3973"
     style="fill:#ffd700;fill-opacity:1" />
  <path
     d="m 246.74603,494.02621 c -1.96428,-2.49057 -3.57143,-5.05098 -3.57143,-5.6898 0,-0.63883 4.05483,-0.743 9.01073,-0.23151 7.23462,0.74668 9.96626,1.88551 13.85837,5.77762 l 4.84763,4.84764 -10.28693,-0.0878 c -9.36942,-0.08 -10.60548,-0.49171 -13.85837,-4.61612 z"
     id="path3975"
     style="fill:#ffd700;fill-opacity:1" />
  <path
     d="m 314.78441,62.432045 c -2.08286,-0.583568 -5.56726,-3.369511 -7.74311,-6.190984 l -3.95609,-5.12995 10.30996,0 c 10.26979,0 10.32632,0.02473 14.51166,6.349206 l 4.2017,6.349207 -6.76855,-0.158222 c -3.7227,-0.08702 -8.47271,-0.635688 -10.55557,-1.219257 z"
     id="path3977"
     style="fill:#ffd700;fill-opacity:1" />
  <path
     d="m 371.74603,111.94677 c -5.18514,-1.53695 -8.12571,-3.6383 -10.72888,-7.66693 -3.86225,-5.977178 -3.58085,-6.174464 6.44415,-4.517837 5.00536,0.827137 6.57853,2.066777 9.23771,7.279207 1.76275,3.45526 2.97659,6.44891 2.69744,6.65255 -0.27916,0.20364 -3.72185,-0.58251 -7.65042,-1.74699 z"
     id="path3979"
     style="fill:#ffd700;fill-opacity:1" />
  <path
     d="m 55.47619,302.72439 c -3.904943,-3.43697 -4.360552,-4.89575 -4.32213,-13.83873 l 0.04295,-9.99677 5.512607,5.92907 c 4.770852,5.13128 5.512607,7.00011 5.512607,13.88889 0,4.3779 -0.535714,7.93724 -1.190476,7.90966 -0.654762,-0.0276 -3.154762,-1.77904 -5.555556,-3.89212 z"
     id="path3981"
     style="fill:#ffd700;fill-opacity:1" />
  <path
     d="m 51.111111,487.61905 0,-11.11111 7.039524,0 c 3.871739,0 8.87174,0.6966 11.111111,1.54801 3.748748,1.42527 4.071587,2.30628 4.071587,11.11111 l 0,9.5631 -11.111111,0 -11.111111,0 0,-11.11111 z"
     id="path3983"
     style="fill:#ffd700;fill-opacity:1" />
  <path
     d="m 187.19215,465.88417 c -1.54432,-0.40244 -4.28341,-3.62404 -6.08687,-7.15913 l -3.27903,-6.42742 7.67418,1.1426 c 8.75902,1.30411 9.77351,1.94463 13.71629,8.65996 l 2.86752,4.88395 -6.04212,-0.18413 c -3.32317,-0.10127 -7.30565,-0.5134 -8.84997,-0.91583 z"
     id="path3985"
     style="fill:#ff8c00;fill-opacity:1" />
  <path
     d="m 148.79165,490.50555 c -1.34334,-4.52353 -2.44308,-8.27353 -2.44386,-8.33333 -7.8e-4,-0.0598 4.71747,0.24841 10.48501,0.68492 l 10.48644,0.79365 2.85364,7.53969 2.85365,7.53968 -10.89622,0 -10.89621,0 -2.44245,-8.22461 z"
     id="path3987"
     style="fill:#ff8c00;fill-opacity:1" />
  <path
     d="m 501.07927,200.31746 c 0,-82.5 0.19273,-116.25 0.42829,-75 0.23556,41.25 0.23556,108.75 0,150 -0.23556,41.25 -0.42829,7.5 -0.42829,-75 z"
     id="path3989"
     style="fill:#ff8c00;fill-opacity:1" />
  <path
     d="m 490.79365,170.18677 -7.14286,-2.81739 -0.79365,-10.51151 c -0.43651,-5.78132 -0.74472,-10.51086 -0.68492,-10.51008 0.0598,7.8e-4 3.8098,1.10052 8.33333,2.44386 l 8.22461,2.44245 0,11.04962 c 0,6.07728 -0.17857,10.97555 -0.39683,10.88503 -0.21825,-0.0905 -3.61111,-1.43241 -7.53968,-2.98198 z"
     id="path3991"
     style="fill:#ff8c00;fill-opacity:1" />
  <path
     d="m 488.43283,97.551402 c -9.01945,-0.919313 -10.33759,-2.615364 -10.33759,-13.301314 0,-10.417606 -0.36469,-10.188963 13.27052,-8.32005 l 7.3644,1.009403 0,10.895359 c 0,7.800395 -0.56362,10.819562 -1.98413,10.628529 -1.09127,-0.146762 -4.83221,-0.557124 -8.3132,-0.911927 l 0,0 z"
     id="path3993"
     style="fill:#ff8c00;fill-opacity:1" />
  <path
     d="m 259.84127,55.873016 -5.99208,-4.761905 10.23875,0 c 9.30437,0 10.6551,0.434569 14.80095,4.761905 l 4.56219,4.761905 -8.80886,0 c -7.39786,0 -9.76869,-0.762766 -14.80095,-4.761905 z"
     id="path3995"
     style="fill:#f4a460;fill-opacity:1" />
  <path
     d="m 115.0375,417.39687 c -2.81668,-0.90427 -5.45716,-2.79564 -5.86775,-4.20304 -1.62493,-5.56992 -2.80444,-14.46367 -1.91821,-14.46367 0.97916,0 13.688,4.9389 13.71802,5.33108 0.01,0.12346 1.04672,3.61733 2.30503,7.76416 2.57509,8.4863 2.01734,8.86356 -8.23709,5.57147 l 0,0 z"
     id="path3997"
     style="fill:#f4a460;fill-opacity:1" />
  <path
     d="m 428.88889,89.808703 c -1.30952,-0.22033 -5.69714,-0.835408 -9.75026,-1.366836 -7.14906,-0.937361 -7.42183,-1.174846 -9.12698,-7.946623 -0.96672,-3.839213 -1.75768,-7.378373 -1.75768,-7.8648 0,-0.486427 4.52342,-0.884412 10.05205,-0.884412 l 10.05205,0 1.67684,9.126984 c 0.92226,5.019841 1.57741,9.174078 1.45589,9.231636 -0.12153,0.05756 -1.29239,-0.07562 -2.60191,-0.295949 z"
     id="path3999"
     style="fill:#f4a460;fill-opacity:1" />
  <path
     d="m 296.04089,494.81207 -4.45359,-3.9181 8.41755,-0.0502 c 6.41874,-0.0383 9.80425,0.89213 14.25735,3.91809 l 5.83981,3.96826 -9.80376,0 c -8.16285,0 -10.54919,-0.6558 -14.25736,-3.91809 z"
     id="path4001"
     style="fill:#f4a460;fill-opacity:1" />
  <path
     d="m 57.857143,352.19916 -6.746032,-3.30079 0,-10.82091 0,-10.82092 6.206906,4.10754 c 5.752673,3.80694 6.287633,4.80309 7.310013,13.61198 0.60671,5.22744 0.849316,9.73382 0.539126,10.01416 -0.310189,0.28035 -3.599696,-0.97563 -7.310013,-2.79106 z"
     id="path4003"
     style="fill:#f5deb3;fill-opacity:1" />
  <path
     d="m 75.930038,491.36576 c -1.868913,-13.63521 -2.097556,-13.27052 8.32005,-13.27052 5.571491,0 9.959242,0.79922 10.892958,1.98413 0.859927,1.09126 1.985164,5.73412 2.500524,10.31746 l 0.937017,8.33333 -10.820573,0 -10.820573,0 -1.009403,-7.3644 z"
     id="path4005"
     style="fill:#f5deb3;fill-opacity:1" />
  <path
     d="m 381.96637,100.11333 c -5.48847,-1.235784 -6.95142,-2.491094 -9.8456,-8.4482 l -3.39928,-6.996745 5.87735,0.784505 c 11.98831,1.600191 13.1975,2.202786 15.50576,7.727225 3.91488,9.369635 3.65728,9.589095 -8.13823,6.933215 l 0,0 z"
     id="path4007"
     style="fill:#f5deb3;fill-opacity:1" />
  <path
     d="m 464.39709,219.60707 c -3.57189,-3.02708 -5.43616,-6.4349 -6.63394,-12.12657 -0.91627,-4.35398 -1.53782,-8.02013 -1.38121,-8.14701 0.1566,-0.12687 2.89145,1.43612 6.07744,3.47331 5.0462,3.22665 5.93656,4.7499 6.90896,11.82006 0.61393,4.46384 0.86435,8.35781 0.55649,8.65326 -0.30786,0.29546 -2.79535,-1.35742 -5.52774,-3.67305 l 0,0 z"
     id="path4009"
     style="fill:#f5deb3;fill-opacity:1" />
  <path
     d="m 81.269841,452.85683 -7.142857,-0.95207 -1.009758,-10.31746 c -0.555368,-5.6746 -0.91251,-10.41689 -0.793651,-10.53841 0.118859,-0.12153 4.240475,0.51861 9.159148,1.42254 l 8.943039,1.6435 0.977595,7.13233 c 1.425867,10.40283 1.216359,13.06714 -1.006532,12.80005 -1.091269,-0.13112 -5.198412,-0.66683 -9.126984,-1.19048 z"
     id="path4011"
     style="fill:#f5deb3;fill-opacity:1" />
  <path
     d=""
     id="path4034"
     style="fill:#bdb76b;fill-opacity:1" />
  <path
     d="m 146.60103,385.15387 c -3.62211,-2.46129 -9.53808,-11.19129 -8.37325,-12.35612 0.23177,-0.23177 2.24967,1.08561 4.48421,2.92751 3.97907,3.27988 9.43783,10.83612 8.50331,11.77063 -0.25983,0.25984 -2.33626,-0.79407 -4.61427,-2.34202 z"
     id="path4036"
     style="fill:#bdb76b;fill-opacity:1" />
  <path
     d="m 495.09657,315.08009 c -3.17461,-5.11502 -3.81145,-7.34812 -4.37568,-15.34333 -0.36319,-5.14638 -0.43657,-9.35706 -0.16307,-9.35706 0.2735,0 2.38914,2.48078 4.70142,5.51285 4.20337,5.51182 4.20409,5.51467 3.87841,15.34333 l -0.32574,9.83048 -3.71534,-5.98627 z"
     id="path4038"
     style="fill:#ffc0cb;fill-opacity:1" />
  <path
     d=""
     id="path4040"
     style="fill:#ffc0cb;fill-opacity:1" />
  <path
     d="m 65.799317,267.84466 c -4.15173,-5.30654 -4.250636,-5.64949 -3.928371,-13.62151 l 0.330588,-8.17792 3.076818,5.23397 c 1.967196,3.3464 3.492216,8.16291 4.228655,13.35549 0.633511,4.46683 1.01671,8.24122 0.851553,8.38753 -0.165156,0.14631 -2.216815,-2.18359 -4.559243,-5.17756 l 0,0 z"
     id="path4042"
     style="fill:#ffc0cb;fill-opacity:1" />
  <path
     d="m 331.90938,100.88474 c -4.3706,-1.278863 -7.83472,-3.273554 -10.92272,-6.289462 -2.48721,-2.429151 -4.35494,-4.583892 -4.15052,-4.788313 0.20442,-0.204422 3.82116,0.351396 8.0372,1.235152 6.56322,1.375765 8.19545,2.225728 11.35069,5.910705 5.67573,6.628628 5.48758,6.800088 -4.31465,3.931918 z"
     id="path4044"
     style="fill:#ffc0cb;fill-opacity:1" />
  <path
     d="m 196.32734,55.777753 c -3.39523,-0.467578 -7.94092,-1.644275 -10.10152,-2.614881 l -3.92837,-1.76474 8.97913,0.0068 c 7.33387,0.0055 9.9046,0.502341 14.0299,2.711324 l 5.05076,2.704544 -3.92837,-0.09645 c -2.1606,-0.05305 -6.70629,-0.479011 -10.10153,-0.94659 z"
     id="path4046"
     style="fill:#ffc0cb;fill-opacity:1" />
</svg>
