<?xml version="1.0" encoding="UTF-8" standalone="no"?>
<!-- Created with Inkscape (http://www.inkscape.org/) -->

<svg
   xmlns:dc="http://purl.org/dc/elements/1.1/"
   xmlns:cc="http://creativecommons.org/ns#"
   xmlns:rdf="http://www.w3.org/1999/02/22-rdf-syntax-ns#"
   xmlns:svg="http://www.w3.org/2000/svg"
   xmlns="http://www.w3.org/2000/svg"
   version="1.1"
   width="744.09448"
   height="1052.3622"
   id="svg2">
  <defs
     id="defs4" />
  <metadata
     id="metadata7">
    <rdf:RDF>
      <cc:Work
         rdf:about="">
        <dc:format>image/svg+xml</dc:format>
        <dc:type
           rdf:resource="http://purl.org/dc/dcmitype/StillImage" />
        <dc:title></dc:title>
      </cc:Work>
    </rdf:RDF>
  </metadata>
  <g
     id="layer1">
    <g
       id="g3193"
       style="fill:#ffdab9;fill-opacity:1" />
    <path
       d="m 632,205.36218 -47.34525,-9.10392 43.60392,20.57067 -45.83089,-14.96607 40.6819,25.87348 -43.59376,-20.59219 37.11831,30.76825 -40.66913,-25.89356 32.96934,35.1778 -37.10311,-30.78658 28.30041,39.03256 -32.95196,-35.19406 23.18517,42.27175 -28.28113,-39.04652 17.70429,44.8443 -23.1643,-42.2832 11.94421,46.70964 -17.68215,-44.85304 5.99576,47.83832 -11.92116,-46.71553 -0.0472,48.21257 -5.97214,-47.84127 -6.08951,47.82647 0.0711,-48.21254 -12.03574,46.68613 6.11312,-47.82346 -17.79216,44.80952 12.05879,-46.68018 -23.26799,42.22623 17.81428,-44.80073 -28.37686,38.97701 23.28883,-42.21474 -33.03822,35.11311 28.39611,-38.963 -37.17855,30.69544 33.05555,-35.09679 -40.73253,25.79369 37.19369,-30.67708 -43.64416,20.48516 40.74527,-25.77358 -45.86748,14.85356 43.65426,-20.46361 -47.36744,8.98772 45.8748,-14.83092 -48.1204,2.98014 47.37188,-8.96434 -48.11447,-3.07444 48.12187,-2.95638 -47.34974,-9.08055 48.11294,3.0982 L 446,157.36218 l 47.34525,9.10392 -43.60392,-20.57066 45.83089,14.96607 -40.6819,-25.87348 43.59376,20.59219 -37.11831,-30.76826 40.66913,25.89356 -32.96934,-35.17779 37.10311,30.78657 -28.30041,-39.03256 32.95196,35.19407 -23.18517,-42.27176 28.28113,39.04653 -17.70429,-44.844308 23.1643,42.283198 -11.94421,-46.709631 17.68215,44.853041 -5.99576,-47.83832 11.92116,46.71552 0.0472,-48.212565 5.97214,47.841275 6.08951,-47.826477 -0.0711,48.212537 L 557.11312,87.038721 551,134.86218 l 17.79216,-44.809514 -12.05879,46.680184 23.26799,-42.226233 -17.81428,44.800733 28.37686,-38.97702 -23.28883,42.21474 33.03822,-35.1131 -28.39611,38.963 37.17855,-30.69544 -33.05555,35.09679 40.73253,-25.7937 -37.19369,30.67709 43.64416,-20.48516 -40.74527,25.77358 45.86748,-14.85357 -43.65426,20.46361 47.36744,-8.98772 -45.8748,14.83092 48.1204,-2.98014 -47.37188,8.96434 48.11447,3.07445 -48.12187,2.95638 47.34974,9.08055 -48.11294,-3.09821 z"
       id="path3951"
       style="fill:#ff6600;fill-opacity:1" />
    <path
       d="m 617,435.36218 -43.80962,-24.91706 36.25393,35.01136 -40.34123,-30.21139 31.57996,39.27912 -36.23664,-35.02926 26.40797,42.9274 -31.56057,-39.2947 20.81951,45.89871 -26.38678,-42.94044 14.90271,48.14616 -20.79684,-45.90898 8.75087,49.63431 -14.87893,-48.1535 2.46105,50.3397 -8.72638,-49.63862 -3.8676,50.25121 -2.43619,-50.34091 -10.13525,49.37023 3.89241,-50.2493 -16.24306,47.71064 10.15962,-49.36522 -22.09471,45.29864 16.26661,-47.70262 -27.59791,42.17225 22.11707,-45.28773 -32.66587,38.38077 27.61872,-42.15862 -37.21868,33.98401 32.68482,-38.36464 -41.18453,29.05129 37.23546,-33.96562 -44.50087,23.66042 41.19887,-29.03095 -47.11541,17.89641 44.51255,-23.63845 -48.9869,11.85018 47.12423,-17.87316 -50.08584,5.61704 48.99274,-11.82598 -50.39491,-0.70467 50.08861,-5.59232 -49.9092,-7.01527 50.39455,0.72955 -48.63641,-13.21523 49.90573,7.0399 -46.59659,-19.20678 48.62988,13.23924 -43.82191,-24.89543 46.5871,19.22978 L 449,325.36218 l 43.80962,24.91707 -36.25393,-35.01137 40.34123,30.21139 -31.57996,-39.27911 36.23664,35.02926 -26.40797,-42.92741 31.56057,39.2947 -20.81951,-45.8987 26.38678,42.94043 -14.90271,-48.14615 20.79684,45.90897 -8.75087,-49.63431 14.87893,48.15351 -2.46105,-50.33971 8.72638,49.63863 3.8676,-50.25122 2.43619,50.34092 10.13525,-49.37023 -3.89241,50.2493 16.24306,-47.71065 -10.15962,49.36522 22.09471,-45.29864 -16.26661,47.70262 27.59791,-42.17224 -22.11707,45.28773 32.66587,-38.38077 -27.61872,42.15861 37.21868,-33.984 -32.68482,38.36463 41.18453,-29.05129 -37.23546,33.96563 44.50087,-23.66043 -41.19887,29.03096 47.11541,-17.89642 -44.51255,23.63845 48.9869,-11.85017 -47.12423,17.87316 50.08584,-5.61705 -48.99274,11.82599 50.39491,0.70467 -50.08861,5.59231 49.9092,7.01527 -50.39455,-0.72954 48.63641,13.21523 -49.90573,-7.03991 46.59659,19.20679 -48.62988,-13.23924 43.82191,24.89543 -46.5871,-19.22979 z"
       id="path3953"
       style="fill:#ff6600;fill-opacity:1" />
    <path
       d="m 485,548.36218 -8.64369,-9.51741 6.01086,11.36504 -7.38269,-10.52571 4.53905,12.02878 -6.00525,-11.368 2.99565,12.50283 -4.53311,-12.03102 1.40501,12.77969 -2.98947,-12.5043 -0.20779,12.85501 -1.3987,-12.78038 -1.81731,12.7276 0.21413,-12.85491 -3.39817,12.39947 1.82359,-12.7267 -4.92544,11.8758 3.40429,-12.3978 -6.37503,11.16483 4.9313,-11.87336 -7.72409,10.27779 6.38055,-11.16168 -8.95133,9.22866 7.72916,-10.27398 -10.03741,8.03399 8.95589,-9.22424 -10.96518,6.71262 10.04137,-8.02903 -11.72004,5.28538 10.9685,-6.7072 -12.29005,3.7748 11.72264,-5.2796 -12.66625,2.20468 12.29191,-3.76873 -12.84269,0.59979 12.66734,-2.19842 -12.8166,-1.01456 12.84299,-0.59345 -12.58838,-2.6129 12.81609,1.02088 -12.16163,-4.17003 12.58709,2.61911 -11.54309,-5.66141 12.15957,4.17604 -10.74251,-7.0635 11.5403,5.6671 -9.77251,-8.35419 10.73902,7.0688 -8.64839,-9.51314 9.76838,8.35902 L 453,508.36218 l 8.64369,9.51741 -6.01086,-11.36503 7.38269,10.5257 -4.53905,-12.02878 6.00525,11.368 -2.99565,-12.50282 4.53311,12.03102 -1.40501,-12.77969 2.98947,12.5043 0.20779,-12.85501 1.3987,12.78038 1.81731,-12.7276 -0.21413,12.8549 3.39817,-12.39947 -1.82359,12.7267 4.92544,-11.87579 -3.40429,12.39779 6.37503,-11.16483 -4.9313,11.87337 7.72409,-10.27779 -6.38055,11.16168 8.95133,-9.22866 -7.72916,10.27397 10.03741,-8.03399 -8.95589,9.22424 10.96518,-6.71261 -10.04137,8.02903 11.72004,-5.28539 -10.9685,6.70721 12.29005,-3.7748 -11.72264,5.2796 12.66625,-2.20468 -12.29191,3.76873 12.84269,-0.5998 -12.66734,2.19843 12.8166,1.01455 -12.84299,0.59345 12.58838,2.6129 -12.81609,-1.02088 12.16163,4.17004 -12.58709,-2.61911 11.54309,5.66141 -12.15957,-4.17604 10.74251,7.0635 -11.5403,-5.66711 9.77251,8.3542 -10.73902,-7.06881 8.64839,9.51315 -9.76838,-8.35902 z"
       id="path3955"
       style="fill:#ff6600;fill-opacity:1" />
    <path
       d="m 438,567.36218 -8.64369,-9.51741 6.01086,11.36504 -7.38269,-10.52571 4.53905,12.02878 -6.00525,-11.368 2.99565,12.50283 -4.53311,-12.03102 1.40501,12.77969 -2.98947,-12.5043 -0.20779,12.85501 -1.3987,-12.78038 -1.81731,12.7276 0.21413,-12.85491 -3.39817,12.39947 1.82359,-12.7267 -4.92544,11.8758 3.40429,-12.3978 -6.37503,11.16483 4.9313,-11.87336 -7.72409,10.27779 6.38055,-11.16168 -8.95133,9.22866 7.72916,-10.27398 -10.03741,8.03399 8.95589,-9.22424 -10.96518,6.71262 10.04137,-8.02903 -11.72004,5.28538 10.9685,-6.7072 -12.29005,3.7748 11.72264,-5.2796 -12.66625,2.20468 12.29191,-3.76873 -12.84269,0.59979 12.66734,-2.19842 -12.8166,-1.01456 12.84299,-0.59345 -12.58838,-2.6129 12.81609,1.02088 -12.16163,-4.17003 12.58709,2.61911 -11.54309,-5.66141 12.15957,4.17604 -10.74251,-7.0635 11.5403,5.6671 -9.77251,-8.35419 10.73902,7.0688 -8.64839,-9.51314 9.76838,8.35902 L 406,527.36218 l 8.64369,9.51741 -6.01086,-11.36503 7.38269,10.5257 -4.53905,-12.02878 6.00525,11.368 -2.99565,-12.50282 4.53311,12.03102 -1.40501,-12.77969 2.98947,12.5043 0.20779,-12.85501 1.3987,12.78038 1.81731,-12.7276 -0.21413,12.8549 3.39817,-12.39947 -1.82359,12.7267 4.92544,-11.87579 -3.40429,12.39779 6.37503,-11.16483 -4.9313,11.87337 7.72409,-10.27779 -6.38055,11.16168 8.95133,-9.22866 -7.72916,10.27397 10.03741,-8.03399 -8.95589,9.22424 10.96518,-6.71261 -10.04137,8.02903 11.72004,-5.28539 -10.9685,6.70721 12.29005,-3.7748 -11.72264,5.2796 12.66625,-2.20468 -12.29191,3.76873 12.84269,-0.5998 -12.66734,2.19843 12.8166,1.01455 -12.84299,0.59345 12.58838,2.6129 -12.81609,-1.02088 12.16163,4.17004 -12.58709,-2.61911 11.54309,5.66141 -12.15957,-4.17604 10.74251,7.0635 -11.5403,-5.66711 9.77251,8.3542 -10.73902,-7.06881 8.64839,9.51315 -9.76838,-8.35902 z"
       id="path3957"
       style="fill:#ff6600;fill-opacity:1" />
    <path
       d="m 357,438.36218 -15.84588,-12.08379 12.35066,15.63877 -14.20643,-13.97452 10.29321,17.0634 -12.34293,-15.64487 8.07343,18.21894 -10.28479,-17.06849 5.72634,19.08715 -8.06444,-18.22292 3.28892,19.65433 -5.7169,-19.08997 0.79964,19.91157 -3.27922,-19.65596 -1.70223,19.85478 -0.78982,-19.91196 -4.17728,19.48488 1.71204,-19.85394 -6.58645,18.80768 4.1869,-19.48281 -8.89173,17.83387 6.59573,-18.80442 -11.0568,16.57882 8.90054,-17.82949 -13.04749,15.06231 L 314,427.36218 l -14.83241,13.30825 13.05492,-15.05586 -16.38342,11.34432 14.83898,-13.30093 -17.67605,9.20148 16.38902,-11.33623 -18.68992,6.91352 17.68059,-9.19275 -19.40904,4.51654 18.69333,-6.90429 -19.82207,2.04833 19.41127,-4.50696 -19.92248,-0.45219 19.82307,-2.03854 -19.70872,-2.94557 19.92226,0.46202 -19.18413,-5.3925 19.70726,2.9553 -18.35699,-7.75439 19.18146,5.40197 -17.24036,-9.99398 18.35317,7.76345 -15.85185,-12.07597 17.23543,10.00249 L 297,386.36218 l 15.84588,12.0838 -12.35066,-15.63878 14.20643,13.97453 -10.29321,-17.06341 12.34293,15.64487 -8.07343,-18.21893 10.28479,17.06848 -5.72634,-19.08714 8.06444,18.22292 -3.28892,-19.65434 5.7169,19.08997 -0.79964,-19.91157 3.27922,19.65596 1.70223,-19.85478 0.78982,19.91196 4.17728,-19.48487 -1.71204,19.85394 6.58645,-18.80768 -4.1869,19.48281 8.89173,-17.83388 -6.59573,18.80443 11.0568,-16.57882 -8.90054,17.82948 13.04749,-15.0623 L 340,397.36218 l 14.83241,-13.30825 -13.05492,15.05586 16.38342,-11.34431 -14.83898,13.30092 17.67605,-9.20147 -16.38902,11.33623 18.68992,-6.91353 -17.68059,9.19275 19.40904,-4.51654 -18.69333,6.9043 19.82207,-2.04833 -19.41127,4.50696 19.92248,0.45218 -19.82307,2.03854 19.70872,2.94558 -19.92226,-0.46203 19.18413,5.39251 -19.70726,-2.95531 18.35699,7.7544 -19.18146,-5.40198 17.24036,9.99399 -18.35317,-7.76345 15.85185,12.07597 -17.23543,-10.0025 z"
       id="path3959"
       style="fill:#ff6600;fill-opacity:1" />
    <path
       d="m 133,129.36218 -13.93612,-13.71233 10.09644,16.74232 -12.10762,-15.35087 7.91846,17.87573 -10.08817,-16.74731 5.61559,18.72722 -7.90963,-17.87964 3.22417,19.28337 -5.60635,-18.72999 0.7819,19.53541 -3.21465,-19.28496 -1.6727,19.47937 -0.77225,-19.53579 -4.10093,19.11611 1.68232,-19.47853 -6.464473,18.4514 4.110363,-19.11409 -8.726073,17.49569 6.473584,-18.44821 -10.850058,16.26407 8.734711,-17.49138 -12.80293,14.77594 10.858086,-16.25871 -14.553892,13.0548 12.810223,-14.76962 -16.07533,11.12777 14.560335,-13.04761 -17.343251,9.02525 16.080822,-11.11983 -18.337658,6.7804 17.347704,-9.01669 -19.04287,4.42862 18.341004,-6.77135 -19.447764,2.00699 19.045054,-4.41921 L 68.082092,101.91023 87.530844,99.912842 68.194949,97.020317 87.740682,97.476253 68.919785,92.183106 88.25425,95.085177 70.245169,87.474884 89.06345,92.777322 72.150199,82.969903 90.15552,90.589085 74.604831,78.739208 91.513238,88.554976 77.570354,74.84952 93.115191,86.707073 81,71.362182 94.936116,85.07452 84.839681,68.332192 96.947296,83.683062 89.028844,65.807333 99.117012,82.554644 93.501423,63.827426 l 7.909627,17.879635 -3.224167,-19.283368 5.606347,18.729988 -0.7819,-19.535408 3.21465,19.284957 1.6727,-19.479363 0.77225,19.535792 4.10093,-19.116117 -1.68232,19.478535 6.46447,-18.451398 -4.11036,19.11409 8.72607,-17.49569 -6.47358,18.448205 L 126.5462,66.67322 117.81149,84.1646 130.61442,69.388656 119.75633,85.647361 134.31022,72.592562 121.5,87.362184 l 16.07533,-11.127772 -14.56034,13.047612 17.34325,-9.025252 -16.08082,11.119834 18.33766,-6.7804 -17.3477,9.016689 19.04287,-4.428616 -18.34101,6.771345 19.44777,-2.00699 -19.04506,4.419214 19.54596,0.446286 -19.44875,1.997386 19.33589,2.89253 -19.54573,-0.45594 18.82089,5.29315 -19.33446,-2.90207 18.00908,7.61029 -18.81828,-5.30244 16.91325,9.80742 -18.00532,-7.61918 15.55069,11.84988 -16.90841,-9.81577 13.94289,13.70546 -15.54484,-11.85756 z"
       id="path3961"
       style="fill:#ff6600;fill-opacity:1" />
    <path
       d="m 280,103.36218 -19.19313,6.73527 20.26427,-1.76053 -19.88594,4.27662 20.32513,0.79313 -20.26513,1.75053 20.06545,3.3343 -20.32474,-0.80317 19.48934,5.82287 -20.06381,-3.3442 18.60586,8.21962 -19.48646,-5.83249 17.42895,10.48673 -18.60179,-8.2288 15.97718,12.58848 -17.42377,-10.49535 14.27344,14.49169 -15.97097,-12.59636 12.34461,16.16635 -14.26629,-14.49873 10.22108,17.58606 -12.33662,-16.17244 7.93637,18.72843 -10.2124,-17.5911 5.52649,19.57544 -7.92712,-18.73235 3.02946,20.11374 -5.51683,-19.57817 0.48466,20.33483 -3.01954,-20.11523 -2.06779,20.23522 -0.47462,-20.33506 -4.58763,19.8165 2.07778,-20.2342 -7.03513,19.08526 4.59742,-19.81424 -9.37167,18.05303 7.04455,-19.08178 -11.56042,16.73609 9.38058,-18.0484 -13.56684,15.15522 11.56867,-16.73038 -15.35932,13.33534 13.57433,-15.14852 -16.90957,11.30515 15.3659,-13.32776 -18.19314,9.09668 16.91515,-11.2968 -19.18981,6.74474 18.19764,-9.0877 -19.88383,4.28644 19.19313,-6.73527 -20.26427,1.76054 19.88594,-4.27662 -20.32513,-0.79314 20.26513,-1.75053 -20.06545,-3.33429 20.32474,0.80317 -19.48934,-5.82288 20.06381,3.3442 -18.60586,-8.21962 19.48646,5.8325 -17.42895,-10.486739 18.60179,8.228799 -15.97718,-12.58847 17.42377,10.49534 -14.27344,-14.491682 15.97097,12.59636 -12.34461,-16.166348 14.26629,14.498726 -10.22108,-17.58606 12.33662,16.17244 -7.93637,-18.728431 10.2124,17.591104 -5.52649,-19.575443 7.92712,18.732347 -3.02946,-20.113738 5.51683,19.578168 -0.48466,-20.334827 3.01954,20.115231 2.06779,-20.235225 0.47462,20.335064 4.58763,-19.8165 -2.07778,20.234201 7.03513,-19.085258 -4.59742,19.814233 9.37167,-18.053029 -7.04455,19.081782 11.56042,-16.736094 -9.38058,18.048401 13.56684,-15.155221 -11.56867,16.730386 15.35932,-13.335341 -13.57433,15.148524 16.90957,-11.305156 -15.3659,13.327756 18.19314,-9.096678 -16.91515,11.296808 19.18981,-6.744745 -18.19764,9.087695 z"
       id="path3963"
       style="fill:#ff6600;fill-opacity:1" />
    <path
       d="m 127,257.36218 -9.58421,-16.49982 5.18883,18.36239 -7.44066,-17.57094 2.8465,18.86793 -5.17977,-18.36495 0.45928,19.07591 -2.83719,-18.86933 -1.93519,18.98305 -0.44986,-19.07614 -4.29914,18.59083 1.94456,-18.9821 -6.595285,17.90541 4.308315,-18.5887 -8.787422,16.9376 6.604132,-17.90215 -10.840984,15.7027 8.795787,-16.93327 -12.723565,14.22014 10.848731,-15.69734 -14.405492,12.51332 12.730584,-14.21385 -15.860236,10.60916 14.411668,-12.50621 -17.064854,8.5377 15.865472,-10.60134 -18.00035,6.33158 17.069068,-8.52927 -18.651969,4.02561 18.003473,-6.32269 -19.009435,1.65616 18.653954,-4.01641 -19.067111,-0.73941 19.010251,-1.64677 -18.824088,-3.12333 19.066744,0.74883 -18.284197,-5.45799 18.822543,3.13262 -17.455954,-7.70656 18.281501,5.46701 -16.35242,-9.83361 17.452147,7.71519 -14.990998,-11.80557 16.347563,9.84168 -13.393159,-13.59135 14.985168,11.81297 -11.584103,-15.16279 13.386448,13.59796 -9.592358,-16.49509 11.576621,15.1685 -7.449341,-17.56727 9.584211,16.49983 -5.188831,-18.36239 7.440661,17.57094 -2.8465,-18.86793 5.17977,18.36495 -0.45928,-19.07592 2.83719,18.86934 1.93519,-18.98306 0.44986,19.07614 4.29914,-18.59083 -1.94456,18.9821 6.59528,-17.9054 -4.30831,18.5887 8.78742,-16.93761 -6.60413,17.90215 10.84098,-15.70269 -8.79578,16.93326 12.72356,-14.22013 -10.84873,15.69734 14.40549,-12.51333 -12.73058,14.21386 15.86023,-10.60917 -14.41166,12.50621 17.06485,-8.53769 L 127,214.86218 l 18.00035,-6.33158 -17.06907,8.52927 18.65197,-4.02561 -18.00347,6.32269 19.00943,-1.65615 -18.65395,4.0164 19.06711,0.73942 -19.01025,1.64677 18.82409,3.12333 -19.06675,-0.74883 18.2842,5.45798 -18.82254,-3.13262 17.45595,7.70656 -18.2815,-5.46701 16.35242,9.83361 -17.45215,-7.71518 14.991,11.80557 -16.34756,-9.84168 13.39316,13.59135 -14.98517,-11.81297 11.5841,15.16278 -13.38645,-13.59796 9.59236,16.4951 -11.57662,-15.1685 z"
       id="path3965"
       style="fill:#ff6600;fill-opacity:1" />
    <path
       d="m 119,357.36218 -10.55479,-15.93605 6.26897,18.05717 -8.47424,-17.13326 3.95637,18.70049 -6.26005,-18.06025 1.58138,19.04889 -3.94714,-18.70244 -0.81854,19.09689 -1.571986,-19.04967 -3.205565,18.84371 0.827972,-19.09648 -5.542032,18.29336 3.214867,-18.84213 -7.791097,17.45452 5.551061,-18.29063 -9.917292,16.3404 7.799713,-17.45067 -11.887087,14.96858 9.925358,-16.3355 -13.669414,13.36071 11.894475,-14.96271 -15.236167,11.54211 13.676008,-13.35395 -16.562636,9.54151 15.241863,-11.5346 -17.627903,7.39042 16.567344,-9.53333 -18.415166,5.12279 17.631548,-7.38172 -18.912012,2.77436 18.417693,-5.1137 -19.110604,0.38218 18.913379,-2.76502 -19.00781,-2.01603 19.11079,-0.37274 -18.605252,-4.38245 19.006812,2.02542 -17.909278,-6.67975 18.603086,4.39163 -16.930864,-8.8717 17.905978,6.68859 -15.68544,-10.92375 16.926482,8.88006 L 70.186137,300.67393 85.866182,311.60541 73.390154,297.12405 87.576479,309.93457 77.013824,294.00373 89.482702,308.49125 81,291.36218 l 10.554789,15.93605 -6.268971,-18.05716 8.474244,17.13325 -3.956375,-18.70049 6.260056,18.06026 -1.581386,-19.0489 3.947143,18.70244 0.818545,-19.09689 1.571985,19.04968 3.20556,-18.84372 -0.82797,19.09649 5.54203,-18.29337 -3.21487,18.84213 7.7911,-17.45451 -5.55106,18.29062 9.91729,-16.34039 -7.79971,17.45066 11.88709,-14.96858 -9.92536,16.3355 13.66941,-13.3607 -11.89447,14.96271 15.23616,-11.54212 -13.676,13.35395 16.56263,-9.5415 -15.24186,11.53459 17.6279,-7.39042 -16.56734,9.53333 18.41516,-5.12278 -17.63154,7.38171 18.91201,-2.77435 -18.4177,5.11369 19.11061,-0.38217 -18.91338,2.76501 19.00781,2.01604 -19.11079,0.37274 18.60525,4.38244 -19.00681,-2.02541 17.90928,6.67974 -18.60309,-4.39163 16.93087,8.8717 -17.90598,-6.68858 15.68544,10.92374 -16.92648,-8.88006 14.19264,12.80352 -15.68004,-10.93149 12.47603,14.48137 -14.18633,-12.81052 10.56266,15.93084 -12.46888,-14.48753 z"
       id="path3967"
       style="fill:#ff6600;fill-opacity:1" />
    <path
       d="m 149,461.36218 -21.82766,-19.25324 16.3657,24.06861 -19.24247,-21.83716 13.22006,25.92999 -16.35382,-24.07669 9.86592,27.38244 -13.20725,-25.93652 6.35619,28.40305 -9.8524,-27.38731 2.74623,28.97573 -6.34217,-28.40619 -0.90705,29.09144 -2.73192,-28.97708 -4.54602,28.74836 0.92141,-29.09098 -8.113296,27.9519 4.56021,-28.74611 -11.552623,26.71462 8.127095,-27.94789 -14.809757,25.05605 11.565809,-26.70892 -17.833332,23.00232 14.822125,-25.04874 -20.575666,20.58583 17.844686,-22.99351 -22.993509,17.84469 20.585826,-20.57567 -25.04873,14.82213 23.002315,-17.83334 -26.708918,11.56581 25.056045,-14.80975 -27.947891,8.12709 26.714625,-11.55262 -28.746109,4.56021 27.9519,-8.1133 -29.090983,0.92141 28.748357,-4.54602 -28.977076,-2.73192 29.091435,-0.90705 -28.406182,-6.34217 28.975723,2.74623 -27.387305,-9.8524 28.403047,6.35619 -25.936515,-13.20725 27.382438,9.86592 -24.07669,-16.35381 25.929991,13.22005 -21.837162,-19.24247 24.068614,16.3657 -19.253248,-21.82766 21.82766,19.25325 -16.3657,-24.06861 19.24247,21.83716 -13.220054,-25.92999 16.353815,24.07669 -9.86592,-27.38244 13.207251,25.93651 -6.356195,-28.40304 9.852404,27.3873 -2.746232,-28.97572 6.342172,28.40618 0.90705,-29.09143 2.73192,28.97707 4.54602,-28.74836 -0.92141,29.09099 8.1133,-27.9519 -4.56021,28.74611 11.55262,-26.71463 -8.1271,27.94789 14.80976,-25.05604 -11.56581,26.70892 17.83333,-23.00232 -14.82212,25.04873 20.57567,-20.58583 -17.84469,22.99351 22.99351,-17.84468 -20.58583,20.57566 25.04873,-14.82212 -23.00231,17.83333 26.70892,-11.56581 -25.05605,14.80976 27.94789,-8.1271 -26.71462,11.55263 28.7461,-4.56021 -27.9519,8.11329 29.09099,-0.92141 -28.74836,4.54602 28.97708,2.73192 -29.09144,0.90705 28.40618,6.34217 -28.97572,-2.74622 27.38731,9.8524 -28.40305,-6.3562 25.93651,13.20725 -27.38243,-9.86592 24.07669,16.35382 -25.93,-13.22006 21.83717,19.24247 -24.06862,-16.3657 z"
       id="path3969"
       style="fill:#ff6600;fill-opacity:1" />
    <path
       d="m 389,491.36218 -27.9938,-5.28707 25.80544,12.07001 -27.11041,-8.75394 24.08918,15.20911 -25.79948,-12.08274 21.99303,18.10835 -24.08167,-15.221 19.55002,20.72203 -21.98408,-18.11922 16.79871,23.0089 -19.53979,-20.73168 13.78246,24.9329 -16.78735,-23.01718 10.54887,26.4637 -13.77015,-24.9397 7.1489,27.57714 -10.5358,-26.4689 3.6362,28.25569 -7.13529,-27.58067 0.0662,28.48862 -3.62225,-28.25748 -3.50494,28.27227 -0.0521,-28.48865 -7.02076,27.61005 3.5189,-28.27054 -10.42585,26.5124 7.03438,-27.60658 -13.66652,24.99664 10.43894,-26.50725 -16.69167,23.08666 13.67886,-24.98989 -19.45358,20.8126 16.70307,-23.07842 -21.90869,18.2103 19.46385,-20.80299 -24.01829,15.32082 21.91767,-18.19948 -25.7491,12.18972 24.02585,-15.30896 -27.07385,8.86638 25.75513,-12.17701 -27.97162,5.40322 27.07822,-8.85302 -28.42825,1.85484 27.97428,-5.38941 -28.43656,-1.72279 28.42916,-1.8408 -27.9964,-5.27326 28.4357,1.73684 L 279,463.36218 l 27.9938,5.28708 -25.80544,-12.07001 27.11041,8.75394 -24.08918,-15.20911 25.79948,12.08274 -21.99303,-18.10836 24.08167,15.221 -19.55002,-20.72202 21.98408,18.11921 -16.79871,-23.00889 19.53979,20.73167 -13.78246,-24.9329 16.78735,23.01719 -10.54887,-26.4637 13.77015,24.9397 -7.1489,-27.57715 10.5358,26.4689 -3.6362,-28.25568 7.13529,27.58067 -0.0662,-28.48862 3.62225,28.25748 3.50494,-28.27227 0.0521,28.48865 7.02076,-27.61005 -3.5189,28.27053 10.42585,-26.5124 -7.03438,27.60658 13.66652,-24.99664 -10.43894,26.50726 16.69167,-23.08667 -13.67886,24.98989 19.45358,-20.81259 -16.70307,23.07842 21.90869,-18.21031 -19.46385,20.80299 24.01829,-15.32082 -21.91767,18.19949 25.7491,-12.18973 -24.02585,15.30897 27.07385,-8.86639 -25.75513,12.17701 27.97162,-5.40322 -27.07822,8.85302 28.42825,-1.85484 -27.97428,5.38941 28.43656,1.72279 -28.42916,1.84081 27.9964,5.27325 -28.4357,-1.73683 z"
       id="path3971"
       style="fill:#ff6600;fill-opacity:1" />
    <path
       d="m 378,656.36218 -12.62286,-24.85962 6.05739,27.2148 -9.40759,-26.24566 2.5987,27.7594 -6.04395,-27.21779 -0.90096,27.86621 -2.585,-27.76068 -4.38642,27.53356 0.91471,-27.86576 -7.80269,26.76668 4.40001,-27.53139 -11.09593,25.57769 7.81591,-26.76283 -14.21417,23.98531 11.10856,-25.57221 -17.10824,22.01467 14.226,-23.97829 -19.7325,19.69685 17.1191,-22.00622 -22.04558,17.06839 19.74223,-19.6871 -24.01098,14.17076 22.054,-17.05751 -25.59771,11.04965 24.01797,-14.15891 -26.78075,7.75427 25.60316,-11.037 -27.54145,4.3366 26.78458,-7.74104 -27.86779,0.85055 27.54358,-4.32301 -27.75465,-2.64892 27.86821,-0.83679 -27.2038,-6.10661 27.75334,2.66262 -26.22393,-9.468 27.20078,6.12004 -24.83049,-12.68007 26.21925,9.48094 -23.04546,-15.69217 24.82423,12.69233 -20.89699,-18.4568 23.03771,15.70355 -18.41896,-20.93035 20.88787,18.46711 -15.65045,-23.07381 18.40863,20.93943 -12.63514,-24.85338 15.63907,23.08153 L 334,554.36218 l 12.62286,24.85963 -6.05739,-27.21481 9.40759,26.24566 -2.5987,-27.75939 6.04395,27.21779 0.90096,-27.86622 2.585,27.76068 4.38642,-27.53356 -0.91471,27.86577 7.80269,-26.76669 -4.40001,27.53139 11.09593,-25.57768 -7.81591,26.76283 14.21417,-23.98531 -11.10856,25.5722 17.10824,-22.01467 -14.226,23.97829 19.7325,-19.69684 -17.1191,22.00622 22.04558,-17.0684 -19.74223,19.68711 24.01098,-14.17076 -22.054,17.0575 25.59771,-11.04964 -24.01797,14.1589 26.78075,-7.75427 -25.60316,11.03701 27.54145,-4.33661 -26.78458,7.74105 27.86779,-0.85055 -27.54358,4.32301 27.75465,2.64891 -27.86821,0.8368 27.2038,6.10661 -27.75334,-2.66262 26.22393,9.468 -27.20078,-6.12004 24.83049,12.68007 -26.21925,-9.48094 23.04546,15.69216 -24.82423,-12.69232 20.89699,18.45679 -23.03771,-15.70354 18.41896,20.93034 -20.88787,-18.4671 15.65045,23.07381 -18.40863,-20.93944 12.63514,24.85339 -15.63907,-23.08153 z"
       id="path3973"
       style="fill:#ff6600;fill-opacity:1" />
    <path
       d="m 113,569.36218 -7.89288,-13.58809 4.27316,15.12197 -6.12761,-14.47019 2.34418,15.5383 -4.26569,-15.12408 0.37822,15.70958 -2.336501,-15.53945 -1.593688,15.6331 -0.370471,-15.70976 -3.540469,15.31009 1.601406,-15.63231 -5.431415,14.74562 3.548027,-15.30834 -7.236704,13.94862 5.438694,-14.74295 -8.927866,12.93163 7.243589,-13.94504 -10.47823,11.7107 8.934249,-12.92722 -11.863346,10.30509 10.48401,-11.70553 -13.06137,8.73696 11.868432,-10.29923 -14.053409,7.03104 L 85,548.36218 l -14.823816,5.21424 14.056878,-7.0241 -15.360444,3.31521 14.826389,-5.20692 -15.654828,1.36389 15.362079,-3.30763 -15.702326,-0.60893 15.655499,-1.35616 -15.502189,-2.57216 15.702024,0.61669 -15.057574,-4.49481 15.500918,2.5798 -14.375491,-6.34658 15.055353,4.50224 -13.466698,-8.09826 14.372356,6.35368 -12.345527,-9.72223 13.462698,8.10491 -11.02966,-11.19288 12.340726,9.72833 -9.539849,-12.487 11.024133,11.19832 -7.899588,-13.58419 9.533683,12.4917 -6.134747,-14.46716 7.892882,13.5881 -4.273157,-15.12197 6.127604,14.47018 -2.344176,-15.5383 4.265691,15.12408 -0.378227,-15.70957 2.336505,15.53945 1.593689,-15.63311 0.37047,15.70976 3.54047,-15.31009 -1.60141,15.63232 5.43142,-14.74563 -3.54803,15.30834 7.2367,-13.94862 -5.43869,14.74295 8.92787,-12.93163 -7.24359,13.94505 10.47823,-11.71071 L 109.44,529.7 l 11.86334,-10.30509 -10.48401,11.70553 13.06138,-8.73696 -11.86844,10.29924 14.05341,-7.03105 -13.06568,8.73051 14.82382,-5.21424 -14.05688,7.02411 15.36044,-3.31521 -14.82639,5.20692 15.65483,-1.36389 -15.36208,3.30762 15.70233,0.60893 -15.6555,1.35617 15.50219,2.57215 -15.70203,-0.61668 15.05758,4.49481 -15.50092,-2.57981 14.37549,6.34658 -15.05535,-4.50224 13.4667,8.09826 -14.37236,-6.35367 12.34553,9.72223 -13.4627,-8.10491 11.02966,11.19287 -12.34073,-9.72833 9.53985,12.487 -11.02413,-11.19832 7.89959,13.5842 -9.53369,-12.49171 z"
       id="path3975"
       style="fill:#ff6600;fill-opacity:1" />
    <path
       d="m 199,672.36218 -34.1339,-23.00864 27.35469,30.76104 -30.98099,-27.10533 23.28361,33.94693 -27.3395,-30.77454 18.84533,36.59746 -23.26685,-33.95842 14.10986,38.67082 -18.82726,-36.60675 9.15185,40.13432 -14.09076,-38.67778 4.04952,40.96488 -9.13204,-40.13883 -1.11666,41.1494 -4.0293,-40.96688 -6.26525,40.68498 1.13698,-41.14885 -11.31503,39.57891 6.28534,-40.68187 -16.18636,37.84867 11.33456,-39.57332 -20.802417,35.52154 16.205037,-37.84068 -25.090412,32.6342 L 109,654.86218 80.017281,684.09439 105.12381,651.47258 72.705853,676.84179 101.703,647.62389 66.361071,668.73001 98.791544,643.3768 l -37.708549,16.51018 35.352348,-21.08867 -39.48048,11.65385 37.716696,-16.49156 -40.629779,6.61374 39.486228,-11.63436 -41.138323,1.46933 40.633039,-6.59368 -40.99809,-3.69826 41.139043,-1.44901 -40.211293,-8.80752 40.996259,3.71849 -38.790341,-13.77788 40.206941,8.82737 -36.757641,-18.53095 38.783534,13.79703 -34.145252,-22.99179 36.748488,18.5491 -30.994371,-27.09003 34.133899,23.00865 -27.354693,-30.76104 30.980993,27.10532 -23.28361,-33.94693 27.3395,30.77454 -18.845333,-36.59746 23.266853,33.95842 -14.10986,-38.67082 18.82726,36.60676 -9.15185,-40.13433 14.09076,38.67779 -4.04952,-40.96489 9.13204,40.13884 1.11666,-41.14941 4.0293,40.96688 6.26525,-40.68497 -1.13698,41.14885 11.31503,-39.57892 -6.28534,40.68188 16.18636,-37.84868 -11.33456,39.57333 20.80242,-35.52154 -16.20504,37.84068 25.09041,-32.63421 L 159,589.86219 l 28.98272,-29.23222 -25.10653,32.62182 32.41796,-25.36921 -28.99715,29.2179 35.34193,-21.10612 -32.43047,25.3532 37.70855,-16.51017 -35.35235,21.08867 39.48048,-11.65385 -37.7167,16.49155 40.62978,-6.61374 -39.48623,11.63436 41.13832,-1.46933 -40.63303,6.59368 40.99809,3.69826 -41.13905,1.44902 40.2113,8.80752 -40.99626,-3.7185 38.79034,13.77788 -40.20694,-8.82737 36.75764,18.53096 -38.78354,-13.79703 34.14526,22.99179 -36.74849,-18.5491 z"
       id="path3977"
       style="fill:#ff6600;fill-opacity:1" />
    <path
       d="m 689,497.36218 -35.81854,14.31554 38.25091,-4.97696 -37.33031,9.71339 38.57307,-0.1436 -38.25337,4.95807 38.28692,4.69202 -38.57314,0.12456 37.39694,9.45364 -38.28459,-4.71091 35.9172,14.06617 -37.39227,-9.4721 33.87102,18.45688 -35.91025,-14.08391 31.29068,22.55651 -33.86191,-18.4736 28.21687,26.3004 -31.27954,-22.57195 24.69805,29.62953 -28.20388,-26.31433 20.78974,32.49137 -24.68342,-29.64171 16.55355,34.84081 -20.77369,-32.50163 12.05631,36.6408 L 628,557.86218 l 7.36893,37.86293 -12.03822,-36.64674 2.56535,38.48794 -7.35024,-37.86657 -2.2787,38.50598 -2.54635,-38.4892 -7.08681,37.91674 2.29771,-38.50484 -11.78316,36.72955 7.10553,-37.91325 -16.29367,34.96311 11.80129,-36.72373 -20.54724,32.64527 16.31094,-34.95505 -24.47676,29.8126 20.56335,-32.63513 -28.02025,26.50977 24.49147,-29.80051 -31.12187,22.78886 28.03334,-26.49593 -33.73266,18.70856 31.13311,-22.77349 -35.81147,14.33321 33.74189,-18.6919 -37.32551,9.73182 35.81854,-14.31553 -38.25091,4.97696 37.33031,-9.7134 -38.57307,0.14361 38.25337,-4.95808 -38.28692,-4.69201 38.57314,-0.12457 -37.39694,-9.45364 38.28459,4.71092 -35.9172,-14.06617 37.39227,9.4721 -33.87102,-18.45688 35.91025,14.0839 -31.29068,-22.5565 33.86191,18.4736 -28.21687,-26.30041 31.27954,22.57195 -24.69805,-29.62952 28.20388,26.31433 -20.78974,-32.49138 24.68342,29.64172 -16.55355,-34.84082 20.77369,32.50164 -12.05631,-36.6408 16.53635,34.84898 -7.36893,-37.86292 12.03822,36.64674 -2.56535,-38.48794 7.35024,37.86656 2.2787,-38.50597 2.54635,38.4892 7.08681,-37.91675 -2.29771,38.50485 11.78316,-36.72955 -7.10553,37.91324 16.29367,-34.9631 -11.80129,36.72372 20.54724,-32.64527 -16.31094,34.95506 24.47676,-29.8126 -20.56335,32.63512 28.02025,-26.50977 -24.49147,29.80052 31.12187,-22.78887 -28.03334,26.49594 33.73266,-18.70857 -31.13311,22.7735 35.81147,-14.33322 -33.74189,18.69191 z"
       id="path3979"
       style="fill:#ff6600;fill-opacity:1" />
    <path
       d="m 683,258.36218 -7.48073,17.06628 11.48268,-14.6754 -9.56072,15.99412 13.23145,-13.12051 -11.48992,14.66972 14.77155,-11.35871 -13.23792,13.11398 16.07869,-9.41778 -14.77715,11.35142 17.13227,-7.32833 -16.08334,9.40985 17.91566,-5.1233 -17.13589,7.31987 18.41651,-2.83747 -17.91819,5.11445 18.62693,-0.5069 -18.41791,2.82838 18.54357,1.83168 -18.62717,0.4977 18.16778,4.14135 -18.54266,-1.84082 17.50547,6.38572 -18.16573,-4.15032 16.56709,8.52939 -17.50232,-6.39437 15.36744,10.53854 -16.56288,-8.53756 13.92544,12.38149 -15.36224,-10.54613 12.26382,14.02918 -13.91933,-12.38836 10.40879,15.45562 -12.25689,-14.03524 8.38962,16.63832 -10.40116,-15.46076 6.23812,17.55862 -8.3814,-16.64246 3.98826,18.20201 -6.22946,-17.5617 1.67549,18.55834 -3.97926,-18.20397 -0.6637,18.62199 -1.66633,-18.55916 -2.99242,18.39197 0.67289,-18.62166 -5.27395,17.87189 3.0015,-18.39049 -7.4723,17.06997 5.28277,-17.86929 -9.55282,15.99884 7.48073,-17.06628 -11.48268,14.6754 9.56072,-15.99412 -13.23145,13.12052 11.48992,-14.66973 -14.77155,11.35872 13.23792,-13.11398 -16.07869,9.41778 14.77715,-11.35142 -17.13227,7.32832 16.08334,-9.40984 -17.91566,5.1233 17.13589,-7.31987 -18.41651,2.83747 17.91819,-5.11445 -18.62693,0.50689 18.41791,-2.82838 -18.54357,-1.83167 18.62717,-0.4977 -18.16778,-4.14136 18.54266,1.84083 -17.50547,-6.38573 18.16573,4.15033 -16.56709,-8.52939 17.50232,6.39436 -15.36744,-10.53854 16.56288,8.53757 -13.92544,-12.38149 15.36224,10.54612 -12.26382,-14.02918 13.91933,12.38837 -10.40879,-15.45562 12.25689,14.03523 -8.38962,-16.63832 10.40116,15.46076 -6.23812,-17.55861 8.3814,16.64245 -3.98826,-18.202 6.22946,17.56169 -1.67549,-18.55834 3.97926,18.20397 0.6637,-18.62199 1.66633,18.55916 2.99242,-18.39197 -0.67289,18.62167 5.27395,-17.8719 -3.0015,18.39049 7.4723,-17.06997 -5.28277,17.86929 z"
       id="path3981"
       style="fill:#ff6600;fill-opacity:1" />
    <path
       d="m 433,69.362182 -15.46512,18.069591 19.46624,-13.665494 -17.6079,15.988813 21.02548,-11.117971 -19.47298,13.655882 22.25314,-8.395111 -21.03097,11.107589 23.12986,-5.539855 -22.25729,8.384124 23.6418,-2.597232 -23.13259,5.528432 23.7809,0.38635 -23.64308,2.58556 23.54495,3.36384 -23.7807,-0.39809 22.93769,6.28828 -23.54328,-3.37546 21.96869,9.11355 -22.93459,-6.2996 20.65323,11.79509 -21.96418,-9.12439 19.01205,14.29062 -20.6474,-11.80529 17.07105,16.56078 -19.005,-14.30001 14.86082,18.56976 -17.06287,-16.5692 12.41623,20.28589 -14.85165,-18.5771 9.77583,21.6821 -12.40622,-20.29202 6.98126,22.73636 -9.76512,-21.68692 4.07659,23.43207 -6.97004,-22.73981 1.10763,23.75823 -4.06502,-23.43408 -1.8788,23.70971 -1.0959,-23.75877 -4.8356,23.28727 1.89051,-23.70877 -7.71615,22.49758 4.8471,-23.28488 -10.47499,21.35309 7.72725,-22.49377 -13.06865,19.87186 10.48553,-21.34792 -15.4562,18.07722 13.07846,-19.8654 -17.6,15.9975 15.46512,-18.06959 -19.46624,13.6655 17.6079,-15.98882 -21.02548,11.11797 19.47298,-13.65588 -22.25314,8.39511 21.03097,-11.10759 -23.12986,5.53986 22.25729,-8.38413 -23.6418,2.59724 23.13259,-5.52844 -23.7809,-0.38635 23.64308,-2.58556 -23.54495,-3.363839 23.7807,0.398089 -22.93769,-6.288278 23.54328,3.375463 -21.96869,-9.113549 22.93459,6.299603 -20.65323,-11.795094 21.96418,9.124394 -19.01205,-14.290621 20.6474,11.805288 L 363.995,72.562178 383,86.862184 368.13918,68.292423 l 17.06287,16.569203 -12.41623,-20.285888 14.85165,18.577096 -9.77583,-21.682095 12.40622,20.292016 -6.98126,-22.736362 9.76512,21.686918 -4.07659,-23.432062 6.97004,22.739806 -1.10763,-23.758226 4.06502,23.434072 1.8788,-23.709707 1.0959,23.758769 4.8356,-23.287272 -1.89051,23.708776 7.71615,-22.497583 -4.8471,23.284882 10.47499,-21.353095 -7.72725,22.493772 13.06865,-19.871855 -10.48553,21.347921 15.4562,-18.077223 -13.07846,19.8654 z"
       id="path3983"
       style="fill:#ff6600;fill-opacity:1" />
    <path
       d="m 687,67.362183 -20.79028,5.326494 21.46176,5.84e-4 -21.29392,2.67878 21.29245,2.690451 -21.46176,-0.01118 20.78736,5.337889 -21.29113,-2.700963 19.95443,7.901144 -20.78472,-5.34815 18.8068,10.339794 -19.95052,-7.910994 17.36259,12.615378 -18.8017,-10.349076 15.64455,14.692015 -17.35635,-12.623952 13.67979,16.536942 -15.6373,-14.699732 11.4993,18.121072 -13.67163,-16.54369 9.13745,19.41943 -11.49035,-18.126751 6.63149,20.411531 -9.12785,-19.423942 4.02096,21.081722 L 649,96.362182 l 1.34701,21.419448 -4.01055,-21.083706 -1.34818,21.419376 -1.33643,-21.420112 -4.02211,21.081502 1.35875,-21.418704 -6.6326,20.411164 4.03251,-21.079513 -9.1385,19.418933 6.64268,-20.40789 -11.50028,18.12045 9.14809,-19.414418 -13.68069,16.536198 11.50922,-18.114771 -15.64535,14.691161 13.68885,-16.529443 -17.36327,12.614433 15.6526,-14.683434 -18.80736,10.338769 17.36949,-12.60586 -19.95485,7.900058 18.81246,-10.329484 -20.78764,5.336757 L 624.2926,80.67289 603,83.362183 l 20.79028,-5.326494 -21.46176,-5.84e-4 21.29392,-2.678781 -21.29245,-2.690451 21.46176,0.01118 -20.78736,-5.337888 21.29113,2.700962 -19.95443,-7.901144 20.78472,5.34815 -18.8068,-10.339793 19.95052,7.910993 -17.36259,-12.615378 18.8017,10.349076 -15.64455,-14.692011 17.35635,12.623948 -13.67979,-16.536942 15.6373,14.699732 -11.4993,-18.121075 13.67163,16.543693 -9.13745,-19.419429 11.49035,18.12675 -6.63149,-20.411526 9.12785,19.423937 -4.02096,-21.081722 6.62142,20.414798 -1.34701,-21.419446 4.01055,21.083705 1.34818,-21.419373 1.33643,21.420108 4.02211,-21.081503 -1.35875,21.418705 6.6326,-20.411166 -4.03251,21.079515 9.1385,-19.418932 -6.64268,20.407889 11.50028,-18.12045 -9.14809,19.414419 13.68069,-16.536198 -11.50922,18.11477 15.64535,-14.691159 -13.68885,16.529442 17.36327,-12.614434 -15.6526,14.683435 18.80736,-10.33877 -17.36949,12.60586 19.95485,-7.900058 -18.81246,10.329484 20.78764,-5.336757 -19.95875,7.890206 z"
       id="path3985"
       style="fill:#ff6600;fill-opacity:1" />
    <path
       d="m 488,638.36218 -4.82283,-4.72731 3.49853,5.77646 -4.19231,-5.2945 2.74696,6.16939 -3.49568,-5.77818 1.95207,6.46503 -2.74391,-6.17075 1.12639,6.65871 -1.94888,-6.46599 0.28296,6.74738 -1.12311,-6.65926 -0.56494,6.72963 -0.27963,-6.74751 -1.40394,6.60576 0.56827,-6.72936 -2.22079,6.37772 1.4072,-6.60507 -3.00262,6.04909 2.22394,-6.37662 -3.73709,5.62506 3.0056,-6.0476 -4.41263,5.11232 3.73987,-5.62322 -5.01858,4.51897 4.41515,-5.11015 -5.54538,3.85434 5.02081,-4.51649 -5.98473,3.12892 5.54728,-3.85159 -6.3297,2.35416 5.98628,-3.12597 -6.57484,1.54228 6.33086,-2.35104 -6.7163,0.70608 6.5756,-1.53904 -6.75183,-0.14127 6.71665,-0.70275 -6.68089,-0.98639 6.75176,0.1446 -6.50458,-1.81594 6.6804,0.98968 -6.22569,-2.61686 6.50368,1.81915 -5.84861,-3.37651 6.22439,2.61994 -5.37931,-4.08292 5.84695,3.3794 -4.82516,-4.72493 5.37729,4.08558 -4.19493,-5.29243 4.82283,4.72731 -3.49853,-5.77645 4.19231,5.29449 -2.74696,-6.16939 3.49568,5.77818 -1.95207,-6.46502 2.74391,6.17074 -1.12639,-6.65871 1.94888,6.46599 -0.28296,-6.74737 1.12311,6.65926 0.56494,-6.72964 0.27963,6.74752 1.40394,-6.60577 -0.56827,6.72936 2.22079,-6.37772 -1.4072,6.60507 3.00262,-6.04908 -2.22394,6.37662 3.73709,-5.62507 -3.0056,6.04761 4.41263,-5.11233 -3.73987,5.62322 5.01858,-4.51896 -4.41515,5.11014 5.54538,-3.85433 -5.02081,4.51648 5.98473,-3.12892 -5.54728,3.8516 6.3297,-2.35417 -5.98628,3.12597 6.57484,-1.54228 -6.33086,2.35104 6.7163,-0.70607 -6.5756,1.53903 6.75183,0.14127 -6.71665,0.70276 6.68089,0.98638 -6.75176,-0.1446 6.50458,1.81595 -6.6804,-0.98969 6.22569,2.61687 -6.50368,-1.81916 5.84861,3.37652 -6.22439,-2.61994 5.37931,4.08292 -5.84695,-3.37941 4.82516,4.72493 -5.37729,-4.08557 z"
       id="path3987"
       style="fill:#ff6600;fill-opacity:1" />
    <path
       d="m 398,735.36218 -14.34425,-20.22516 8.87524,23.15264 -11.69626,-21.86349 5.90346,24.08244 -8.86381,-23.15702 2.83858,24.63244 -5.89157,-24.08535 -0.27107,24.79398 -2.82642,-24.63384 -3.37644,24.56449 0.28331,-24.79384 -6.42856,23.94762 3.38856,-24.56283 -9.3793,22.95307 6.44038,-23.94444 -12.18212,21.59654 9.39063,-22.94843 -14.79283,19.89942 12.19278,-21.59053 -17.17024,17.88848 14.80265,-19.89212 -19.27687,15.59542 17.17907,-17.88 -21.07949,13.05641 19.28457,-15.5859 -22.54967,10.3115 21.08593,-13.046 -23.66424,7.40396 22.55477,-10.30036 -24.4056,4.37966 23.66789,-7.39228 -24.76208,1.2863 24.40776,-4.36762 -24.72803,-1.82736 24.76271,-1.27407 -24.30402,-4.91219 24.72713,1.83957 -23.49671,-7.91956 24.30158,4.92419 -22.31884,-10.80203 23.4928,7.93115 -20.78901,-13.51414 22.31351,10.81305 -18.9313,-16.01314 20.78233,13.52441 -16.77505,-18.25959 18.9234,16.02248 -14.35424,-20.21808 16.76603,18.26787 L 346,651.36218 l 14.34425,20.22517 -8.87524,-23.15265 11.69626,21.86349 -5.90346,-24.08244 8.86381,23.15703 -2.83858,-24.63245 5.89157,24.08535 0.27107,-24.79397 2.82642,24.63384 3.37644,-24.5645 -0.28331,24.79384 6.42856,-23.94761 -3.38856,24.56282 9.3793,-22.95307 -6.44038,23.94444 12.18212,-21.59654 -9.39063,22.94844 14.79283,-19.89942 -12.19278,21.59052 17.17024,-17.88847 -14.80265,19.89211 19.27687,-15.59541 -17.17907,17.87999 21.07949,-13.0564 L 393,680.36218 l 22.54967,-10.31149 -21.08593,13.046 23.66424,-7.40396 -22.55477,10.30036 24.4056,-4.37966 -23.66789,7.39227 24.76208,-1.28629 -24.40776,4.36761 24.72803,1.82736 -24.76271,1.27407 24.30402,4.91219 -24.72713,-1.83956 23.49671,7.91956 -24.30158,-4.92419 22.31884,10.80203 -23.4928,-7.93116 20.78901,13.51415 -22.31351,-10.81305 18.9313,16.01313 -20.78233,-13.5244 16.77505,18.25959 -18.9234,-16.02248 14.35424,20.21807 -16.76603,-18.26786 z"
       id="path3989"
       style="fill:#ff6600;fill-opacity:1" />
    <path
       d="M 666,711.36218 636.34359,687.57 l 22.82284,30.4087 -26.44061,-27.32152 18.83165,33.02938 -22.80782,-30.41996 14.54348,35.12916 -18.81535,-33.03867 10.02596,36.67494 -14.52614,-35.13634 5.3503,37.64234 -10.00784,-36.67989 0.59028,38.01608 -5.33172,-37.64497 -4.17905,37.7903 -0.57152,-38.01637 -8.88247,36.96854 4.1977,-37.78823 -13.44582,35.56375 8.90073,-36.96414 -17.79712,33.59812 13.46338,-35.55712 -21.86775,31.10262 17.81371,-33.58933 -25.59351,28.11661 21.8831,-31.09182 -28.91563,24.68718 25.60738,-28.10396 -31.78176,20.86842 28.92782,-24.6729 -34.14665,16.72056 31.79205,-20.85273 -35.97303,12.309 34.1549,-16.7037 -37.23211,7.70333 35.97911,-12.29125 -37.904,2.97617 37.2359,-7.68495 -37.97813,-1.79793 37.90547,-2.95745 -37.45332,-6.54368 37.97724,1.81668 -36.33785,-11.18622 37.45008,6.56216 -34.64931,-15.65235 36.33233,11.20416 -32.41433,-19.87165 34.64158,15.66947 -29.66816,-23.77755 32.40452,19.88765 L 554,609.36218 l 29.65641,23.79219 -22.82284,-30.4087 26.44061,27.32151 -18.83165,-33.02937 22.80782,30.41996 -14.54348,-35.12917 18.81535,33.03868 -10.02596,-36.67495 14.52614,35.13634 -5.3503,-37.64233 10.00784,36.67989 -0.59028,-38.01609 5.33172,37.64497 4.17905,-37.79029 0.57152,38.01637 8.88247,-36.96854 -4.1977,37.78823 13.44582,-35.56376 -8.90073,36.96415 17.79712,-33.59812 -13.46338,35.55711 21.86775,-31.10261 -17.81371,33.58933 25.59351,-28.11661 -21.8831,31.09181 28.91563,-24.68718 -25.60738,28.10397 31.78176,-20.86843 -28.92782,24.67291 34.14665,-16.72057 -31.79205,20.85274 35.97303,-12.30901 -34.1549,16.70371 37.23211,-7.70334 -35.97911,12.29125 37.904,-2.97617 -37.2359,7.68495 37.97813,1.79793 -37.90547,2.95746 37.45332,6.54368 -37.97724,-1.81669 36.33785,11.18623 -37.45008,-6.56217 34.64931,15.65236 -36.33233,-11.20416 32.41433,19.87164 -34.64158,-15.66946 29.66816,23.77754 -32.40452,-19.88764 z"
       id="path3991"
       style="fill:#ff6600;fill-opacity:1" />
    <path
       d="m 330,45.362183 0.6907,11.021706 2.06663,-10.84823 -0.69614,11.021364 3.40999,-10.50367 -2.07199,10.847208 4.69955,-9.993461 -3.41517,10.501985 5.91501,-9.325649 -4.70449,9.991139 7.03719,-8.510766 -5.91962,9.322728 8.04838,-7.561664 -7.04139,8.507291 8.93264,-6.493309 -8.0521,7.55769 9.67602,-5.322551 -8.93584,6.488898 10.26683,-4.067853 -9.67866,5.317773 10.6957,-2.749003 -10.26883,4.062785 10.95591,-1.3868 -10.69706,2.743723 11.04333,-0.0027 -10.95659,1.38139 10.95659,1.381393 -11.04333,-0.0027 10.69706,2.743724 -10.95591,-1.386801 10.26883,4.062786 -10.6957,-2.749005 9.67865,5.317776 -10.26682,-4.067855 8.93584,6.4889 -9.67602,-5.322553 8.0521,7.557691 -8.93263,-6.49331 7.04138,8.507292 -8.04838,-7.561665 5.91962,9.322729 -7.03719,-8.510767 4.70449,9.99114 -5.91501,-9.32565 3.41517,10.501986 -4.69955,-9.993462 2.07199,10.847208 -3.40999,-10.50367 0.69614,11.021364 L 330.6907,78.340477 330,89.362183 l -0.6907,-11.021706 -2.06663,10.848229 0.69614,-11.021364 -3.40999,10.50367 2.07199,-10.847208 -4.69955,9.993461 3.41517,-10.501985 -5.91501,9.325649 4.70449,-9.991139 -7.03719,8.510766 5.91962,-9.322728 -8.04838,7.561664 7.04139,-8.507291 -8.93264,6.493309 8.0521,-7.557689 -9.67602,5.322551 8.93584,-6.488899 -10.26683,4.067853 9.67866,-5.317773 -10.6957,2.749003 10.26883,-4.062784 -10.95591,1.386799 10.69706,-2.743723 -11.04333,0.0027 10.95659,-1.38139 -10.95659,-1.381392 11.04333,0.0027 -10.69706,-2.743724 10.95591,1.386801 -10.26883,-4.062786 10.6957,2.749005 -9.67865,-5.317775 10.26682,4.067854 -8.93584,-6.488899 9.67602,5.322552 -8.0521,-7.557691 8.93263,6.493311 -7.04138,-8.507293 8.04838,7.561665 -5.91962,-9.322729 7.03719,8.510768 -4.70449,-9.991141 5.91501,9.32565 -3.41517,-10.501985 4.69955,9.993461 -2.07199,-10.847208 3.40999,10.50367 -0.69614,-11.021364 2.06663,10.84823 z"
       id="path3993"
       style="fill:#ff6600;fill-opacity:1" />
    <path
       d="m 172,45.362183 1.44151,6.951022 0.32893,-7.091295 0.55894,7.076881 1.21511,-6.994152 -0.33243,7.091131 2.08213,-6.786707 -1.21856,6.993551 2.91631,-6.472232 -2.08548,6.785678 3.7045,-6.055686 -2.91951,6.470792 4.43427,-5.543639 -3.70749,6.053857 5.09411,-4.944164 -4.43701,5.541449 5.67361,-4.266718 -5.09655,4.941649 6.16363,-3.521982 -5.67571,4.263916 6.55645,-2.721703 -6.16537,3.518939 6.84587,-1.878501 -6.55779,2.718466 7.02732,-1.005673 -6.84679,1.875121 7.09796,-0.116987 -7.02782,1.002205 7.05664,0.773545 -7.09801,0.113483 6.90406,1.651878 -7.05627,-0.777029 6.64258,2.50416 -6.90324,-1.655286 6.27634,3.31695 -6.64134,-2.507439 5.81113,4.077429 -6.2747,-3.320048 5.25427,4.773605 -5.80912,-4.080298 4.61455,5.394499 -5.25191,-4.776199 3.90205,5.930318 -4.61189,-5.396776 3.12802,6.372611 -3.89912,-5.932243 2.30464,6.714406 -3.12486,-6.374155 1.44493,6.95031 -2.30133,-6.715543 0.56244,7.076604 -1.44151,-6.951023 -0.32893,7.091295 -0.55894,-7.07688 -1.21511,6.994152 0.33243,-7.091132 -2.08213,6.786708 1.21856,-6.993552 -2.91631,6.472233 2.08548,-6.785679 -3.7045,6.055686 2.91951,-6.470792 -4.43427,5.543639 3.70749,-6.053857 -5.09411,4.944164 4.43701,-5.541449 -5.67361,4.266718 5.09655,-4.941649 -6.16363,3.521982 5.67571,-4.263916 -6.55645,2.721703 6.16537,-3.518939 -6.84587,1.878501 6.55779,-2.718466 -7.02732,1.005674 6.84679,-1.875122 -7.09796,0.116987 7.02782,-1.002205 -7.05664,-0.773545 7.09801,-0.113483 -6.90406,-1.651878 7.05627,0.777029 -6.64258,-2.50416 6.90324,1.655286 -6.27634,-3.316949 6.64134,2.507439 -5.81113,-4.07743 6.2747,3.320048 -5.25427,-4.773605 5.80912,4.080298 -4.61455,-5.394499 5.25191,4.776199 -3.90205,-5.930317 4.61189,5.396775 -3.12802,-6.372611 3.89912,5.932243 -2.30464,-6.714406 3.12486,6.374155 -1.44493,-6.95031 2.30133,6.715543 z"
       id="path3995"
       style="fill:#ff6600;fill-opacity:1" />
    <path
       d="m 38.000001,30.362183 1.0661,8.986364 1.197783,-8.969762 -0.0686,9.049122 2.312547,-8.74891 -1.202211,8.969169 3.390842,-8.390084 -2.316866,8.747768 4.41566,-7.89894 -3.394983,8.388408 5.370841,-7.283226 -4.419559,7.89676 6.24132,-6.552651 -5.374435,7.280573 7.01337,-5.718736 -6.244554,6.549569 7.674816,-4.794634 -7.016193,5.715273 8.215224,-3.794917 -7.677181,4.790844 8.626074,-2.735352 -8.217097,3.790861 8.900886,-1.63265 -8.627424,2.731094 L 56.90169,46.233927 48,47.862182 l 9.027271,0.632204 -9.035572,0.499738 8.876852,1.758636 -9.026958,-0.63666 8.586441,2.857332 -8.875984,-1.763017 8.160615,3.910968 -8.585028,-2.861571 7.606092,4.902925 -8.158684,-3.914996 6.931617,5.81756 -7.603671,-4.906679 6.147825,6.640449 -6.928744,-5.820982 5.267079,7.358614 -6.144546,-6.643483 4.303267,7.960729 -5.263445,-7.361213 3.271591,8.437298 -4.299337,-7.962852 2.188319,8.780807 -3.267424,-8.438912 1.070536,8.985836 -2.183984,-8.781885 -0.06413,9.049154 -1.0661,-8.986364 -1.197783,8.969762 0.0686,-9.049122 -2.312547,8.748911 1.202211,-8.969169 -3.390842,8.390083 2.316866,-8.747767 -4.41566,7.89894 3.394983,-8.388409 -5.370841,7.283226 4.419559,-7.896759 -6.24132,6.55265 5.374435,-7.280573 -7.01337,5.718736 6.244554,-6.549569 -7.674816,4.794634 7.016193,-5.715273 -8.215224,3.794917 7.677181,-4.790844 -8.626074,2.735352 8.217097,-3.790861 -8.900886,1.63265 8.627424,-2.731094 L 21.09831,50.490438 30,48.862183 l -9.027271,-0.632204 9.035572,-0.499738 -8.876852,-1.758635 9.026958,0.636659 -8.586441,-2.857332 8.875984,1.763017 -8.160615,-3.910968 8.585028,2.861571 -7.606092,-4.902925 8.158684,3.914996 -6.931617,-5.81756 7.603671,4.906679 -6.147825,-6.640449 6.928744,5.820982 -5.267079,-7.358614 6.144546,6.643483 -4.303267,-7.960729 5.263445,7.361213 -3.271591,-8.437298 4.299337,7.962852 -2.188319,-8.780807 3.267424,8.438912 -1.070536,-8.985836 2.183984,8.781886 z"
       id="path3997"
       style="fill:#ff6600;fill-opacity:1" />
    <path
       d="m 18,171.36218 12.304899,-4.29179 -12.985099,1.10326 12.745775,-2.71573 -13.020983,-0.5329 12.985642,-1.09685 -12.851518,-2.16067 13.020718,0.53934 -12.479376,-3.75435 12.850449,2.16701 -11.910428,-5.28883 12.477522,3.76051 -11.153646,-6.7399 11.907816,5.29471 -10.220962,-8.08467 11.150316,6.7454 -9.127089,-9.30195 10.21697,8.08972 -7.889277,-10.37253 9.122496,9.30645 -6.527044,-11.27952 7.884154,10.37642 -5.061877,-12.00864 6.521475,11.28275 -3.516882,-12.54837 5.055949,12.01113 -1.916423,-12.8902 3.510687,12.5501 -0.285741,-13.02875 1.910059,12.89115 1.349449,-12.96183 0.279308,13.02889 2.963355,-12.69049 -1.355847,12.96116 4.530529,-12.21901 -2.96962,12.68902 6.026252,-11.55484 -4.536559,12.21678 7.426938,-10.70843 -6.031956,11.55186 8.710498,-9.69316 -7.432224,10.70477 9.856687,-8.525 -8.715281,9.68885 10.84743,-7.22242 -9.860894,8.52014 11.667103,-5.80592 -10.850994,7.21706 12.302779,-4.29786 -11.669968,5.80016 L 68,157.36218 l -12.304899,4.29179 12.985099,-1.10326 -12.745775,2.71573 13.020983,0.53291 -12.985642,1.09685 12.851518,2.16066 -13.020718,-0.53933 12.479376,3.75435 -12.850449,-2.16701 11.910428,5.28883 -12.477522,-3.76051 11.153646,6.73989 -11.907816,-5.2947 10.220962,8.08467 -11.150316,-6.7454 9.127089,9.30194 -10.21697,-8.08971 7.889277,10.37252 -9.122496,-9.30645 6.527044,11.27953 -7.884154,-10.37642 5.061877,12.00864 -6.521475,-11.28275 3.516882,12.54837 L 46.5,176.86218 l 1.916423,12.8902 -3.510687,-12.5501 0.285741,13.02875 -1.910059,-12.89114 -1.349449,12.96182 -0.279308,-13.02889 -2.963355,12.69049 1.355847,-12.96116 -4.530529,12.21902 2.96962,-12.68903 -6.026252,11.55484 4.536559,-12.21677 -7.426938,10.70843 6.031956,-11.55186 -8.710498,9.69315 7.432224,-10.70476 -9.856687,8.525 8.715281,-9.68885 -10.84743,7.22241 9.860894,-8.52014 -11.667103,5.80592 10.850994,-7.21706 -12.302779,4.29787 11.669968,-5.80016 z"
       id="path3999"
       style="fill:#ff6600;fill-opacity:1" />
    <path
       d="m 18,357.36218 9.738514,2.9104 -8.711361,-5.23653 9.296954,4.10801 -7.986358,-6.28707 8.708774,5.24083 -7.135405,-7.23844 7.983253,6.29101 -6.171923,-8.07567 7.131831,7.24196 -5.111106,-8.78554 6.167936,8.07872 -3.969684,-9.35685 5.106768,8.78806 -2.765657,-9.78061 3.965064,9.35881 -1.518014,-10.05011 2.760828,9.78197 -0.246432,-10.16112 1.513053,10.05086 1.029037,-10.11188 0.241415,10.16124 2.288278,-9.90317 -1.034029,10.11137 3.511431,-9.53829 -2.293167,9.90204 4.679206,-9.02297 -3.516139,9.53655 5.773188,-8.36537 -4.68366,9.02067 6.776123,-7.57583 -5.777318,8.36251 7.672196,-6.66682 -6.779863,7.57249 8.447271,-5.65267 -7.675485,6.66303 9.089129,-4.54937 -8.450061,5.6485 9.587647,-3.37433 -9.091375,4.54488 9.934961,-2.14607 -9.589312,3.3696 10.125595,-0.88397 -9.936019,2.14116 10.156541,0.39208 -10.126029,0.87897 10.027314,1.66194 -10.156347,-0.39709 9.739949,2.90558 -10.026492,-1.66688 9.29898,4.10341 -9.738514,-2.91039 8.711361,5.23653 -9.296954,-4.10801 7.986358,6.28706 -8.708774,-5.24083 7.135405,7.23844 -7.983253,-6.291 6.171923,8.07567 -7.131831,-7.24197 5.111106,8.78554 -6.167936,-8.07871 3.969684,9.35685 -5.106768,-8.78806 2.765657,9.7806 -3.965064,-9.35881 1.518014,10.05011 -2.760828,-9.78197 0.246432,10.16112 -1.513053,-10.05086 -1.029037,10.11189 -0.241415,-10.16124 -2.288278,9.90317 1.034029,-10.11137 -3.511431,9.53828 2.293167,-9.90204 -4.679206,9.02298 3.516139,-9.53655 -5.773188,8.36536 4.68366,-9.02066 -6.776123,7.57583 5.777318,-8.36252 -7.672196,6.66682 6.779863,-7.57248 -8.447271,5.65267 7.675485,-6.66303 -9.089129,4.54937 8.450061,-5.6485 -9.587647,3.37433 9.091375,-4.54489 -9.934961,2.14607 9.589312,-3.36959 -10.125595,0.88397 9.936019,-2.14117 -10.156541,-0.39208 10.126029,-0.87896 -10.027314,-1.66194 10.156347,0.39709 -9.739949,-2.90559 10.026492,1.66689 z"
       id="path4001"
       style="fill:#ff6600;fill-opacity:1" />
    <path
       d="M 408,416.36219 323.00459,328.13912 383.44214,434.69817 310.17423,336.51802 356.77982,449.81166 296.39489,343.22278 328.43352,461.46429 281.88386,348.14766 298.85027,469.47231 266.87001,351.215 268.49663,473.70942 251.59012,352.37641 237.85128,474.10879 236.28514,351.61359 207.39753,470.66414 221.19645,348.93856 177.61564,463.42978 206.56202,344.3935 148.97529,452.51981 192.61263,338.05011 121.92817,438.10628 179.56827,330.00841 96.900817,420.4165 167.63466,320.39524 74.287928,399.72944 157,309.36218 54.446123,376.37137 147.83201,297.08325 37.68832,350.71065 140.27526,283.75209 24.278799,323.15195 134.44895,269.57894 14.429037,294.12991 130.44494,254.78732 8.2943686,264.10221 128.32638,239.6105 5.9715428,233.54241 128.12669,224.28782 7.4971915,202.93246 129.84902,209.06095 12.847254,172.75509 133.4662,194.17 21.937358,143.48622 138.92119,179.84983 34.624145,115.58743 146.12795,166.32627 50.707539,89.498715 154.97284,153.81259 69.933893,65.631497 165.31637,142.50615 91.999998,44.36218 176.99541,132.58524 116.55786,26.026194 189.82577,124.20634 143.22018,10.912709 203.60511,117.50158 171.56648,-0.7399266 218.11614,112.5767 201.14973,-8.747944 233.12999,109.50937 231.50337,-12.985052 248.40988,108.34795 262.14872,-13.384429 263.71486,109.11078 292.60247,-9.9397755 278.80355,111.78581 322.38436,-2.705417 293.43798,116.33086 351.02471,8.2045567 307.38737,122.67426 378.07183,22.618089 320.43173,130.71595 403.09918,40.30787 332.36534,140.32913 425.71207,60.99492 343,151.36218 445.55388,84.352994 352.16799,163.64111 462.31168,110.01372 359.72474,176.97227 475.7212,137.57241 l -110.17015,53.57301 120.01991,-24.55096 -116.0159,39.34259 122.15057,-9.3149 -120.03201,24.49172 122.35484,6.06808 -122.15515,9.25459 120.6295,21.35537 -122.35183,-6.12849 117.00177,36.30585 -120.61895,-21.41491 111.52884,50.68379 -116.98383,-36.36362 104.29704,64.2624 -111.5038,-50.73883 95.42041,76.82755 -104.2653,-64.31388 85.03895,88.1811 -95.38248,-76.87465 z"
       transform="matrix(0.62461016,0,0,0.62461016,102.24166,162.97562)"
       id="path4003"
       style="fill:#ff6600;fill-opacity:1" />
    <path
       d="m 218,545.36218 -7.29637,-4.06934 6.05798,5.75304 -6.72882,-4.95174 5.28916,6.46695 -6.05513,-5.75603 4.43693,7.07885 -5.28597,-6.46955 3.51473,7.57913 -4.43344,-7.08104 2.5371,7.95988 -3.51099,-7.58087 1.51946,8.2151 -2.53317,-7.96114 0.47785,8.34076 -1.5154,-8.21585 -0.5713,8.33488 -0.47372,-8.34099 -1.61143,8.19755 0.57541,-8.33459 -2.62615,7.93095 1.61548,-8.19676 -3.59946,7.53927 2.63007,-7.92966 -4.51599,7.02869 3.60317,-7.53749 -5.36131,6.40726 4.51946,-7.02645 -6.12207,5.68478 5.36447,-6.40461 -6.7863,4.87266 6.12488,-5.68176 -7.34348,3.98369 6.78869,-4.86931 -7.78487,3.03189 7.34546,-3.98006 -8.10348,2.03228 7.78636,-3.02805 -8.29429,1.00062 8.10448,-2.02828 -8.3543,-0.0468 8.29478,-0.99653 -8.28256,-1.09352 8.35428,0.051 -8.08019,-2.12298 8.28202,1.09761 -7.7504,-3.11896 8.07914,2.12697 -7.29837,-4.06574 7.74886,3.12278 -6.73126,-4.94842 7.29637,4.06935 -6.05798,-5.75304 6.72882,4.95173 -5.28916,-6.46694 6.05513,5.75603 -4.43693,-7.07886 5.28597,6.46956 -3.51473,-7.57914 4.43344,7.08105 -2.5371,-7.95988 3.51099,7.58087 -1.51946,-8.2151 2.53317,7.96113 -0.47785,-8.34076 1.5154,8.21585 0.5713,-8.33488 0.47372,8.34099 1.61143,-8.19755 -0.57541,8.3346 2.62615,-7.93095 -1.61548,8.19676 3.59946,-7.53927 -2.63007,7.92965 4.51599,-7.02869 -3.60317,7.53749 5.36131,-6.40726 -4.51946,7.02646 6.12207,-5.68479 -5.36447,6.40462 6.7863,-4.87267 -6.12488,5.68177 7.34348,-3.98369 -6.78869,4.86931 7.78487,-3.0319 -7.34546,3.98007 8.10348,-2.03229 -7.78636,3.02805 8.29429,-1.00062 -8.10448,2.02828 8.3543,0.0468 -8.29478,0.99653 8.28256,1.09352 -8.35428,-0.0509 8.08019,2.12298 -8.28202,-1.09761 7.7504,3.11895 -8.07914,-2.12696 7.29837,4.06574 -7.74886,-3.12278 z"
       id="path4005"
       style="fill:#ff6600;fill-opacity:1" />
    <path
       d="m 533,67.362182 -5.51219,-7.701833 3.42801,8.829001 -4.50343,-8.331963 2.2944,9.189025 -3.42364,-8.830692 1.12462,9.404132 -2.28987,-9.190157 -0.0629,9.470931 -1.11999,-9.404686 -1.24941,9.388367 0.0676,-9.470899 -2.41624,9.157743 1.25406,-9.387749 -3.54496,8.782697 2.42076,-9.15655 -4.61777,8.269141 3.54929,-8.780945 -5.61775,7.625177 4.62185,-8.266861 -6.52914,6.860959 5.62151,-7.622403 -7.33756,5.988539 6.53253,-6.857734 -8.03027,5.021676 7.34052,-5.984916 -8.59633,3.97562 8.03275,-5.017712 -9.02683,2.866864 8.5983,-3.971375 -9.31496,1.712897 9.02824,-2.862408 -9.4562,0.531917 9.31581,-1.708299 -9.44829,-0.657453 9.45645,-0.527248 -9.29139,-1.836454 9.44797,0.662118 -8.98796,-2.986493 9.29048,1.84104 -8.54277,-4.089432 8.98648,2.990929 -7.96288,-5.12788 8.54076,4.093649 -7.25739,-6.085457 7.96034,5.13181 -6.43745,-6.947064 7.25438,6.08904 -5.51599,-7.699111 6.43402,6.950241 L 513,35.362183 l 5.51219,7.701833 -3.42801,-8.829001 4.50343,8.331963 -2.2944,-9.189024 3.42364,8.830692 -1.12462,-9.404132 2.28987,9.190156 0.0629,-9.470931 1.11999,9.404686 1.24941,-9.388366 -0.0676,9.470898 2.41624,-9.157743 -1.25406,9.387749 3.54496,-8.782696 -2.42076,9.156549 4.61777,-8.269141 -3.54929,8.780945 5.61775,-7.625176 -4.62185,8.26686 6.52914,-6.860958 -5.62151,7.622402 7.33756,-5.988539 -6.53253,6.857735 8.03027,-5.021677 -7.34052,5.984916 8.59633,-3.975619 -8.03275,5.017711 9.02683,-2.866864 -8.5983,3.971375 9.31496,-1.712897 -9.02824,2.862408 9.4562,-0.531916 -9.31581,1.708298 9.44829,0.657453 -9.45645,0.527248 9.29139,1.836454 -9.44797,-0.662117 8.98796,2.986492 -9.29048,-1.84104 8.54277,4.089433 -8.98648,-2.99093 7.96288,5.12788 -8.54076,-4.093649 7.25739,6.085457 -7.96034,-5.13181 6.43745,6.947064 -7.25438,-6.08904 5.51599,7.699111 -6.43402,-6.950241 z"
       id="path4007"
       style="fill:#ff6600;fill-opacity:1" />
    <path
       d="m 441,284.36218 -7.7359,-11.08316 4.74284,12.65647 -6.28581,-11.96534 3.11917,13.1511 -4.7366,-12.6588 1.44631,13.43833 -3.11268,-13.15263 -0.24937,13.51364 -1.43967,-13.43905 -1.94111,13.37583 0.25604,-13.51352 -3.60224,13.02707 1.94771,-13.37487 -5.20656,12.47287 3.60867,-13.02529 -6.72877,11.72196 5.21272,-12.47029 -8.14486,10.78618 6.73455,-11.71863 -9.4325,9.68031 8.15018,-10.78216 -10.57139,8.42177 9.43728,-9.67565 -11.54356,7.03042 10.57555,-8.41656 -12.33368,5.52819 11.54703,-7.02472 -12.92929,3.93878 12.3364,-5.5221 -13.321,2.28725 12.93124,-3.93239 -13.50263,0.59965 13.32213,-2.28068 -13.47132,-1.0974 13.50293,-0.59299 -13.22755,-2.77715 13.47077,1.10405 -12.77517,-4.41311 13.22617,2.78369 -12.12133,-5.97946 12.773,4.41941 -11.27633,-7.45152 12.11838,5.98545 -10.25348,-8.80606 11.27264,7.45708 -9.06894,-10.02172 10.24913,8.81112 -7.74137,-11.07934 9.06399,10.0262 L 413,238.36218 l 7.7359,11.08316 -4.74284,-12.65646 6.28581,11.96533 -3.11917,-13.1511 4.7366,12.6588 -1.44631,-13.43833 3.11268,13.15264 0.24937,-13.51364 1.43967,13.43904 1.94111,-13.37582 -0.25604,13.51351 3.60224,-13.02706 -1.94771,13.37486 5.20656,-12.47286 -3.60867,13.02528 6.72877,-11.72195 -5.21272,12.47029 8.14486,-10.78619 -6.73455,11.71863 9.4325,-9.68031 -8.15018,10.78217 10.57139,-8.42178 -9.43728,9.67566 11.54356,-7.03042 -10.57555,8.41655 12.33368,-5.52819 -11.54703,7.02472 12.92929,-3.93878 -12.3364,5.5221 13.321,-2.28725 -12.93124,3.9324 13.50263,-0.59965 -13.32213,2.28067 13.47132,1.09741 -13.50293,0.59298 13.22755,2.77716 -13.47077,-1.10406 12.77517,4.41311 -13.22617,-2.78368 12.12133,5.97946 -12.773,-4.41941 11.27633,7.45151 -12.11838,-5.98544 10.25348,8.80606 -11.27264,-7.45709 9.06894,10.02173 -10.24913,-8.81112 7.74137,11.07934 -9.06399,-10.0262 z"
       id="path4009"
       style="fill:#ff6600;fill-opacity:1" />
    <path
       d="m 500,711.36218 -7.7673,-11.58414 4.64891,13.14956 -6.25417,-12.4663 2.96417,13.62854 -4.64242,-13.15186 1.23269,13.89258 -2.95744,-13.63 -0.51824,13.93753 -1.22583,-13.89319 -2.26098,13.76268 0.52512,-13.93727 -3.96808,13.37078 2.26778,-13.76156 -5.61259,12.76801 3.97467,-13.36882 -7.16859,11.9639 5.6189,-12.76525 -8.61154,10.97109 7.17449,-11.96035 -9.91867,9.80527 8.61695,-10.96684 -11.06939,8.48481 9.92352,-9.80037 -12.04553,7.03055 11.07357,-8.47935 -12.83171,5.4654 12.049,-7.02459 -13.41552,3.81406 12.8344,-5.45906 -13.78776,2.10258 13.4174,-3.80745 -13.94257,0.35794 13.7888,-2.09577 -13.87748,-1.39236 13.94274,-0.35105 -13.59355,-3.12069 13.8768,1.39921 -13.09524,-4.79981 13.59201,3.1274 -12.3904,-6.40322 13.09286,4.80627 -11.49016,-7.90567 12.38724,6.40934 -10.40872,-9.28342 11.48626,7.91133 -9.16312,-10.51477 10.40413,9.28856 -7.77301,-11.58031 9.15793,10.5193 L 472,663.36218 l 7.7673,11.58415 -4.64891,-13.14957 6.25417,12.46631 -2.96417,-13.62854 4.64242,13.15186 -1.23269,-13.89259 2.95744,13.63 0.51824,-13.93753 1.22583,13.89319 2.26098,-13.76268 -0.52512,13.93728 3.96808,-13.37078 -2.26778,13.76156 5.61259,-12.76802 -3.97467,13.36882 7.16859,-11.96389 -5.6189,12.76524 8.61154,-10.97109 -7.17449,11.96035 9.91867,-9.80527 -8.61695,10.96684 11.06939,-8.48481 -9.92352,9.80037 12.04553,-7.03054 -11.07357,8.47934 12.83171,-5.4654 -12.049,7.0246 13.41552,-3.81407 -12.8344,5.45907 13.78776,-2.10258 -13.4174,3.80744 13.94257,-0.35793 -13.7888,2.09577 13.87748,1.39236 -13.94274,0.35105 13.59355,3.12068 -13.8768,-1.3992 13.09524,4.7998 -13.59201,-3.1274 12.3904,6.40323 -13.09286,-4.80627 11.49016,7.90566 -12.38724,-6.40934 10.40872,9.28342 -11.48626,-7.91133 9.16312,10.51478 -10.40413,-9.28856 7.77301,11.58031 -9.15793,-10.5193 z"
       id="path4011"
       style="fill:#ff6600;fill-opacity:1" />
    <path
       d="m 272,690.36218 -4.66719,-10.26955 1.97211,11.10663 -3.34327,-10.77354 0.56453,11.26623 -1.96663,-11.10761 -0.85195,11.24814 -0.55897,-11.2665 -2.255,11.05267 0.8575,-11.24772 -3.62248,10.68289 2.26045,-11.05155 -4.93284,10.14463 3.62776,-10.6811 -6.16541,9.44639 4.93785,-10.14219 -7.30073,8.59917 6.17006,-9.44335 -8.32092,7.61634 7.30497,-8.59556 -9.20989,6.51339 8.32469,-7.61223 -9.95362,5.30773 9.21311,-6.50885 -10.54037,4.01836 9.95624,-5.30282 -10.96088,2.66561 10.54234,-4.01315 -11.20854,1.27083 10.9622,-2.6602 -11.27944,-0.14399 11.20917,-1.2653 -11.17245,-1.55655 11.27936,0.14957 -10.88926,-2.94456 11.17168,1.56207 -10.43435,-4.28613 10.88781,2.94993 -9.81488,-5.56009 10.43223,4.29127 -9.04062,-6.74638 9.81214,5.56494 -8.12379,-7.82628 9.03729,6.75085 -7.07884,-8.78275 8.11992,7.83029 -5.92224,-9.6007 7.0745,8.78623 -4.67226,-10.26725 5.9175,9.60362 L 256,648.36218 l 4.66719,10.26956 -1.97211,-11.10663 3.34327,10.77353 -0.56453,-11.26622 1.96663,11.1076 0.85195,-11.24814 0.55897,11.2665 2.255,-11.05267 -0.8575,11.24772 3.62248,-10.68289 -2.26045,11.05156 4.93284,-10.14463 -3.62776,10.68109 6.16541,-9.44639 -4.93785,10.1422 7.30073,-8.59917 -6.17006,9.44334 8.32092,-7.61634 -7.30497,8.59557 9.20989,-6.5134 -8.32469,7.61224 9.95362,-5.30773 -9.21311,6.50884 10.54037,-4.01835 -9.95624,5.30281 10.96088,-2.66561 -10.54234,4.01315 11.20854,-1.27083 -10.9622,2.6602 11.27944,0.144 -11.20917,1.26529 11.17245,1.55655 -11.27936,-0.14956 10.88926,2.94455 -11.17168,-1.56206 10.43435,4.28612 -10.88781,-2.94993 9.81488,5.5601 -10.43223,-4.29127 9.04062,6.74638 -9.81214,-5.56494 8.12379,7.82627 -9.03729,-6.75084 7.07884,8.78274 -8.11992,-7.83028 5.92224,9.6007 -7.0745,-8.78624 4.67226,10.26726 -5.9175,-9.60363 z"
       id="path4013"
       style="fill:#ff6600;fill-opacity:1" />
    <path
       d="m 266,573.36218 -3.50958,-15.87459 -0.54051,16.24893 -1.49229,-16.18929 -2.57278,16.05306 0.54853,-16.24866 -4.56447,15.60402 2.5807,-16.05179 -6.48418,14.9089 4.57217,-15.60176 -8.30163,13.97865 6.49154,-14.90569 -9.98816,12.82795 8.30853,-13.97455 -11.51717,11.47495 9.99449,-12.82302 -12.86455,9.94099 11.52284,-11.46927 -14.00905,8.25024 12.86946,-9.93463 -14.93261,6.42939 14.01311,-8.24333 -15.62067,4.50714 14.93578,-6.42202 -16.0624,2.51381 15.6229,-4.49943 -16.25081,0.48084 16.06364,-2.50588 -16.18293,-1.55972 16.25104,-0.47282 -15.85983,-3.57568 16.18215,1.56771 -15.28662,-5.53525 15.85807,3.58351 -14.47234,-7.40752 15.28389,5.54279 -13.4298,-9.16298 14.46867,7.41467 -12.17548,-10.77393 13.42528,9.16961 -10.72914,-12.21496 12.17016,10.77993 -9.1136,-13.46336 10.72311,12.22026 -7.35433,-14.49944 9.10696,13.46786 -5.47908,-15.30685 7.34717,14.50307 -3.51742,-15.87286 5.47152,15.30955 L 256,509.36218 l 3.50958,15.8746 0.54051,-16.24893 1.49229,16.18928 2.57278,-16.05306 -0.54853,16.24866 4.56447,-15.60402 -2.5807,16.05179 6.48418,-14.9089 -4.57217,15.60177 8.30163,-13.97866 -6.49154,14.9057 9.98816,-12.82796 -8.30853,13.97456 11.51717,-11.47496 -9.99449,12.82303 12.86455,-9.94099 -11.52284,11.46927 14.00905,-8.25025 -12.86946,9.93464 14.93261,-6.42939 -14.01311,8.24333 15.62067,-4.50714 -14.93578,6.42201 16.0624,-2.51381 -15.6229,4.49943 16.25081,-0.48083 -16.06364,2.50588 16.18293,1.55972 -16.25104,0.47281 15.85983,3.57568 -16.18215,-1.56771 15.28662,5.53525 -15.85807,-3.58351 14.47234,7.40753 -15.28389,-5.5428 13.4298,9.16298 -14.46867,-7.41467 12.17548,10.77393 -13.42528,-9.16961 10.72914,12.21497 -12.17016,-10.77994 9.1136,13.46337 -10.72311,-12.22026 7.35433,14.49944 -9.10696,-13.46787 5.47908,15.30685 -7.34717,-14.50306 3.51742,15.87286 -5.47152,-15.30956 z"
       id="path4015"
       style="fill:#ff6600;fill-opacity:1" />
  </g>
</svg>
